{"glyphs":{"0":{"ha":770,"x_min":63,"x_max":707,"o":"m 385 -13 q 145 111 227 -13 q 63 514 63 236 q 145 917 63 792 q 385 1041 226 1041 q 625 917 543 1041 q 707 514 707 792 q 625 111 707 236 q 385 -13 543 -13 m 385 103 q 487 141 446 103 q 549 269 528 179 q 571 513 571 359 q 549 758 571 667 q 487 886 528 849 q 385 924 446 924 q 283 886 324 924 q 221 759 242 849 q 199 515 199 669 q 221 270 199 360 q 283 142 242 180 q 385 103 324 103 z "},"1":{"ha":431,"x_min":10,"x_max":331,"o":"m 249 1031 l 331 1031 l 331 0 l 194 0 l 194 863 l 10 733 l 10 863 l 249 1031 z "},"2":{"ha":608,"x_min":18,"x_max":572,"o":"m 572 121 l 572 0 l 31 0 l 31 77 l 279 465 q 365 626 339 558 q 392 756 392 694 q 345 884 392 844 q 204 923 299 923 q 18 886 104 923 l 18 1004 q 113 1031 56 1021 q 222 1041 169 1041 q 448 976 369 1041 q 528 770 528 910 q 499 610 528 692 q 401 422 471 528 l 206 121 l 572 121 z "},"3":{"ha":631,"x_min":26,"x_max":589,"o":"m 377 533 q 535 444 481 510 q 589 274 589 378 q 548 118 589 183 q 429 20 506 53 q 244 -13 351 -13 q 26 21 131 -13 l 26 133 q 133 108 77 117 q 240 99 190 99 q 401 144 345 99 q 456 281 456 190 q 399 421 456 372 q 222 469 342 469 l 128 469 l 128 584 l 190 584 q 366 633 306 584 q 426 769 426 682 q 378 889 426 849 q 235 929 331 929 q 41 892 131 929 l 41 1004 q 137 1031 80 1021 q 249 1041 194 1041 q 479 974 400 1041 q 558 781 558 907 q 510 625 558 690 q 377 533 463 560 z "},"4":{"ha":740,"x_min":28,"x_max":717,"o":"m 717 349 l 717 240 l 589 240 l 589 0 l 465 0 l 465 240 l 28 240 l 28 317 l 367 1028 l 499 1028 l 180 349 l 465 349 l 482 681 l 589 681 l 589 349 l 717 349 z "},"5":{"ha":635,"x_min":44,"x_max":606,"o":"m 238 599 q 515 512 425 587 q 606 292 606 438 q 517 65 606 142 q 263 -13 428 -13 q 44 22 144 -13 l 44 135 q 152 108 95 117 q 260 99 208 99 q 473 287 473 99 q 445 394 473 353 q 352 459 417 436 q 178 488 288 482 l 76 495 l 108 1028 l 565 1028 l 565 913 l 230 913 l 210 600 l 238 599 z "},"6":{"ha":719,"x_min":72,"x_max":688,"o":"m 406 598 q 549 565 485 598 q 650 465 613 533 q 688 299 688 398 q 651 128 688 199 q 547 22 613 58 q 397 -13 481 -13 q 158 102 245 -13 q 72 483 72 217 q 176 907 72 774 q 481 1041 281 1041 q 642 1014 579 1041 l 642 900 q 483 927 569 927 q 332 888 392 927 q 240 760 272 849 q 207 528 208 672 q 295 580 243 561 q 406 598 348 598 m 399 96 q 516 144 470 96 q 561 293 561 193 q 512 442 561 394 q 382 490 463 490 q 287 473 333 490 q 208 419 241 456 q 236 224 211 296 q 302 124 261 153 q 399 96 342 96 z "},"7":{"ha":585,"x_min":6,"x_max":547,"o":"m 6 1028 l 547 1028 l 547 951 l 231 0 l 90 0 l 399 907 l 6 907 l 6 1028 z "},"8":{"ha":770,"x_min":53,"x_max":717,"o":"m 533 528 q 641 458 601 496 q 699 374 681 421 q 717 263 717 326 q 677 119 717 181 q 564 22 638 56 q 390 -13 490 -13 q 207 20 283 -13 q 92 114 131 53 q 53 258 53 175 q 100 414 53 344 q 232 521 147 483 q 116 627 151 566 q 80 772 80 688 q 117 914 80 853 q 224 1008 154 974 q 388 1041 293 1041 q 547 1009 479 1041 q 652 918 615 977 q 689 781 689 860 q 650 636 689 700 q 533 528 610 572 m 389 937 q 258 894 304 937 q 212 776 212 851 q 230 690 212 725 q 295 626 249 655 q 426 569 341 598 l 435 567 q 538 655 506 606 q 569 772 569 703 q 522 894 569 851 q 389 937 474 937 m 390 91 q 535 134 484 91 q 587 256 587 178 q 567 345 587 310 q 502 408 548 381 q 370 463 456 435 q 326 478 343 471 q 220 393 258 448 q 183 267 183 338 q 235 136 183 182 q 390 91 288 91 z "},"9":{"ha":719,"x_min":31,"x_max":647,"o":"m 322 1041 q 560 926 474 1041 q 647 545 647 810 q 542 120 647 254 q 238 -13 438 -13 q 76 14 140 -13 l 76 128 q 236 101 150 101 q 387 140 327 101 q 479 267 447 179 q 512 500 510 356 q 423 448 476 467 q 313 430 371 430 q 170 463 234 430 q 68 563 106 495 q 31 729 31 630 q 68 900 31 829 q 172 1006 106 970 q 322 1041 238 1041 m 337 538 q 432 555 386 538 q 511 608 478 572 q 483 803 508 732 q 417 903 458 875 q 319 932 376 932 q 203 883 249 932 q 158 735 158 835 q 207 586 158 634 q 337 538 256 538 z "},"\u0000":{"ha":0,"x_min":0,"x_max":0,"o":""},"\r":{"ha":294,"x_min":0,"x_max":0,"o":""}," ":{"ha":294,"x_min":0,"x_max":0,"o":""},"A":{"ha":831,"x_min":9,"x_max":823,"o":"m 686 0 l 594 316 l 236 316 l 144 0 l 9 0 l 317 1028 l 515 1028 l 823 0 l 686 0 m 270 435 l 559 435 l 415 928 l 270 435 z "},"Á":{"ha":831,"x_min":9,"x_max":823,"o":"m 686 0 l 594 316 l 236 316 l 144 0 l 9 0 l 317 1028 l 515 1028 l 823 0 l 686 0 m 270 435 l 559 435 l 415 928 l 270 435 m 357 1114 l 456 1315 l 596 1315 l 475 1114 l 357 1114 z "},"Ă":{"ha":831,"x_min":9,"x_max":823,"o":"m 686 0 l 594 316 l 236 316 l 144 0 l 9 0 l 317 1028 l 515 1028 l 823 0 l 686 0 m 270 435 l 559 435 l 415 928 l 270 435 m 417 1119 q 274 1166 326 1119 q 214 1303 221 1213 l 301 1303 q 335 1220 308 1245 q 417 1194 363 1194 q 499 1220 472 1194 q 531 1303 526 1246 l 618 1303 q 559 1166 611 1213 q 417 1119 507 1119 z "},"Ắ":{"ha":831,"x_min":9,"x_max":823,"o":"m 686 0 l 594 316 l 236 316 l 144 0 l 9 0 l 317 1028 l 515 1028 l 823 0 l 686 0 m 270 435 l 559 435 l 415 928 l 270 435 m 380 1278 l 457 1449 l 552 1449 l 453 1278 l 380 1278 m 416 1119 q 273 1163 324 1119 q 213 1291 221 1208 l 294 1291 q 329 1212 301 1237 q 416 1188 357 1188 q 503 1212 475 1188 q 541 1291 531 1236 l 619 1291 q 559 1163 612 1208 q 416 1119 507 1119 z "},"Ặ":{"ha":831,"x_min":9,"x_max":823,"o":"m 686 0 l 594 316 l 236 316 l 144 0 l 9 0 l 317 1028 l 515 1028 l 823 0 l 686 0 m 270 435 l 559 435 l 415 928 l 270 435 m 416 -258 q 349 -238 374 -258 q 325 -182 325 -219 q 350 -126 325 -146 q 416 -106 374 -106 q 483 -125 458 -106 q 507 -182 507 -145 q 483 -238 507 -219 q 416 -258 458 -258 m 417 1119 q 274 1166 326 1119 q 214 1303 221 1213 l 301 1303 q 335 1220 308 1245 q 417 1194 363 1194 q 499 1220 472 1194 q 531 1303 526 1246 l 618 1303 q 559 1166 611 1213 q 417 1119 507 1119 z "},"Ằ":{"ha":831,"x_min":9,"x_max":823,"o":"m 686 0 l 594 316 l 236 316 l 144 0 l 9 0 l 317 1028 l 515 1028 l 823 0 l 686 0 m 270 435 l 559 435 l 415 928 l 270 435 m 380 1278 l 280 1449 l 375 1449 l 453 1278 l 380 1278 m 416 1119 q 273 1163 324 1119 q 213 1291 221 1208 l 292 1291 q 328 1212 300 1236 q 416 1188 357 1188 q 502 1212 475 1188 q 538 1291 530 1236 l 619 1291 q 559 1163 612 1208 q 416 1119 507 1119 z "},"Ẳ":{"ha":831,"x_min":9,"x_max":823,"o":"m 686 0 l 594 316 l 236 316 l 144 0 l 9 0 l 317 1028 l 515 1028 l 823 0 l 686 0 m 270 435 l 559 435 l 415 928 l 270 435 m 378 1278 q 397 1322 380 1307 q 444 1352 413 1338 q 473 1369 464 1362 q 482 1387 482 1376 q 465 1409 482 1401 q 409 1416 449 1416 q 347 1411 379 1416 q 286 1396 315 1406 l 286 1453 q 348 1468 311 1462 q 419 1474 385 1474 q 528 1453 492 1474 q 564 1395 564 1433 q 549 1356 564 1370 q 506 1328 535 1342 q 469 1305 482 1316 q 455 1278 457 1294 l 378 1278 m 415 1119 q 272 1163 324 1119 q 213 1291 221 1208 l 294 1291 q 329 1212 301 1237 q 415 1188 357 1188 q 502 1212 474 1188 q 541 1291 531 1236 l 619 1291 q 559 1163 612 1208 q 415 1119 507 1119 z "},"Ẵ":{"ha":831,"x_min":9,"x_max":823,"o":"m 686 0 l 594 316 l 236 316 l 144 0 l 9 0 l 317 1028 l 515 1028 l 823 0 l 686 0 m 270 435 l 559 435 l 415 928 l 270 435 m 505 1334 q 459 1341 481 1334 q 406 1360 438 1347 q 362 1376 381 1371 q 326 1382 344 1382 q 268 1370 294 1382 q 213 1333 242 1359 l 213 1408 q 265 1441 238 1431 q 328 1451 292 1451 q 373 1445 351 1451 q 427 1425 394 1438 q 472 1408 456 1413 q 506 1403 489 1403 q 565 1414 538 1403 q 619 1451 591 1426 l 619 1377 q 568 1344 595 1354 q 505 1334 541 1334 m 415 1119 q 272 1163 324 1119 q 213 1291 221 1208 l 294 1291 q 329 1212 301 1237 q 415 1188 357 1188 q 502 1212 474 1188 q 538 1291 531 1236 l 619 1291 q 559 1163 612 1208 q 415 1119 507 1119 z "},"Â":{"ha":831,"x_min":9,"x_max":823,"o":"m 686 0 l 594 316 l 236 316 l 144 0 l 9 0 l 317 1028 l 515 1028 l 823 0 l 686 0 m 270 435 l 559 435 l 415 928 l 270 435 m 612 1114 l 512 1114 l 416 1261 l 320 1114 l 221 1114 l 356 1315 l 476 1315 l 612 1114 z "},"Ấ":{"ha":831,"x_min":9,"x_max":823,"o":"m 686 0 l 594 316 l 236 316 l 144 0 l 9 0 l 317 1028 l 515 1028 l 823 0 l 686 0 m 270 435 l 559 435 l 415 928 l 270 435 m 635 1433 l 731 1433 l 631 1254 l 558 1254 l 635 1433 m 356 1303 l 476 1303 l 612 1114 l 512 1114 l 416 1253 l 320 1114 l 221 1114 l 356 1303 z "},"Ậ":{"ha":831,"x_min":9,"x_max":823,"o":"m 686 0 l 594 316 l 236 316 l 144 0 l 9 0 l 317 1028 l 515 1028 l 823 0 l 686 0 m 270 435 l 559 435 l 415 928 l 270 435 m 416 -258 q 349 -238 374 -258 q 325 -182 325 -219 q 350 -126 325 -146 q 416 -106 374 -106 q 483 -125 458 -106 q 507 -182 507 -145 q 483 -238 507 -219 q 416 -258 458 -258 m 612 1114 l 512 1114 l 416 1261 l 320 1114 l 221 1114 l 356 1315 l 476 1315 l 612 1114 z "},"Ầ":{"ha":831,"x_min":9,"x_max":823,"o":"m 686 0 l 594 316 l 236 316 l 144 0 l 9 0 l 317 1028 l 515 1028 l 823 0 l 686 0 m 270 435 l 559 435 l 415 928 l 270 435 m 650 1254 l 577 1254 l 478 1433 l 573 1433 l 650 1254 m 356 1303 l 476 1303 l 612 1114 l 512 1114 l 416 1253 l 320 1114 l 221 1114 l 356 1303 z "},"Ẩ":{"ha":831,"x_min":9,"x_max":823,"o":"m 686 0 l 594 316 l 236 316 l 144 0 l 9 0 l 317 1028 l 515 1028 l 823 0 l 686 0 m 270 435 l 559 435 l 415 928 l 270 435 m 598 1450 q 707 1430 671 1450 q 743 1372 743 1409 q 728 1333 743 1347 q 685 1304 714 1319 q 649 1282 661 1292 q 634 1254 636 1271 l 557 1254 q 568 1289 558 1275 q 590 1311 578 1303 q 623 1328 603 1319 q 652 1345 643 1338 q 662 1363 662 1352 q 645 1385 662 1378 q 589 1392 628 1392 q 526 1387 558 1392 q 466 1372 494 1382 l 466 1429 q 528 1444 491 1438 q 598 1450 565 1450 m 356 1303 l 476 1303 l 612 1114 l 512 1114 l 416 1253 l 320 1114 l 221 1114 l 356 1303 z "},"Ẫ":{"ha":831,"x_min":9,"x_max":823,"o":"m 686 0 l 594 316 l 236 316 l 144 0 l 9 0 l 317 1028 l 515 1028 l 823 0 l 686 0 m 270 435 l 559 435 l 415 928 l 270 435 m 503 1403 q 559 1414 534 1403 q 612 1451 583 1426 l 612 1377 q 563 1344 589 1354 q 501 1334 536 1334 q 456 1341 478 1334 q 406 1360 433 1348 q 363 1377 380 1372 q 330 1382 346 1382 q 274 1370 299 1382 q 221 1333 249 1359 l 221 1408 q 270 1441 244 1431 q 331 1451 297 1451 q 375 1445 354 1451 q 427 1425 397 1438 q 469 1408 451 1414 q 503 1403 486 1403 m 356 1303 l 476 1303 l 612 1114 l 512 1114 l 416 1253 l 320 1114 l 221 1114 l 356 1303 z "},"Ȁ":{"ha":831,"x_min":9,"x_max":823,"o":"m 686 0 l 594 316 l 236 316 l 144 0 l 9 0 l 317 1028 l 515 1028 l 823 0 l 686 0 m 270 435 l 559 435 l 415 928 l 270 435 m 251 1114 l 174 1315 l 286 1315 l 356 1114 l 251 1114 m 477 1114 l 399 1315 l 512 1315 l 581 1114 l 477 1114 z "},"Ä":{"ha":831,"x_min":9,"x_max":823,"o":"m 686 0 l 594 316 l 236 316 l 144 0 l 9 0 l 317 1028 l 515 1028 l 823 0 l 686 0 m 270 435 l 559 435 l 415 928 l 270 435 m 272 1140 q 211 1160 233 1140 q 189 1216 189 1180 q 211 1272 189 1252 q 272 1292 233 1292 q 333 1272 311 1292 q 355 1216 355 1252 q 333 1160 355 1180 q 272 1140 311 1140 m 560 1140 q 499 1160 522 1140 q 477 1216 477 1181 q 499 1272 477 1252 q 560 1292 522 1292 q 622 1272 599 1292 q 644 1216 644 1252 q 622 1160 644 1181 q 560 1140 599 1140 z "},"Ạ":{"ha":831,"x_min":9,"x_max":823,"o":"m 686 0 l 594 316 l 236 316 l 144 0 l 9 0 l 317 1028 l 515 1028 l 823 0 l 686 0 m 270 435 l 559 435 l 415 928 l 270 435 m 416 -258 q 349 -238 374 -258 q 325 -182 325 -219 q 350 -126 325 -146 q 416 -106 374 -106 q 483 -125 458 -106 q 507 -182 507 -145 q 483 -238 507 -219 q 416 -258 458 -258 z "},"À":{"ha":831,"x_min":9,"x_max":823,"o":"m 686 0 l 594 316 l 236 316 l 144 0 l 9 0 l 317 1028 l 515 1028 l 823 0 l 686 0 m 270 435 l 559 435 l 415 928 l 270 435 m 357 1114 l 237 1315 l 377 1315 l 475 1114 l 357 1114 z "},"Ả":{"ha":831,"x_min":9,"x_max":823,"o":"m 686 0 l 594 316 l 236 316 l 144 0 l 9 0 l 317 1028 l 515 1028 l 823 0 l 686 0 m 270 435 l 559 435 l 415 928 l 270 435 m 378 1114 q 397 1161 380 1145 q 444 1193 414 1178 q 473 1210 463 1202 q 482 1228 482 1217 q 465 1252 482 1244 q 409 1260 449 1260 q 347 1254 379 1260 q 286 1238 315 1249 l 286 1301 q 348 1317 311 1311 q 419 1323 385 1323 q 528 1301 492 1323 q 564 1239 564 1279 q 550 1198 564 1213 q 506 1167 535 1183 q 470 1143 483 1154 q 455 1114 457 1132 l 378 1114 z "},"Ȃ":{"ha":831,"x_min":9,"x_max":823,"o":"m 686 0 l 594 316 l 236 316 l 144 0 l 9 0 l 317 1028 l 515 1028 l 823 0 l 686 0 m 270 435 l 559 435 l 415 928 l 270 435 m 214 1126 q 273 1263 221 1216 q 415 1310 324 1310 q 559 1263 506 1310 q 618 1126 611 1216 l 531 1126 q 497 1209 524 1184 q 415 1235 469 1235 q 334 1209 361 1235 q 301 1126 307 1183 l 214 1126 z "},"Ā":{"ha":831,"x_min":9,"x_max":823,"o":"m 686 0 l 594 316 l 236 316 l 144 0 l 9 0 l 317 1028 l 515 1028 l 823 0 l 686 0 m 270 435 l 559 435 l 415 928 l 270 435 m 212 1169 l 212 1261 l 620 1261 l 620 1169 l 212 1169 z "},"Ą":{"ha":831,"x_min":9,"x_max":873,"o":"m 775 -230 q 873 -206 820 -230 l 873 -270 q 762 -294 820 -294 q 640 -260 682 -294 q 599 -162 599 -226 q 623 -75 599 -115 q 703 0 648 -36 l 686 0 l 594 316 l 236 316 l 144 0 l 9 0 l 317 1028 l 515 1028 l 823 0 q 713 -75 744 -38 q 681 -155 681 -112 q 704 -211 681 -192 q 775 -230 727 -230 m 270 435 l 559 435 l 415 928 l 270 435 z "},"Å":{"ha":831,"x_min":9,"x_max":823,"o":"m 686 0 l 594 316 l 236 316 l 144 0 l 9 0 l 317 1028 l 515 1028 l 823 0 l 686 0 m 270 435 l 559 435 l 415 928 l 270 435 m 416 1107 q 344 1125 376 1107 q 294 1174 313 1142 q 276 1244 276 1206 q 294 1316 276 1284 q 344 1365 313 1347 q 416 1383 376 1383 q 488 1365 456 1383 q 538 1316 520 1347 q 556 1244 556 1284 q 538 1174 556 1206 q 488 1125 520 1142 q 416 1107 456 1107 m 416 1167 q 471 1188 450 1167 q 492 1244 492 1209 q 471 1302 492 1281 q 416 1323 450 1323 q 361 1302 382 1323 q 340 1244 340 1281 q 361 1188 340 1209 q 416 1167 382 1167 z "},"Ǻ":{"ha":831,"x_min":9,"x_max":823,"o":"m 686 0 l 594 316 l 236 316 l 144 0 l 9 0 l 317 1028 l 515 1028 l 823 0 l 686 0 m 270 435 l 559 435 l 415 928 l 270 435 m 533 1324 q 556 1246 556 1290 q 538 1175 556 1206 q 488 1125 520 1143 q 416 1108 456 1108 q 344 1125 376 1108 q 294 1175 313 1143 q 276 1246 276 1206 q 294 1316 276 1285 q 344 1366 313 1348 q 416 1383 376 1383 q 469 1374 442 1383 l 550 1463 l 665 1463 l 533 1324 m 416 1167 q 471 1189 450 1167 q 492 1246 492 1210 q 471 1302 492 1281 q 416 1324 450 1324 q 361 1302 382 1324 q 340 1246 340 1281 q 361 1189 340 1210 q 416 1167 382 1167 z "},"Ã":{"ha":831,"x_min":9,"x_max":823,"o":"m 686 0 l 594 316 l 236 316 l 144 0 l 9 0 l 317 1028 l 515 1028 l 823 0 l 686 0 m 270 435 l 559 435 l 415 928 l 270 435 m 517 1147 q 465 1155 489 1147 q 406 1176 442 1162 q 356 1196 376 1190 q 315 1202 335 1202 q 255 1190 281 1202 q 203 1151 229 1178 l 203 1243 q 252 1279 224 1267 q 316 1291 279 1291 q 368 1283 344 1291 q 427 1261 392 1276 q 477 1242 458 1248 q 517 1235 497 1235 q 577 1248 551 1235 q 629 1287 603 1260 l 629 1194 q 517 1147 588 1147 z "},"Æ":{"ha":1155,"x_min":9,"x_max":1125,"o":"m 713 119 l 1125 119 l 1125 0 l 588 0 l 571 315 l 240 315 l 145 0 l 9 0 l 322 1028 l 1118 1028 l 1118 908 l 669 908 l 687 587 l 1051 587 l 1051 467 l 694 467 l 713 119 m 276 435 l 564 435 l 538 908 l 419 908 l 276 435 z "},"Ǽ":{"ha":1155,"x_min":9,"x_max":1125,"o":"m 713 119 l 1125 119 l 1125 0 l 588 0 l 571 315 l 240 315 l 145 0 l 9 0 l 322 1028 l 1118 1028 l 1118 908 l 669 908 l 687 587 l 1051 587 l 1051 467 l 694 467 l 713 119 m 276 435 l 564 435 l 538 908 l 419 908 l 276 435 m 535 1114 l 633 1315 l 774 1315 l 653 1114 l 535 1114 z "},"B":{"ha":799,"x_min":93,"x_max":760,"o":"m 559 531 q 708 446 656 511 q 760 278 760 381 q 656 62 760 133 q 326 -10 551 -10 q 93 6 208 -10 l 93 1014 q 351 1039 219 1039 q 566 1010 483 1039 q 690 920 650 981 q 731 765 731 860 q 688 616 731 679 q 559 531 646 553 m 367 929 q 226 918 295 929 l 226 583 l 370 583 q 507 603 456 583 q 578 660 557 622 q 600 757 600 699 q 577 857 600 819 q 503 912 554 894 q 367 929 453 929 m 357 101 q 516 120 456 101 q 602 179 575 139 q 629 283 629 219 q 572 424 629 378 q 394 469 515 469 l 226 469 l 226 106 q 357 101 288 101 z "},"C":{"ha":693,"x_min":56,"x_max":676,"o":"m 478 -13 q 249 38 342 -13 q 106 206 156 90 q 56 512 56 322 q 167 915 56 788 q 490 1041 278 1041 q 676 1016 584 1041 l 676 897 q 587 916 631 910 q 496 922 544 922 q 330 884 395 922 q 232 756 265 846 q 199 515 199 667 q 232 269 199 359 q 330 143 265 180 q 493 106 394 106 q 580 114 535 106 q 676 140 624 122 l 676 21 q 582 -4 634 6 q 478 -13 531 -13 z "},"Ć":{"ha":693,"x_min":56,"x_max":676,"o":"m 478 -13 q 249 38 342 -13 q 106 206 156 90 q 56 512 56 322 q 167 915 56 788 q 490 1041 278 1041 q 676 1016 584 1041 l 676 897 q 587 916 631 910 q 496 922 544 922 q 330 884 395 922 q 232 756 265 846 q 199 515 199 667 q 232 269 199 359 q 330 143 265 180 q 493 106 394 106 q 580 114 535 106 q 676 140 624 122 l 676 21 q 582 -4 634 6 q 478 -13 531 -13 m 377 1114 l 476 1315 l 616 1315 l 495 1114 l 377 1114 z "},"Č":{"ha":693,"x_min":56,"x_max":676,"o":"m 478 -13 q 249 38 342 -13 q 106 206 156 90 q 56 512 56 322 q 167 915 56 788 q 490 1041 278 1041 q 676 1016 584 1041 l 676 897 q 587 916 631 910 q 496 922 544 922 q 330 884 395 922 q 232 756 265 846 q 199 515 199 667 q 232 269 199 359 q 330 143 265 180 q 493 106 394 106 q 580 114 535 106 q 676 140 624 122 l 676 21 q 582 -4 634 6 q 478 -13 531 -13 m 532 1315 l 632 1315 l 497 1114 l 376 1114 l 241 1315 l 340 1315 l 436 1168 l 532 1315 z "},"Ç":{"ha":693,"x_min":56,"x_max":676,"o":"m 496 922 q 330 884 395 922 q 232 756 265 846 q 199 515 199 667 q 232 269 199 359 q 330 143 265 180 q 493 106 394 106 q 580 114 535 106 q 676 140 624 122 l 676 21 q 582 -4 634 6 q 478 -13 531 -13 l 470 -13 l 470 -68 q 556 -103 525 -74 q 586 -179 586 -131 q 547 -265 586 -235 q 431 -294 507 -294 q 307 -272 363 -294 l 307 -206 q 425 -231 365 -231 q 485 -218 465 -231 q 506 -175 506 -204 q 423 -118 506 -118 l 396 -118 l 396 -8 q 143 137 230 13 q 56 512 56 261 q 167 915 56 788 q 490 1041 278 1041 q 676 1016 584 1041 l 676 897 q 587 916 631 910 q 496 922 544 922 z "},"Ḉ":{"ha":693,"x_min":56,"x_max":676,"o":"m 616 1315 l 495 1114 l 377 1114 l 476 1315 l 616 1315 m 496 922 q 330 884 395 922 q 232 756 265 846 q 199 515 199 667 q 232 269 199 359 q 330 143 265 180 q 493 106 394 106 q 580 114 535 106 q 676 140 624 122 l 676 21 q 582 -4 634 6 q 478 -13 531 -13 l 470 -13 l 470 -68 q 556 -103 525 -74 q 586 -179 586 -131 q 547 -265 586 -235 q 431 -294 507 -294 q 307 -272 363 -294 l 307 -206 q 425 -231 365 -231 q 485 -218 465 -231 q 506 -175 506 -204 q 423 -118 506 -118 l 396 -118 l 396 -8 q 143 137 230 13 q 56 512 56 261 q 167 915 56 788 q 490 1041 278 1041 q 676 1016 584 1041 l 676 897 q 587 916 631 910 q 496 922 544 922 z "},"Ĉ":{"ha":693,"x_min":56,"x_max":676,"o":"m 478 -13 q 249 38 342 -13 q 106 206 156 90 q 56 512 56 322 q 167 915 56 788 q 490 1041 278 1041 q 676 1016 584 1041 l 676 897 q 587 916 631 910 q 496 922 544 922 q 330 884 395 922 q 232 756 265 846 q 199 515 199 667 q 232 269 199 359 q 330 143 265 180 q 493 106 394 106 q 580 114 535 106 q 676 140 624 122 l 676 21 q 582 -4 634 6 q 478 -13 531 -13 m 632 1114 l 532 1114 l 436 1261 l 340 1114 l 241 1114 l 376 1315 l 497 1315 l 632 1114 z "},"Ċ":{"ha":693,"x_min":56,"x_max":676,"o":"m 478 -13 q 249 38 342 -13 q 106 206 156 90 q 56 512 56 322 q 167 915 56 788 q 490 1041 278 1041 q 676 1016 584 1041 l 676 897 q 587 916 631 910 q 496 922 544 922 q 330 884 395 922 q 232 756 265 846 q 199 515 199 667 q 232 269 199 359 q 330 143 265 180 q 493 106 394 106 q 580 114 535 106 q 676 140 624 122 l 676 21 q 582 -4 634 6 q 478 -13 531 -13 m 436 1140 q 370 1160 394 1140 q 345 1216 345 1180 q 370 1272 345 1252 q 436 1292 394 1292 q 503 1273 478 1292 q 527 1216 527 1253 q 503 1160 527 1180 q 436 1140 478 1140 z "},"D":{"ha":851,"x_min":93,"x_max":795,"o":"m 303 -10 q 93 2 211 -10 l 93 1015 q 330 1039 222 1039 q 680 911 565 1039 q 795 514 795 783 q 740 215 795 331 q 577 45 685 99 q 303 -10 468 -10 m 334 108 q 513 148 442 108 q 618 277 583 188 q 654 514 654 366 q 620 750 654 660 q 517 881 585 840 q 342 922 448 922 q 229 913 288 922 l 229 113 q 334 108 276 108 z "},"Ǳ":{"ha":1528,"x_min":93,"x_max":1496,"o":"m 303 -10 q 93 2 211 -10 l 93 1015 q 330 1039 222 1039 q 680 911 565 1039 q 795 514 795 783 q 740 215 795 331 q 577 45 685 99 q 303 -10 468 -10 m 334 108 q 513 148 442 108 q 618 277 583 188 q 654 514 654 366 q 620 750 654 660 q 517 881 585 840 q 342 922 448 922 q 229 913 288 922 l 229 113 q 334 108 276 108 m 1032 122 l 1496 122 l 1496 0 l 856 0 l 856 77 l 1313 906 l 863 906 l 863 1028 l 1489 1028 l 1489 951 l 1032 122 z "},"Ǆ":{"ha":1528,"x_min":93,"x_max":1496,"o":"m 303 -10 q 93 2 211 -10 l 93 1015 q 330 1039 222 1039 q 680 911 565 1039 q 795 514 795 783 q 740 215 795 331 q 577 45 685 99 q 303 -10 468 -10 m 334 108 q 513 148 442 108 q 618 277 583 188 q 654 514 654 366 q 620 750 654 660 q 517 881 585 840 q 342 922 448 922 q 229 913 288 922 l 229 113 q 334 108 276 108 m 1032 122 l 1496 122 l 1496 0 l 856 0 l 856 77 l 1313 906 l 863 906 l 863 1028 l 1489 1028 l 1489 951 l 1032 122 m 1272 1315 l 1372 1315 l 1237 1114 l 1116 1114 l 981 1315 l 1081 1315 l 1176 1168 l 1272 1315 z "},"Ð":{"ha":851,"x_min":-1,"x_max":795,"o":"m 330 1039 q 680 911 565 1039 q 795 514 795 783 q 740 215 795 331 q 577 45 685 99 q 303 -10 468 -10 q 93 2 211 -10 l 93 481 l -1 481 l -1 578 l 93 578 l 93 1015 q 330 1039 222 1039 m 334 108 q 513 148 442 108 q 618 277 583 188 q 654 514 654 366 q 620 750 654 660 q 517 881 585 840 q 342 922 448 922 q 229 913 288 922 l 229 578 l 409 578 l 409 481 l 229 481 l 229 113 q 334 108 276 108 z "},"Ď":{"ha":851,"x_min":93,"x_max":795,"o":"m 303 -10 q 93 2 211 -10 l 93 1015 q 330 1039 222 1039 q 680 911 565 1039 q 795 514 795 783 q 740 215 795 331 q 577 45 685 99 q 303 -10 468 -10 m 334 108 q 513 148 442 108 q 618 277 583 188 q 654 514 654 366 q 620 750 654 660 q 517 881 585 840 q 342 922 448 922 q 229 913 288 922 l 229 113 q 334 108 276 108 m 482 1315 l 582 1315 l 447 1114 l 326 1114 l 191 1315 l 290 1315 l 386 1168 l 482 1315 z "},"Đ":{"ha":851,"x_min":-1,"x_max":795,"o":"m 330 1039 q 680 911 565 1039 q 795 514 795 783 q 740 215 795 331 q 577 45 685 99 q 303 -10 468 -10 q 93 2 211 -10 l 93 481 l -1 481 l -1 578 l 93 578 l 93 1015 q 330 1039 222 1039 m 334 108 q 513 148 442 108 q 618 277 583 188 q 654 514 654 366 q 620 750 654 660 q 517 881 585 840 q 342 922 448 922 q 229 913 288 922 l 229 578 l 409 578 l 409 481 l 229 481 l 229 113 q 334 108 276 108 z "},"Ḍ":{"ha":851,"x_min":93,"x_max":795,"o":"m 303 -10 q 93 2 211 -10 l 93 1015 q 330 1039 222 1039 q 680 911 565 1039 q 795 514 795 783 q 740 215 795 331 q 577 45 685 99 q 303 -10 468 -10 m 334 108 q 513 148 442 108 q 618 277 583 188 q 654 514 654 366 q 620 750 654 660 q 517 881 585 840 q 342 922 448 922 q 229 913 288 922 l 229 113 q 334 108 276 108 m 392 -258 q 325 -238 349 -258 q 301 -182 301 -219 q 325 -126 301 -146 q 392 -106 350 -106 q 458 -125 434 -106 q 483 -182 483 -145 q 458 -238 483 -219 q 392 -258 434 -258 z "},"Ḏ":{"ha":851,"x_min":93,"x_max":795,"o":"m 303 -10 q 93 2 211 -10 l 93 1015 q 330 1039 222 1039 q 680 911 565 1039 q 795 514 795 783 q 740 215 795 331 q 577 45 685 99 q 303 -10 468 -10 m 334 108 q 513 148 442 108 q 618 277 583 188 q 654 514 654 366 q 620 750 654 660 q 517 881 585 840 q 342 922 448 922 q 229 913 288 922 l 229 113 q 334 108 276 108 m 188 -225 l 188 -133 l 596 -133 l 596 -225 l 188 -225 z "},"ǲ":{"ha":1403,"x_min":93,"x_max":1376,"o":"m 303 -10 q 93 2 211 -10 l 93 1015 q 330 1039 222 1039 q 680 911 565 1039 q 795 514 795 783 q 740 215 795 331 q 577 45 685 99 q 303 -10 468 -10 m 334 108 q 513 148 442 108 q 618 277 583 188 q 654 514 654 366 q 620 750 654 660 q 517 881 585 840 q 342 922 448 922 q 229 913 288 922 l 229 113 q 334 108 276 108 m 1038 110 l 1376 110 l 1376 0 l 885 0 l 885 83 l 1216 646 l 892 646 l 892 756 l 1369 756 l 1369 673 l 1038 110 z "},"ǅ":{"ha":1403,"x_min":93,"x_max":1376,"o":"m 303 -10 q 93 2 211 -10 l 93 1015 q 330 1039 222 1039 q 680 911 565 1039 q 795 514 795 783 q 740 215 795 331 q 577 45 685 99 q 303 -10 468 -10 m 334 108 q 513 148 442 108 q 618 277 583 188 q 654 514 654 366 q 620 750 654 660 q 517 881 585 840 q 342 922 448 922 q 229 913 288 922 l 229 113 q 334 108 276 108 m 1038 110 l 1376 110 l 1376 0 l 885 0 l 885 83 l 1216 646 l 892 646 l 892 756 l 1369 756 l 1369 673 l 1038 110 m 1226 1093 l 1326 1093 l 1191 892 l 1070 892 l 935 1093 l 1035 1093 l 1131 946 l 1226 1093 z "},"E":{"ha":707,"x_min":93,"x_max":677,"o":"m 228 119 l 677 119 l 677 0 l 93 0 l 93 1028 l 670 1028 l 670 908 l 228 908 l 228 587 l 603 587 l 603 467 l 228 467 l 228 119 z "},"É":{"ha":707,"x_min":93,"x_max":677,"o":"m 228 119 l 677 119 l 677 0 l 93 0 l 93 1028 l 670 1028 l 670 908 l 228 908 l 228 587 l 603 587 l 603 467 l 228 467 l 228 119 m 338 1114 l 437 1315 l 577 1315 l 456 1114 l 338 1114 z "},"Ĕ":{"ha":707,"x_min":93,"x_max":677,"o":"m 228 119 l 677 119 l 677 0 l 93 0 l 93 1028 l 670 1028 l 670 908 l 228 908 l 228 587 l 603 587 l 603 467 l 228 467 l 228 119 m 398 1119 q 255 1166 308 1119 q 195 1303 202 1213 l 283 1303 q 317 1220 290 1245 q 398 1194 344 1194 q 480 1220 453 1194 q 513 1303 507 1246 l 599 1303 q 540 1166 592 1213 q 398 1119 488 1119 z "},"Ě":{"ha":707,"x_min":93,"x_max":677,"o":"m 228 119 l 677 119 l 677 0 l 93 0 l 93 1028 l 670 1028 l 670 908 l 228 908 l 228 587 l 603 587 l 603 467 l 228 467 l 228 119 m 493 1315 l 593 1315 l 458 1114 l 337 1114 l 202 1315 l 301 1315 l 397 1168 l 493 1315 z "},"Ḝ":{"ha":707,"x_min":93,"x_max":677,"o":"m 398 1119 q 255 1166 308 1119 q 195 1303 202 1213 l 283 1303 q 317 1220 290 1245 q 398 1194 344 1194 q 480 1220 453 1194 q 513 1303 507 1246 l 599 1303 q 540 1166 592 1213 q 398 1119 488 1119 m 427 0 l 427 -68 q 513 -103 482 -74 q 543 -179 543 -131 q 503 -265 543 -235 q 388 -294 464 -294 q 264 -272 319 -294 l 264 -206 q 382 -231 322 -231 q 442 -218 422 -231 q 463 -175 463 -204 q 380 -118 463 -118 l 353 -118 l 353 0 l 93 0 l 93 1028 l 670 1028 l 670 908 l 228 908 l 228 587 l 603 587 l 603 467 l 228 467 l 228 119 l 677 119 l 677 0 l 427 0 z "},"Ê":{"ha":707,"x_min":93,"x_max":677,"o":"m 228 119 l 677 119 l 677 0 l 93 0 l 93 1028 l 670 1028 l 670 908 l 228 908 l 228 587 l 603 587 l 603 467 l 228 467 l 228 119 m 593 1114 l 493 1114 l 397 1261 l 301 1114 l 202 1114 l 337 1315 l 458 1315 l 593 1114 z "},"Ế":{"ha":707,"x_min":93,"x_max":712,"o":"m 228 119 l 677 119 l 677 0 l 93 0 l 93 1028 l 670 1028 l 670 908 l 228 908 l 228 587 l 603 587 l 603 467 l 228 467 l 228 119 m 617 1433 l 712 1433 l 613 1254 l 539 1254 l 617 1433 m 337 1303 l 458 1303 l 593 1114 l 493 1114 l 397 1253 l 301 1114 l 202 1114 l 337 1303 z "},"Ệ":{"ha":707,"x_min":93,"x_max":677,"o":"m 228 119 l 677 119 l 677 0 l 93 0 l 93 1028 l 670 1028 l 670 908 l 228 908 l 228 587 l 603 587 l 603 467 l 228 467 l 228 119 m 397 -258 q 331 -238 355 -258 q 306 -182 306 -219 q 331 -126 306 -146 q 397 -106 356 -106 q 464 -125 440 -106 q 488 -182 488 -145 q 464 -238 488 -219 q 397 -258 440 -258 m 593 1114 l 493 1114 l 397 1261 l 301 1114 l 202 1114 l 337 1315 l 458 1315 l 593 1114 z "},"Ề":{"ha":707,"x_min":93,"x_max":677,"o":"m 228 119 l 677 119 l 677 0 l 93 0 l 93 1028 l 670 1028 l 670 908 l 228 908 l 228 587 l 603 587 l 603 467 l 228 467 l 228 119 m 631 1254 l 558 1254 l 459 1433 l 554 1433 l 631 1254 m 337 1303 l 458 1303 l 593 1114 l 493 1114 l 397 1253 l 301 1114 l 202 1114 l 337 1303 z "},"Ể":{"ha":707,"x_min":93,"x_max":724,"o":"m 228 119 l 677 119 l 677 0 l 93 0 l 93 1028 l 670 1028 l 670 908 l 228 908 l 228 587 l 603 587 l 603 467 l 228 467 l 228 119 m 579 1450 q 688 1430 652 1450 q 724 1372 724 1409 q 710 1333 724 1347 q 666 1304 695 1319 q 630 1282 642 1292 q 615 1254 617 1271 l 538 1254 q 549 1289 540 1275 q 572 1311 559 1303 q 604 1328 584 1319 q 634 1345 624 1338 q 643 1363 643 1352 q 626 1385 643 1378 q 570 1392 610 1392 q 507 1387 540 1392 q 447 1372 475 1382 l 447 1429 q 509 1444 472 1438 q 579 1450 546 1450 m 337 1303 l 458 1303 l 593 1114 l 493 1114 l 397 1253 l 301 1114 l 202 1114 l 337 1303 z "},"Ễ":{"ha":707,"x_min":93,"x_max":677,"o":"m 228 119 l 677 119 l 677 0 l 93 0 l 93 1028 l 670 1028 l 670 908 l 228 908 l 228 587 l 603 587 l 603 467 l 228 467 l 228 119 m 484 1403 q 540 1414 515 1403 q 593 1451 565 1426 l 593 1377 q 544 1344 570 1354 q 483 1334 517 1334 q 437 1341 459 1334 q 387 1360 415 1348 q 344 1377 361 1372 q 311 1382 327 1382 q 255 1370 280 1382 q 202 1333 230 1359 l 202 1408 q 251 1441 225 1431 q 313 1451 278 1451 q 357 1445 335 1451 q 408 1425 378 1438 q 450 1408 433 1414 q 484 1403 467 1403 m 337 1303 l 458 1303 l 593 1114 l 493 1114 l 397 1253 l 301 1114 l 202 1114 l 337 1303 z "},"Ȅ":{"ha":707,"x_min":93,"x_max":677,"o":"m 228 119 l 677 119 l 677 0 l 93 0 l 93 1028 l 670 1028 l 670 908 l 228 908 l 228 587 l 603 587 l 603 467 l 228 467 l 228 119 m 233 1114 l 155 1315 l 267 1315 l 337 1114 l 233 1114 m 458 1114 l 381 1315 l 493 1315 l 562 1114 l 458 1114 z "},"Ë":{"ha":707,"x_min":93,"x_max":677,"o":"m 228 119 l 677 119 l 677 0 l 93 0 l 93 1028 l 670 1028 l 670 908 l 228 908 l 228 587 l 603 587 l 603 467 l 228 467 l 228 119 m 253 1140 q 192 1160 215 1140 q 170 1216 170 1180 q 192 1272 170 1252 q 253 1292 215 1292 q 314 1272 292 1292 q 336 1216 336 1252 q 314 1160 336 1180 q 253 1140 292 1140 m 542 1140 q 481 1160 503 1140 q 458 1216 458 1181 q 481 1272 458 1252 q 542 1292 503 1292 q 603 1272 581 1292 q 625 1216 625 1252 q 603 1160 625 1181 q 542 1140 581 1140 z "},"Ė":{"ha":707,"x_min":93,"x_max":677,"o":"m 228 119 l 677 119 l 677 0 l 93 0 l 93 1028 l 670 1028 l 670 908 l 228 908 l 228 587 l 603 587 l 603 467 l 228 467 l 228 119 m 397 1140 q 331 1160 356 1140 q 306 1216 306 1180 q 331 1272 306 1252 q 397 1292 356 1292 q 464 1273 440 1292 q 488 1216 488 1253 q 464 1160 488 1180 q 397 1140 440 1140 z "},"Ẹ":{"ha":707,"x_min":93,"x_max":677,"o":"m 228 119 l 677 119 l 677 0 l 93 0 l 93 1028 l 670 1028 l 670 908 l 228 908 l 228 587 l 603 587 l 603 467 l 228 467 l 228 119 m 397 -258 q 331 -238 355 -258 q 306 -182 306 -219 q 331 -126 306 -146 q 397 -106 356 -106 q 464 -125 440 -106 q 488 -182 488 -145 q 464 -238 488 -219 q 397 -258 440 -258 z "},"È":{"ha":707,"x_min":93,"x_max":677,"o":"m 228 119 l 677 119 l 677 0 l 93 0 l 93 1028 l 670 1028 l 670 908 l 228 908 l 228 587 l 603 587 l 603 467 l 228 467 l 228 119 m 338 1114 l 218 1315 l 358 1315 l 456 1114 l 338 1114 z "},"Ẻ":{"ha":707,"x_min":93,"x_max":677,"o":"m 228 119 l 677 119 l 677 0 l 93 0 l 93 1028 l 670 1028 l 670 908 l 228 908 l 228 587 l 603 587 l 603 467 l 228 467 l 228 119 m 359 1114 q 378 1161 361 1145 q 426 1193 395 1178 q 454 1210 444 1202 q 463 1228 463 1217 q 447 1252 463 1244 q 390 1260 430 1260 q 328 1254 360 1260 q 267 1238 296 1249 l 267 1301 q 330 1317 292 1311 q 400 1323 367 1323 q 509 1301 473 1323 q 545 1239 545 1279 q 531 1198 545 1213 q 488 1167 517 1183 q 451 1143 464 1154 q 436 1114 438 1132 l 359 1114 z "},"Ȇ":{"ha":707,"x_min":93,"x_max":677,"o":"m 228 119 l 677 119 l 677 0 l 93 0 l 93 1028 l 670 1028 l 670 908 l 228 908 l 228 587 l 603 587 l 603 467 l 228 467 l 228 119 m 195 1126 q 254 1263 202 1216 q 397 1310 306 1310 q 540 1263 488 1310 q 599 1126 592 1216 l 513 1126 q 478 1209 506 1184 q 397 1235 451 1235 q 315 1209 342 1235 q 283 1126 288 1183 l 195 1126 z "},"Ē":{"ha":707,"x_min":93,"x_max":677,"o":"m 228 119 l 677 119 l 677 0 l 93 0 l 93 1028 l 670 1028 l 670 908 l 228 908 l 228 587 l 603 587 l 603 467 l 228 467 l 228 119 m 193 1169 l 193 1261 l 601 1261 l 601 1169 l 193 1169 z "},"Ḗ":{"ha":707,"x_min":93,"x_max":677,"o":"m 228 119 l 677 119 l 677 0 l 93 0 l 93 1028 l 670 1028 l 670 908 l 228 908 l 228 587 l 603 587 l 603 467 l 228 467 l 228 119 m 333 1336 l 432 1497 l 582 1497 l 461 1336 l 333 1336 m 193 1169 l 193 1261 l 601 1261 l 601 1169 l 193 1169 z "},"Ḕ":{"ha":707,"x_min":93,"x_max":677,"o":"m 228 119 l 677 119 l 677 0 l 93 0 l 93 1028 l 670 1028 l 670 908 l 228 908 l 228 587 l 603 587 l 603 467 l 228 467 l 228 119 m 333 1336 l 213 1497 l 363 1497 l 461 1336 l 333 1336 m 193 1169 l 193 1261 l 601 1261 l 601 1169 l 193 1169 z "},"Ę":{"ha":707,"x_min":93,"x_max":677,"o":"m 622 0 q 511 -75 542 -38 q 480 -155 480 -112 q 503 -211 480 -192 q 574 -230 526 -230 q 672 -206 619 -230 l 672 -270 q 560 -294 619 -294 q 439 -260 481 -294 q 397 -162 397 -226 q 422 -75 397 -115 q 501 0 447 -36 l 93 0 l 93 1028 l 670 1028 l 670 908 l 228 908 l 228 587 l 603 587 l 603 467 l 228 467 l 228 119 l 677 119 l 677 0 l 622 0 z "},"Ẽ":{"ha":707,"x_min":93,"x_max":677,"o":"m 228 119 l 677 119 l 677 0 l 93 0 l 93 1028 l 670 1028 l 670 908 l 228 908 l 228 587 l 603 587 l 603 467 l 228 467 l 228 119 m 498 1147 q 447 1155 470 1147 q 387 1176 423 1162 q 337 1196 357 1190 q 296 1202 317 1202 q 236 1190 262 1202 q 184 1151 210 1178 l 184 1243 q 233 1279 206 1267 q 297 1291 260 1291 q 349 1283 325 1291 q 408 1261 374 1276 q 458 1242 439 1248 q 499 1235 478 1235 q 559 1248 533 1235 q 610 1287 585 1260 l 610 1194 q 498 1147 569 1147 z "},"F":{"ha":676,"x_min":93,"x_max":666,"o":"m 666 907 l 229 907 l 229 574 l 601 574 l 601 453 l 229 453 l 229 0 l 93 0 l 93 1028 l 666 1028 l 666 907 z "},"G":{"ha":816,"x_min":56,"x_max":739,"o":"m 739 500 l 739 8 q 541 -10 635 -10 q 271 43 378 -10 q 110 211 165 96 q 56 513 56 326 q 175 915 56 790 q 521 1041 293 1041 q 721 1014 628 1041 l 721 895 q 531 922 628 922 q 345 884 417 922 q 236 756 273 846 q 199 511 199 665 q 235 273 199 361 q 344 147 272 185 q 528 108 416 108 q 611 113 574 108 l 611 500 l 739 500 z "},"Ǵ":{"ha":816,"x_min":56,"x_max":739,"o":"m 739 500 l 739 8 q 541 -10 635 -10 q 271 43 378 -10 q 110 211 165 96 q 56 513 56 326 q 175 915 56 790 q 521 1041 293 1041 q 721 1014 628 1041 l 721 895 q 531 922 628 922 q 345 884 417 922 q 236 756 273 846 q 199 511 199 665 q 235 273 199 361 q 344 147 272 185 q 528 108 416 108 q 611 113 574 108 l 611 500 l 739 500 m 406 1114 l 505 1315 l 645 1315 l 524 1114 l 406 1114 z "},"Ğ":{"ha":816,"x_min":56,"x_max":739,"o":"m 739 500 l 739 8 q 541 -10 635 -10 q 271 43 378 -10 q 110 211 165 96 q 56 513 56 326 q 175 915 56 790 q 521 1041 293 1041 q 721 1014 628 1041 l 721 895 q 531 922 628 922 q 345 884 417 922 q 236 756 273 846 q 199 511 199 665 q 235 273 199 361 q 344 147 272 185 q 528 108 416 108 q 611 113 574 108 l 611 500 l 739 500 m 466 1119 q 323 1166 376 1119 q 263 1303 270 1213 l 351 1303 q 385 1220 358 1245 q 466 1194 412 1194 q 548 1220 521 1194 q 581 1303 575 1246 l 667 1303 q 608 1166 660 1213 q 466 1119 556 1119 z "},"Ǧ":{"ha":816,"x_min":56,"x_max":739,"o":"m 739 500 l 739 8 q 541 -10 635 -10 q 271 43 378 -10 q 110 211 165 96 q 56 513 56 326 q 175 915 56 790 q 521 1041 293 1041 q 721 1014 628 1041 l 721 895 q 531 922 628 922 q 345 884 417 922 q 236 756 273 846 q 199 511 199 665 q 235 273 199 361 q 344 147 272 185 q 528 108 416 108 q 611 113 574 108 l 611 500 l 739 500 m 561 1315 l 661 1315 l 526 1114 l 405 1114 l 270 1315 l 369 1315 l 465 1168 l 561 1315 z "},"Ĝ":{"ha":816,"x_min":56,"x_max":739,"o":"m 739 500 l 739 8 q 541 -10 635 -10 q 271 43 378 -10 q 110 211 165 96 q 56 513 56 326 q 175 915 56 790 q 521 1041 293 1041 q 721 1014 628 1041 l 721 895 q 531 922 628 922 q 345 884 417 922 q 236 756 273 846 q 199 511 199 665 q 235 273 199 361 q 344 147 272 185 q 528 108 416 108 q 611 113 574 108 l 611 500 l 739 500 m 661 1114 l 561 1114 l 465 1261 l 369 1114 l 270 1114 l 405 1315 l 526 1315 l 661 1114 z "},"Ģ":{"ha":816,"x_min":56,"x_max":739,"o":"m 739 500 l 739 8 q 541 -10 635 -10 q 271 43 378 -10 q 110 211 165 96 q 56 513 56 326 q 175 915 56 790 q 521 1041 293 1041 q 721 1014 628 1041 l 721 895 q 531 922 628 922 q 345 884 417 922 q 236 756 273 846 q 199 511 199 665 q 235 273 199 361 q 344 147 272 185 q 528 108 416 108 q 611 113 574 108 l 611 500 l 739 500 m 464 -106 q 527 -127 506 -106 q 549 -190 549 -149 q 537 -260 549 -222 q 506 -330 526 -298 l 420 -330 q 452 -231 446 -275 q 400 -212 418 -228 q 382 -168 382 -195 q 403 -122 382 -139 q 464 -106 424 -106 z "},"Ġ":{"ha":816,"x_min":56,"x_max":739,"o":"m 739 500 l 739 8 q 541 -10 635 -10 q 271 43 378 -10 q 110 211 165 96 q 56 513 56 326 q 175 915 56 790 q 521 1041 293 1041 q 721 1014 628 1041 l 721 895 q 531 922 628 922 q 345 884 417 922 q 236 756 273 846 q 199 511 199 665 q 235 273 199 361 q 344 147 272 185 q 528 108 416 108 q 611 113 574 108 l 611 500 l 739 500 m 465 1140 q 399 1160 424 1140 q 374 1216 374 1180 q 399 1272 374 1252 q 465 1292 424 1292 q 532 1273 508 1292 q 556 1216 556 1253 q 532 1160 556 1180 q 465 1140 508 1140 z "},"Ḡ":{"ha":816,"x_min":56,"x_max":739,"o":"m 739 500 l 739 8 q 541 -10 635 -10 q 271 43 378 -10 q 110 211 165 96 q 56 513 56 326 q 175 915 56 790 q 521 1041 293 1041 q 721 1014 628 1041 l 721 895 q 531 922 628 922 q 345 884 417 922 q 236 756 273 846 q 199 511 199 665 q 235 273 199 361 q 344 147 272 185 q 528 108 416 108 q 611 113 574 108 l 611 500 l 739 500 m 261 1169 l 261 1261 l 669 1261 l 669 1169 l 261 1169 z "},"H":{"ha":888,"x_min":93,"x_max":794,"o":"m 93 0 l 93 1028 l 229 1028 l 229 590 l 658 590 l 658 1028 l 794 1028 l 794 0 l 658 0 l 658 464 l 229 464 l 229 0 l 93 0 z "},"Ħ":{"ha":888,"x_min":-2,"x_max":889,"o":"m 889 853 l 889 763 l 794 763 l 794 0 l 658 0 l 658 464 l 229 464 l 229 0 l 93 0 l 93 763 l -2 763 l -2 853 l 93 853 l 93 1028 l 229 1028 l 229 853 l 658 853 l 658 1028 l 794 1028 l 794 853 l 889 853 m 658 590 l 658 763 l 229 763 l 229 590 l 658 590 z "},"Ḫ":{"ha":888,"x_min":93,"x_max":794,"o":"m 93 0 l 93 1028 l 229 1028 l 229 590 l 658 590 l 658 1028 l 794 1028 l 794 0 l 658 0 l 658 464 l 229 464 l 229 0 l 93 0 m 444 -292 q 300 -243 353 -292 q 242 -104 247 -194 l 329 -104 q 362 -189 333 -162 q 444 -216 390 -216 q 528 -189 499 -216 q 559 -104 556 -162 l 646 -104 q 589 -243 641 -195 q 444 -292 537 -292 z "},"Ĥ":{"ha":888,"x_min":93,"x_max":794,"o":"m 93 0 l 93 1028 l 229 1028 l 229 590 l 658 590 l 658 1028 l 794 1028 l 794 0 l 658 0 l 658 464 l 229 464 l 229 0 l 93 0 m 640 1114 l 540 1114 l 444 1261 l 348 1114 l 249 1114 l 383 1315 l 504 1315 l 640 1114 z "},"Ḥ":{"ha":888,"x_min":93,"x_max":794,"o":"m 93 0 l 93 1028 l 229 1028 l 229 590 l 658 590 l 658 1028 l 794 1028 l 794 0 l 658 0 l 658 464 l 229 464 l 229 0 l 93 0 m 444 -258 q 377 -238 401 -258 q 353 -182 353 -219 q 377 -126 353 -146 q 444 -106 402 -106 q 510 -125 486 -106 q 535 -182 535 -145 q 510 -238 535 -219 q 444 -258 486 -258 z "},"I":{"ha":322,"x_min":93,"x_max":229,"o":"m 93 0 l 93 1028 l 229 1028 l 229 0 l 93 0 z "},"Í":{"ha":322,"x_min":93,"x_max":341,"o":"m 93 0 l 93 1028 l 229 1028 l 229 0 l 93 0 m 102 1114 l 201 1315 l 341 1315 l 220 1114 l 102 1114 z "},"Ĭ":{"ha":322,"x_min":-41,"x_max":363,"o":"m 93 0 l 93 1028 l 229 1028 l 229 0 l 93 0 m 162 1119 q 19 1166 72 1119 q -41 1303 -34 1213 l 47 1303 q 81 1220 53 1245 q 162 1194 108 1194 q 244 1220 217 1194 q 276 1303 271 1246 l 363 1303 q 304 1166 356 1213 q 162 1119 252 1119 z "},"Î":{"ha":322,"x_min":-34,"x_max":357,"o":"m 93 0 l 93 1028 l 229 1028 l 229 0 l 93 0 m 357 1114 l 257 1114 l 161 1261 l 65 1114 l -34 1114 l 101 1315 l 222 1315 l 357 1114 z "},"Ȉ":{"ha":322,"x_min":-81,"x_max":326,"o":"m 93 0 l 93 1028 l 229 1028 l 229 0 l 93 0 m -3 1114 l -81 1315 l 31 1315 l 101 1114 l -3 1114 m 222 1114 l 144 1315 l 257 1315 l 326 1114 l 222 1114 z "},"Ï":{"ha":322,"x_min":-66,"x_max":389,"o":"m 93 0 l 93 1028 l 229 1028 l 229 0 l 93 0 m 17 1140 q -44 1160 -22 1140 q -66 1216 -66 1180 q -44 1272 -66 1252 q 17 1292 -22 1292 q 78 1272 56 1292 q 100 1216 100 1252 q 78 1160 100 1180 q 17 1140 56 1140 m 306 1140 q 244 1160 267 1140 q 222 1216 222 1181 q 244 1272 222 1252 q 306 1292 267 1292 q 367 1272 344 1292 q 389 1216 389 1252 q 367 1160 389 1181 q 306 1140 344 1140 z "},"Ḯ":{"ha":322,"x_min":-66,"x_max":389,"o":"m 93 0 l 93 1028 l 229 1028 l 229 0 l 93 0 m 97 1336 l 196 1497 l 346 1497 l 225 1336 l 97 1336 m 17 1140 q -44 1160 -22 1140 q -66 1216 -66 1180 q -44 1272 -66 1252 q 17 1292 -22 1292 q 78 1272 56 1292 q 100 1216 100 1252 q 78 1160 100 1180 q 17 1140 56 1140 m 306 1140 q 244 1160 267 1140 q 222 1216 222 1181 q 244 1272 222 1252 q 306 1292 267 1292 q 367 1272 344 1292 q 389 1216 389 1252 q 367 1160 389 1181 q 306 1140 344 1140 z "},"İ":{"ha":322,"x_min":70,"x_max":252,"o":"m 93 0 l 93 1028 l 229 1028 l 229 0 l 93 0 m 161 1140 q 95 1160 119 1140 q 70 1216 70 1180 q 95 1272 70 1252 q 161 1292 119 1292 q 228 1273 203 1292 q 252 1216 252 1253 q 228 1160 252 1180 q 161 1140 203 1140 z "},"Ị":{"ha":322,"x_min":70,"x_max":252,"o":"m 93 0 l 93 1028 l 229 1028 l 229 0 l 93 0 m 161 -258 q 94 -238 119 -258 q 70 -182 70 -219 q 95 -126 70 -146 q 161 -106 119 -106 q 228 -125 203 -106 q 252 -182 252 -145 q 228 -238 252 -219 q 161 -258 203 -258 z "},"Ì":{"ha":322,"x_min":-18,"x_max":229,"o":"m 93 0 l 93 1028 l 229 1028 l 229 0 l 93 0 m 102 1114 l -18 1315 l 122 1315 l 220 1114 l 102 1114 z "},"Ỉ":{"ha":322,"x_min":31,"x_max":309,"o":"m 93 0 l 93 1028 l 229 1028 l 229 0 l 93 0 m 123 1114 q 142 1161 125 1145 q 190 1193 159 1178 q 218 1210 208 1202 q 227 1228 227 1217 q 210 1252 227 1244 q 154 1260 194 1260 q 92 1254 124 1260 q 31 1238 60 1249 l 31 1301 q 93 1317 56 1311 q 164 1323 131 1323 q 273 1301 237 1323 q 309 1239 309 1279 q 295 1198 309 1213 q 251 1167 281 1183 q 215 1143 228 1154 q 200 1114 202 1132 l 123 1114 z "},"Ȋ":{"ha":322,"x_min":-41,"x_max":363,"o":"m 93 0 l 93 1028 l 229 1028 l 229 0 l 93 0 m -41 1126 q 18 1263 -34 1216 q 160 1310 69 1310 q 304 1263 251 1310 q 363 1126 356 1216 l 276 1126 q 242 1209 269 1184 q 160 1235 215 1235 q 79 1209 106 1235 q 47 1126 52 1183 l -41 1126 z "},"Ī":{"ha":322,"x_min":-43,"x_max":365,"o":"m 93 0 l 93 1028 l 229 1028 l 229 0 l 93 0 m -43 1169 l -43 1261 l 365 1261 l 365 1169 l -43 1169 z "},"Į":{"ha":322,"x_min":5,"x_max":279,"o":"m 181 -230 q 279 -206 226 -230 l 279 -270 q 168 -294 226 -294 q 47 -260 88 -294 q 5 -162 5 -226 q 30 -75 5 -115 q 109 0 54 -36 l 93 0 l 93 1028 l 229 1028 l 229 0 q 119 -75 150 -38 q 88 -155 88 -112 q 110 -211 88 -192 q 181 -230 133 -230 z "},"Ĩ":{"ha":322,"x_min":-52,"x_max":374,"o":"m 93 0 l 93 1028 l 229 1028 l 229 0 l 93 0 m 262 1147 q 210 1155 234 1147 q 151 1176 187 1162 q 101 1196 121 1190 q 60 1202 81 1202 q 0 1190 26 1202 q -52 1151 -26 1178 l -52 1243 q -3 1279 -31 1267 q 61 1291 24 1291 q 113 1283 89 1291 q 172 1261 138 1276 q 222 1242 203 1248 q 263 1235 242 1235 q 323 1248 297 1235 q 374 1287 349 1260 l 374 1194 q 262 1147 333 1147 z "},"J":{"ha":322,"x_min":-16,"x_max":229,"o":"m -16 -178 q 69 -1 44 -85 q 93 204 93 84 l 93 1028 l 229 1028 l 229 196 q 192 -31 226 69 q 75 -239 157 -131 l -16 -178 z "},"Ĵ":{"ha":322,"x_min":-34,"x_max":357,"o":"m -16 -178 q 69 -1 44 -85 q 93 204 93 84 l 93 1028 l 229 1028 l 229 196 q 192 -31 226 69 q 75 -239 157 -131 l -16 -178 m 357 1114 l 257 1114 l 161 1261 l 65 1114 l -34 1114 l 101 1315 l 222 1315 l 357 1114 z "},"K":{"ha":776,"x_min":93,"x_max":812,"o":"m 663 0 l 339 464 l 229 464 l 229 0 l 93 0 l 93 1028 l 229 1028 l 229 589 l 340 589 l 639 1028 l 785 1028 l 444 531 l 812 0 l 663 0 z "},"Ķ":{"ha":776,"x_min":93,"x_max":812,"o":"m 663 0 l 339 464 l 229 464 l 229 0 l 93 0 l 93 1028 l 229 1028 l 229 589 l 340 589 l 639 1028 l 785 1028 l 444 531 l 812 0 l 663 0 m 410 -106 q 473 -127 452 -106 q 494 -190 494 -149 q 483 -260 494 -222 q 452 -330 472 -298 l 366 -330 q 398 -231 392 -275 q 346 -212 364 -228 q 328 -168 328 -195 q 349 -122 328 -139 q 410 -106 369 -106 z "},"L":{"ha":658,"x_min":93,"x_max":656,"o":"m 93 0 l 93 1028 l 229 1028 l 229 123 l 656 123 l 656 0 l 93 0 z "},"Ǉ":{"ha":981,"x_min":93,"x_max":888,"o":"m 93 0 l 93 1028 l 229 1028 l 229 123 l 656 123 l 656 0 l 93 0 m 642 -178 q 727 -1 703 -85 q 751 204 751 84 l 751 1028 l 888 1028 l 888 196 q 850 -31 885 69 q 733 -239 815 -131 l 642 -178 z "},"Ĺ":{"ha":658,"x_min":93,"x_max":656,"o":"m 93 0 l 93 1028 l 229 1028 l 229 123 l 656 123 l 656 0 l 93 0 m 104 1114 l 203 1315 l 343 1315 l 222 1114 l 104 1114 z "},"Ľ":{"ha":658,"x_min":93,"x_max":656,"o":"m 93 0 l 93 1028 l 229 1028 l 229 123 l 656 123 l 656 0 l 93 0 m 413 792 q 425 941 422 863 q 428 1122 428 1019 l 526 1122 q 490 792 526 924 l 413 792 z "},"Ļ":{"ha":658,"x_min":93,"x_max":656,"o":"m 93 0 l 93 1028 l 229 1028 l 229 123 l 656 123 l 656 0 l 93 0 m 373 -106 q 436 -127 415 -106 q 458 -190 458 -149 q 446 -260 458 -222 q 415 -330 435 -298 l 329 -330 q 361 -231 355 -275 q 309 -212 327 -228 q 291 -168 291 -195 q 312 -122 291 -139 q 373 -106 333 -106 z "},"Ŀ":{"ha":658,"x_min":93,"x_max":656,"o":"m 93 0 l 93 1028 l 229 1028 l 229 123 l 656 123 l 656 0 l 93 0 m 488 487 q 420 509 444 487 q 397 570 397 531 q 420 632 397 610 q 488 654 443 654 q 555 632 532 654 q 578 570 578 610 q 555 509 578 531 q 488 487 531 487 z "},"Ḷ":{"ha":658,"x_min":93,"x_max":656,"o":"m 93 0 l 93 1028 l 229 1028 l 229 123 l 656 123 l 656 0 l 93 0 m 374 -258 q 308 -238 332 -258 q 283 -182 283 -219 q 308 -126 283 -146 q 374 -106 333 -106 q 441 -125 417 -106 q 465 -182 465 -145 q 441 -238 465 -219 q 374 -258 417 -258 z "},"ǈ":{"ha":957,"x_min":93,"x_max":898,"o":"m 93 0 l 93 1028 l 229 1028 l 229 123 l 656 123 l 656 0 l 93 0 m 631 -263 q 716 -86 692 -171 q 740 119 740 -1 l 740 756 l 876 756 l 876 128 q 860 -39 876 35 q 812 -182 845 -114 q 722 -324 778 -250 l 631 -263 m 808 903 q 740 925 763 903 q 717 986 717 947 q 740 1048 717 1026 q 808 1070 763 1070 q 875 1048 852 1070 q 898 986 898 1026 q 875 925 898 947 q 808 903 852 903 z "},"Ḻ":{"ha":658,"x_min":93,"x_max":656,"o":"m 93 0 l 93 1028 l 229 1028 l 229 123 l 656 123 l 656 0 l 93 0 m 170 -225 l 170 -133 l 578 -133 l 578 -225 l 170 -225 z "},"Ł":{"ha":669,"x_min":-13,"x_max":666,"o":"m 240 123 l 666 123 l 666 0 l 103 0 l 103 449 l 36 399 l -13 483 l 103 567 l 103 1028 l 240 1028 l 240 666 l 402 784 l 451 701 l 240 547 l 240 123 z "},"M":{"ha":1113,"x_min":96,"x_max":1017,"o":"m 853 1028 l 1017 1028 l 1017 0 l 890 0 l 890 822 l 615 144 l 499 144 l 224 811 l 224 0 l 96 0 l 96 1028 l 261 1028 l 559 294 l 853 1028 z "},"Ṃ":{"ha":1113,"x_min":96,"x_max":1017,"o":"m 853 1028 l 1017 1028 l 1017 0 l 890 0 l 890 822 l 615 144 l 499 144 l 224 811 l 224 0 l 96 0 l 96 1028 l 261 1028 l 559 294 l 853 1028 m 564 -258 q 497 -238 522 -258 q 473 -182 473 -219 q 498 -126 473 -146 q 564 -106 522 -106 q 631 -125 606 -106 q 655 -182 655 -145 q 631 -238 655 -219 q 564 -258 606 -258 z "},"N":{"ha":903,"x_min":93,"x_max":810,"o":"m 682 1028 l 810 1028 l 810 0 l 671 0 l 222 799 l 222 0 l 93 0 l 93 1028 l 232 1028 l 682 228 l 682 1028 z "},"Ǌ":{"ha":1225,"x_min":93,"x_max":1132,"o":"m 682 1028 l 810 1028 l 810 0 l 671 0 l 222 799 l 222 0 l 93 0 l 93 1028 l 232 1028 l 682 228 l 682 1028 m 887 -178 q 972 -1 947 -85 q 996 204 996 84 l 996 1028 l 1132 1028 l 1132 196 q 1094 -31 1129 69 q 978 -239 1060 -131 l 887 -178 z "},"Ń":{"ha":903,"x_min":93,"x_max":810,"o":"m 682 1028 l 810 1028 l 810 0 l 671 0 l 222 799 l 222 0 l 93 0 l 93 1028 l 232 1028 l 682 228 l 682 1028 m 392 1114 l 491 1315 l 631 1315 l 510 1114 l 392 1114 z "},"Ň":{"ha":903,"x_min":93,"x_max":810,"o":"m 682 1028 l 810 1028 l 810 0 l 671 0 l 222 799 l 222 0 l 93 0 l 93 1028 l 232 1028 l 682 228 l 682 1028 m 547 1315 l 647 1315 l 512 1114 l 391 1114 l 256 1315 l 356 1315 l 451 1168 l 547 1315 z "},"Ņ":{"ha":903,"x_min":93,"x_max":810,"o":"m 682 1028 l 810 1028 l 810 0 l 671 0 l 222 799 l 222 0 l 93 0 l 93 1028 l 232 1028 l 682 228 l 682 1028 m 450 -106 q 514 -127 492 -106 q 535 -190 535 -149 q 523 -260 535 -222 q 492 -330 512 -298 l 406 -330 q 438 -231 432 -275 q 386 -212 404 -228 q 368 -168 368 -195 q 389 -122 368 -139 q 450 -106 410 -106 z "},"Ṅ":{"ha":903,"x_min":93,"x_max":810,"o":"m 682 1028 l 810 1028 l 810 0 l 671 0 l 222 799 l 222 0 l 93 0 l 93 1028 l 232 1028 l 682 228 l 682 1028 m 451 1140 q 385 1160 410 1140 q 360 1216 360 1180 q 385 1272 360 1252 q 451 1292 410 1292 q 518 1273 494 1292 q 542 1216 542 1253 q 518 1160 542 1180 q 451 1140 494 1140 z "},"Ṇ":{"ha":903,"x_min":93,"x_max":810,"o":"m 682 1028 l 810 1028 l 810 0 l 671 0 l 222 799 l 222 0 l 93 0 l 93 1028 l 232 1028 l 682 228 l 682 1028 m 451 -258 q 385 -238 409 -258 q 360 -182 360 -219 q 385 -126 360 -146 q 451 -106 410 -106 q 518 -125 494 -106 q 542 -182 542 -145 q 518 -238 542 -219 q 451 -258 494 -258 z "},"Ŋ":{"ha":903,"x_min":93,"x_max":810,"o":"m 810 1028 l 810 139 q 794 -36 810 41 q 746 -181 779 -112 q 657 -324 713 -249 l 565 -263 q 637 -135 611 -196 q 674 -5 663 -74 l 222 799 l 222 0 l 93 0 l 93 1028 l 232 1028 l 682 228 l 682 1028 l 810 1028 z "},"ǋ":{"ha":1201,"x_min":93,"x_max":1142,"o":"m 682 1028 l 810 1028 l 810 0 l 671 0 l 222 799 l 222 0 l 93 0 l 93 1028 l 232 1028 l 682 228 l 682 1028 m 876 -263 q 960 -86 936 -171 q 985 119 985 -1 l 985 756 l 1120 756 l 1120 128 q 1105 -39 1120 35 q 1056 -182 1090 -114 q 967 -324 1023 -250 l 876 -263 m 1052 903 q 985 925 1008 903 q 962 986 962 947 q 985 1048 962 1026 q 1052 1070 1008 1070 q 1119 1048 1097 1070 q 1142 986 1142 1026 q 1119 925 1142 947 q 1052 903 1097 903 z "},"Ṉ":{"ha":903,"x_min":93,"x_max":810,"o":"m 682 1028 l 810 1028 l 810 0 l 671 0 l 222 799 l 222 0 l 93 0 l 93 1028 l 232 1028 l 682 228 l 682 1028 m 247 -225 l 247 -133 l 656 -133 l 656 -225 l 247 -225 z "},"Ñ":{"ha":903,"x_min":93,"x_max":810,"o":"m 682 1028 l 810 1028 l 810 0 l 671 0 l 222 799 l 222 0 l 93 0 l 93 1028 l 232 1028 l 682 228 l 682 1028 m 552 1147 q 501 1155 524 1147 q 441 1176 477 1162 q 391 1196 411 1190 q 350 1202 371 1202 q 290 1190 316 1202 q 238 1151 265 1178 l 238 1243 q 287 1279 260 1267 q 351 1291 315 1291 q 403 1283 379 1291 q 463 1261 428 1276 q 513 1242 493 1248 q 553 1235 532 1235 q 613 1248 587 1235 q 665 1287 639 1260 l 665 1194 q 552 1147 623 1147 z "},"O":{"ha":872,"x_min":56,"x_max":816,"o":"m 436 -13 q 156 113 256 -13 q 56 514 56 240 q 156 915 56 788 q 436 1041 256 1041 q 716 915 617 1041 q 816 514 816 788 q 716 113 816 240 q 436 -13 617 -13 m 436 103 q 566 142 513 103 q 647 269 618 180 q 675 510 675 359 q 647 756 675 664 q 566 886 618 847 q 436 924 513 924 q 307 886 359 924 q 226 758 254 848 q 197 518 197 669 q 226 272 197 364 q 307 142 254 181 q 436 103 359 103 z "},"Ó":{"ha":872,"x_min":56,"x_max":816,"o":"m 436 -13 q 156 113 256 -13 q 56 514 56 240 q 156 915 56 788 q 436 1041 256 1041 q 716 915 617 1041 q 816 514 816 788 q 716 113 816 240 q 436 -13 617 -13 m 436 103 q 566 142 513 103 q 647 269 618 180 q 675 510 675 359 q 647 756 675 664 q 566 886 618 847 q 436 924 513 924 q 307 886 359 924 q 226 758 254 848 q 197 518 197 669 q 226 272 197 364 q 307 142 254 181 q 436 103 359 103 m 377 1114 l 476 1315 l 616 1315 l 495 1114 l 377 1114 z "},"Ŏ":{"ha":872,"x_min":56,"x_max":816,"o":"m 436 -13 q 156 113 256 -13 q 56 514 56 240 q 156 915 56 788 q 436 1041 256 1041 q 716 915 617 1041 q 816 514 816 788 q 716 113 816 240 q 436 -13 617 -13 m 436 103 q 566 142 513 103 q 647 269 618 180 q 675 510 675 359 q 647 756 675 664 q 566 886 618 847 q 436 924 513 924 q 307 886 359 924 q 226 758 254 848 q 197 518 197 669 q 226 272 197 364 q 307 142 254 181 q 436 103 359 103 m 437 1119 q 294 1166 347 1119 q 234 1303 241 1213 l 322 1303 q 356 1220 328 1245 q 437 1194 383 1194 q 519 1220 492 1194 q 551 1303 546 1246 l 638 1303 q 579 1166 631 1213 q 437 1119 527 1119 z "},"Ô":{"ha":872,"x_min":56,"x_max":816,"o":"m 436 -13 q 156 113 256 -13 q 56 514 56 240 q 156 915 56 788 q 436 1041 256 1041 q 716 915 617 1041 q 816 514 816 788 q 716 113 816 240 q 436 -13 617 -13 m 436 103 q 566 142 513 103 q 647 269 618 180 q 675 510 675 359 q 647 756 675 664 q 566 886 618 847 q 436 924 513 924 q 307 886 359 924 q 226 758 254 848 q 197 518 197 669 q 226 272 197 364 q 307 142 254 181 q 436 103 359 103 m 632 1114 l 532 1114 l 436 1261 l 340 1114 l 241 1114 l 376 1315 l 497 1315 l 632 1114 z "},"Ố":{"ha":872,"x_min":56,"x_max":816,"o":"m 436 -13 q 156 113 256 -13 q 56 514 56 240 q 156 915 56 788 q 436 1041 256 1041 q 716 915 617 1041 q 816 514 816 788 q 716 113 816 240 q 436 -13 617 -13 m 436 103 q 566 142 513 103 q 647 269 618 180 q 675 510 675 359 q 647 756 675 664 q 566 886 618 847 q 436 924 513 924 q 307 886 359 924 q 226 758 254 848 q 197 518 197 669 q 226 272 197 364 q 307 142 254 181 q 436 103 359 103 m 656 1433 l 751 1433 l 651 1254 l 578 1254 l 656 1433 m 376 1303 l 497 1303 l 632 1114 l 532 1114 l 436 1253 l 340 1114 l 241 1114 l 376 1303 z "},"Ộ":{"ha":872,"x_min":56,"x_max":816,"o":"m 436 -13 q 156 113 256 -13 q 56 514 56 240 q 156 915 56 788 q 436 1041 256 1041 q 716 915 617 1041 q 816 514 816 788 q 716 113 816 240 q 436 -13 617 -13 m 436 103 q 566 142 513 103 q 647 269 618 180 q 675 510 675 359 q 647 756 675 664 q 566 886 618 847 q 436 924 513 924 q 307 886 359 924 q 226 758 254 848 q 197 518 197 669 q 226 272 197 364 q 307 142 254 181 q 436 103 359 103 m 436 -258 q 369 -238 394 -258 q 345 -182 345 -219 q 370 -126 345 -146 q 436 -106 394 -106 q 503 -125 478 -106 q 527 -182 527 -145 q 503 -238 527 -219 q 436 -258 478 -258 m 632 1114 l 532 1114 l 436 1261 l 340 1114 l 241 1114 l 376 1315 l 497 1315 l 632 1114 z "},"Ồ":{"ha":872,"x_min":56,"x_max":816,"o":"m 436 -13 q 156 113 256 -13 q 56 514 56 240 q 156 915 56 788 q 436 1041 256 1041 q 716 915 617 1041 q 816 514 816 788 q 716 113 816 240 q 436 -13 617 -13 m 436 103 q 566 142 513 103 q 647 269 618 180 q 675 510 675 359 q 647 756 675 664 q 566 886 618 847 q 436 924 513 924 q 307 886 359 924 q 226 758 254 848 q 197 518 197 669 q 226 272 197 364 q 307 142 254 181 q 436 103 359 103 m 670 1254 l 597 1254 l 498 1433 l 593 1433 l 670 1254 m 376 1303 l 497 1303 l 632 1114 l 532 1114 l 436 1253 l 340 1114 l 241 1114 l 376 1303 z "},"Ổ":{"ha":872,"x_min":56,"x_max":816,"o":"m 436 -13 q 156 113 256 -13 q 56 514 56 240 q 156 915 56 788 q 436 1041 256 1041 q 716 915 617 1041 q 816 514 816 788 q 716 113 816 240 q 436 -13 617 -13 m 436 103 q 566 142 513 103 q 647 269 618 180 q 675 510 675 359 q 647 756 675 664 q 566 886 618 847 q 436 924 513 924 q 307 886 359 924 q 226 758 254 848 q 197 518 197 669 q 226 272 197 364 q 307 142 254 181 q 436 103 359 103 m 618 1450 q 727 1430 691 1450 q 763 1372 763 1409 q 749 1333 763 1347 q 705 1304 734 1319 q 669 1282 681 1292 q 654 1254 656 1271 l 577 1254 q 588 1289 578 1275 q 610 1311 598 1303 q 643 1328 623 1319 q 673 1345 663 1338 q 682 1363 682 1352 q 665 1385 682 1378 q 609 1392 649 1392 q 546 1387 578 1392 q 486 1372 514 1382 l 486 1429 q 548 1444 511 1438 q 618 1450 585 1450 m 376 1303 l 497 1303 l 632 1114 l 532 1114 l 436 1253 l 340 1114 l 241 1114 l 376 1303 z "},"Ỗ":{"ha":872,"x_min":56,"x_max":816,"o":"m 436 -13 q 156 113 256 -13 q 56 514 56 240 q 156 915 56 788 q 436 1041 256 1041 q 716 915 617 1041 q 816 514 816 788 q 716 113 816 240 q 436 -13 617 -13 m 436 103 q 566 142 513 103 q 647 269 618 180 q 675 510 675 359 q 647 756 675 664 q 566 886 618 847 q 436 924 513 924 q 307 886 359 924 q 226 758 254 848 q 197 518 197 669 q 226 272 197 364 q 307 142 254 181 q 436 103 359 103 m 523 1403 q 579 1414 554 1403 q 632 1451 603 1426 l 632 1377 q 583 1344 609 1354 q 522 1334 556 1334 q 476 1341 498 1334 q 426 1360 453 1348 q 383 1377 400 1372 q 350 1382 366 1382 q 294 1370 319 1382 q 241 1333 269 1359 l 241 1408 q 290 1441 264 1431 q 351 1451 317 1451 q 395 1445 374 1451 q 447 1425 417 1438 q 489 1408 472 1414 q 523 1403 506 1403 m 376 1303 l 497 1303 l 632 1114 l 532 1114 l 436 1253 l 340 1114 l 241 1114 l 376 1303 z "},"Ȍ":{"ha":872,"x_min":56,"x_max":816,"o":"m 436 -13 q 156 113 256 -13 q 56 514 56 240 q 156 915 56 788 q 436 1041 256 1041 q 716 915 617 1041 q 816 514 816 788 q 716 113 816 240 q 436 -13 617 -13 m 436 103 q 566 142 513 103 q 647 269 618 180 q 675 510 675 359 q 647 756 675 664 q 566 886 618 847 q 436 924 513 924 q 307 886 359 924 q 226 758 254 848 q 197 518 197 669 q 226 272 197 364 q 307 142 254 181 q 436 103 359 103 m 272 1114 l 194 1315 l 306 1315 l 376 1114 l 272 1114 m 497 1114 l 419 1315 l 532 1315 l 601 1114 l 497 1114 z "},"Ö":{"ha":872,"x_min":56,"x_max":816,"o":"m 436 -13 q 156 113 256 -13 q 56 514 56 240 q 156 915 56 788 q 436 1041 256 1041 q 716 915 617 1041 q 816 514 816 788 q 716 113 816 240 q 436 -13 617 -13 m 436 103 q 566 142 513 103 q 647 269 618 180 q 675 510 675 359 q 647 756 675 664 q 566 886 618 847 q 436 924 513 924 q 307 886 359 924 q 226 758 254 848 q 197 518 197 669 q 226 272 197 364 q 307 142 254 181 q 436 103 359 103 m 292 1140 q 231 1160 253 1140 q 209 1216 209 1180 q 231 1272 209 1252 q 292 1292 253 1292 q 353 1272 331 1292 q 375 1216 375 1252 q 353 1160 375 1180 q 292 1140 331 1140 m 581 1140 q 519 1160 542 1140 q 497 1216 497 1181 q 519 1272 497 1252 q 581 1292 542 1292 q 642 1272 619 1292 q 664 1216 664 1252 q 642 1160 664 1181 q 581 1140 619 1140 z "},"Ȫ":{"ha":872,"x_min":56,"x_max":816,"o":"m 436 -13 q 156 113 256 -13 q 56 514 56 240 q 156 915 56 788 q 436 1041 256 1041 q 716 915 617 1041 q 816 514 816 788 q 716 113 816 240 q 436 -13 617 -13 m 436 103 q 566 142 513 103 q 647 269 618 180 q 675 510 675 359 q 647 756 675 664 q 566 886 618 847 q 436 924 513 924 q 307 886 359 924 q 226 758 254 848 q 197 518 197 669 q 226 272 197 364 q 307 142 254 181 q 436 103 359 103 m 292 1140 q 231 1160 253 1140 q 209 1216 209 1180 q 231 1272 209 1252 q 292 1292 253 1292 q 353 1272 331 1292 q 375 1216 375 1252 q 353 1160 375 1180 q 292 1140 331 1140 m 581 1140 q 519 1160 542 1140 q 497 1216 497 1181 q 519 1272 497 1252 q 581 1292 542 1292 q 642 1272 619 1292 q 664 1216 664 1252 q 642 1160 664 1181 q 581 1140 619 1140 m 232 1392 l 232 1483 l 640 1483 l 640 1392 l 232 1392 z "},"Ȱ":{"ha":872,"x_min":56,"x_max":816,"o":"m 436 -13 q 156 113 256 -13 q 56 514 56 240 q 156 915 56 788 q 436 1041 256 1041 q 716 915 617 1041 q 816 514 816 788 q 716 113 816 240 q 436 -13 617 -13 m 436 103 q 566 142 513 103 q 647 269 618 180 q 675 510 675 359 q 647 756 675 664 q 566 886 618 847 q 436 924 513 924 q 307 886 359 924 q 226 758 254 848 q 197 518 197 669 q 226 272 197 364 q 307 142 254 181 q 436 103 359 103 m 436 1140 q 370 1160 394 1140 q 345 1216 345 1180 q 370 1272 345 1252 q 436 1292 394 1292 q 503 1273 478 1292 q 527 1216 527 1253 q 503 1160 527 1180 q 436 1140 478 1140 m 232 1392 l 232 1483 l 640 1483 l 640 1392 l 232 1392 z "},"Ọ":{"ha":872,"x_min":56,"x_max":816,"o":"m 436 -13 q 156 113 256 -13 q 56 514 56 240 q 156 915 56 788 q 436 1041 256 1041 q 716 915 617 1041 q 816 514 816 788 q 716 113 816 240 q 436 -13 617 -13 m 436 103 q 566 142 513 103 q 647 269 618 180 q 675 510 675 359 q 647 756 675 664 q 566 886 618 847 q 436 924 513 924 q 307 886 359 924 q 226 758 254 848 q 197 518 197 669 q 226 272 197 364 q 307 142 254 181 q 436 103 359 103 m 436 -258 q 369 -238 394 -258 q 345 -182 345 -219 q 370 -126 345 -146 q 436 -106 394 -106 q 503 -125 478 -106 q 527 -182 527 -145 q 503 -238 527 -219 q 436 -258 478 -258 z "},"Ò":{"ha":872,"x_min":56,"x_max":816,"o":"m 436 -13 q 156 113 256 -13 q 56 514 56 240 q 156 915 56 788 q 436 1041 256 1041 q 716 915 617 1041 q 816 514 816 788 q 716 113 816 240 q 436 -13 617 -13 m 436 103 q 566 142 513 103 q 647 269 618 180 q 675 510 675 359 q 647 756 675 664 q 566 886 618 847 q 436 924 513 924 q 307 886 359 924 q 226 758 254 848 q 197 518 197 669 q 226 272 197 364 q 307 142 254 181 q 436 103 359 103 m 377 1114 l 257 1315 l 397 1315 l 495 1114 l 377 1114 z "},"Ỏ":{"ha":872,"x_min":56,"x_max":816,"o":"m 436 -13 q 156 113 256 -13 q 56 514 56 240 q 156 915 56 788 q 436 1041 256 1041 q 716 915 617 1041 q 816 514 816 788 q 716 113 816 240 q 436 -13 617 -13 m 436 103 q 566 142 513 103 q 647 269 618 180 q 675 510 675 359 q 647 756 675 664 q 566 886 618 847 q 436 924 513 924 q 307 886 359 924 q 226 758 254 848 q 197 518 197 669 q 226 272 197 364 q 307 142 254 181 q 436 103 359 103 m 398 1114 q 417 1161 400 1145 q 465 1193 434 1178 q 493 1210 483 1202 q 502 1228 502 1217 q 485 1252 502 1244 q 429 1260 469 1260 q 367 1254 399 1260 q 306 1238 335 1249 l 306 1301 q 368 1317 331 1311 q 439 1323 406 1323 q 548 1301 512 1323 q 584 1239 584 1279 q 570 1198 584 1213 q 526 1167 556 1183 q 490 1143 503 1154 q 475 1114 477 1132 l 398 1114 z "},"Ơ":{"ha":872,"x_min":56,"x_max":822,"o":"m 681 954 q 816 514 816 831 q 716 113 816 240 q 436 -13 617 -13 q 156 113 256 -13 q 56 514 56 240 q 156 915 56 788 q 436 1041 256 1041 q 533 1033 478 1041 q 562 1029 540 1032 q 605 1026 584 1026 q 689 1053 659 1026 q 719 1135 719 1079 q 706 1233 719 1182 l 806 1233 q 818 1184 815 1208 q 822 1128 822 1160 q 784 1009 822 1053 q 681 954 747 965 m 436 103 q 566 142 513 103 q 647 269 618 180 q 675 510 675 359 q 647 756 675 664 q 566 886 618 847 q 436 924 513 924 q 307 886 359 924 q 226 758 254 848 q 197 518 197 669 q 226 272 197 364 q 307 142 254 181 q 436 103 359 103 z "},"Ớ":{"ha":872,"x_min":56,"x_max":822,"o":"m 681 954 q 816 514 816 831 q 716 113 816 240 q 436 -13 617 -13 q 156 113 256 -13 q 56 514 56 240 q 156 915 56 788 q 436 1041 256 1041 q 533 1033 478 1041 q 562 1029 540 1032 q 605 1026 584 1026 q 689 1053 659 1026 q 719 1135 719 1079 q 706 1233 719 1182 l 806 1233 q 818 1184 815 1208 q 822 1128 822 1160 q 784 1009 822 1053 q 681 954 747 965 m 436 103 q 566 142 513 103 q 647 269 618 180 q 675 510 675 359 q 647 756 675 664 q 566 886 618 847 q 436 924 513 924 q 307 886 359 924 q 226 758 254 848 q 197 518 197 669 q 226 272 197 364 q 307 142 254 181 q 436 103 359 103 m 377 1114 l 476 1315 l 616 1315 l 495 1114 l 377 1114 z "},"Ợ":{"ha":872,"x_min":56,"x_max":822,"o":"m 681 954 q 816 514 816 831 q 716 113 816 240 q 436 -13 617 -13 q 156 113 256 -13 q 56 514 56 240 q 156 915 56 788 q 436 1041 256 1041 q 533 1033 478 1041 q 562 1029 540 1032 q 605 1026 584 1026 q 689 1053 659 1026 q 719 1135 719 1079 q 706 1233 719 1182 l 806 1233 q 818 1184 815 1208 q 822 1128 822 1160 q 784 1009 822 1053 q 681 954 747 965 m 436 103 q 566 142 513 103 q 647 269 618 180 q 675 510 675 359 q 647 756 675 664 q 566 886 618 847 q 436 924 513 924 q 307 886 359 924 q 226 758 254 848 q 197 518 197 669 q 226 272 197 364 q 307 142 254 181 q 436 103 359 103 m 436 -258 q 369 -238 394 -258 q 345 -182 345 -219 q 370 -126 345 -146 q 436 -106 394 -106 q 503 -125 478 -106 q 527 -182 527 -145 q 503 -238 527 -219 q 436 -258 478 -258 z "},"Ờ":{"ha":872,"x_min":56,"x_max":822,"o":"m 681 954 q 816 514 816 831 q 716 113 816 240 q 436 -13 617 -13 q 156 113 256 -13 q 56 514 56 240 q 156 915 56 788 q 436 1041 256 1041 q 533 1033 478 1041 q 562 1029 540 1032 q 605 1026 584 1026 q 689 1053 659 1026 q 719 1135 719 1079 q 706 1233 719 1182 l 806 1233 q 818 1184 815 1208 q 822 1128 822 1160 q 784 1009 822 1053 q 681 954 747 965 m 436 103 q 566 142 513 103 q 647 269 618 180 q 675 510 675 359 q 647 756 675 664 q 566 886 618 847 q 436 924 513 924 q 307 886 359 924 q 226 758 254 848 q 197 518 197 669 q 226 272 197 364 q 307 142 254 181 q 436 103 359 103 m 377 1114 l 257 1315 l 397 1315 l 495 1114 l 377 1114 z "},"Ở":{"ha":872,"x_min":56,"x_max":822,"o":"m 681 954 q 816 514 816 831 q 716 113 816 240 q 436 -13 617 -13 q 156 113 256 -13 q 56 514 56 240 q 156 915 56 788 q 436 1041 256 1041 q 533 1033 478 1041 q 562 1029 540 1032 q 605 1026 584 1026 q 689 1053 659 1026 q 719 1135 719 1079 q 706 1233 719 1182 l 806 1233 q 818 1184 815 1208 q 822 1128 822 1160 q 784 1009 822 1053 q 681 954 747 965 m 436 103 q 566 142 513 103 q 647 269 618 180 q 675 510 675 359 q 647 756 675 664 q 566 886 618 847 q 436 924 513 924 q 307 886 359 924 q 226 758 254 848 q 197 518 197 669 q 226 272 197 364 q 307 142 254 181 q 436 103 359 103 m 398 1114 q 417 1161 400 1145 q 465 1193 434 1178 q 493 1210 483 1202 q 502 1228 502 1217 q 485 1252 502 1244 q 429 1260 469 1260 q 367 1254 399 1260 q 306 1238 335 1249 l 306 1301 q 368 1317 331 1311 q 439 1323 406 1323 q 548 1301 512 1323 q 584 1239 584 1279 q 570 1198 584 1213 q 526 1167 556 1183 q 490 1143 503 1154 q 475 1114 477 1132 l 398 1114 z "},"Ỡ":{"ha":872,"x_min":56,"x_max":822,"o":"m 340 1202 q 283 1190 308 1202 q 233 1151 258 1177 l 233 1243 q 340 1291 273 1291 q 390 1284 367 1291 q 447 1261 413 1276 q 493 1242 474 1249 q 533 1235 513 1235 q 590 1248 565 1235 q 639 1287 615 1260 l 639 1194 q 532 1147 599 1147 q 483 1154 506 1147 q 426 1176 461 1161 q 379 1195 398 1189 q 340 1202 360 1202 m 681 954 q 816 514 816 831 q 716 113 816 240 q 436 -13 617 -13 q 156 113 256 -13 q 56 514 56 240 q 156 915 56 788 q 436 1041 256 1041 q 533 1033 478 1041 q 562 1029 540 1032 q 605 1026 584 1026 q 689 1053 659 1026 q 719 1135 719 1079 q 706 1233 719 1182 l 806 1233 q 818 1184 815 1208 q 822 1128 822 1160 q 784 1009 822 1053 q 681 954 747 965 m 436 103 q 566 142 513 103 q 647 269 618 180 q 675 510 675 359 q 647 756 675 664 q 566 886 618 847 q 436 924 513 924 q 307 886 359 924 q 226 758 254 848 q 197 518 197 669 q 226 272 197 364 q 307 142 254 181 q 436 103 359 103 z "},"Ő":{"ha":872,"x_min":56,"x_max":816,"o":"m 436 -13 q 156 113 256 -13 q 56 514 56 240 q 156 915 56 788 q 436 1041 256 1041 q 716 915 617 1041 q 816 514 816 788 q 716 113 816 240 q 436 -13 617 -13 m 436 103 q 566 142 513 103 q 647 269 618 180 q 675 510 675 359 q 647 756 675 664 q 566 886 618 847 q 436 924 513 924 q 307 886 359 924 q 226 758 254 848 q 197 518 197 669 q 226 272 197 364 q 307 142 254 181 q 436 103 359 103 m 272 1114 l 341 1315 l 453 1315 l 376 1114 l 272 1114 m 497 1114 l 566 1315 l 678 1315 l 601 1114 l 497 1114 z "},"Ȏ":{"ha":872,"x_min":56,"x_max":816,"o":"m 436 -13 q 156 113 256 -13 q 56 514 56 240 q 156 915 56 788 q 436 1041 256 1041 q 716 915 617 1041 q 816 514 816 788 q 716 113 816 240 q 436 -13 617 -13 m 436 103 q 566 142 513 103 q 647 269 618 180 q 675 510 675 359 q 647 756 675 664 q 566 886 618 847 q 436 924 513 924 q 307 886 359 924 q 226 758 254 848 q 197 518 197 669 q 226 272 197 364 q 307 142 254 181 q 436 103 359 103 m 234 1126 q 293 1263 241 1216 q 435 1310 344 1310 q 579 1263 526 1310 q 638 1126 631 1216 l 551 1126 q 517 1209 544 1184 q 435 1235 490 1235 q 354 1209 381 1235 q 322 1126 327 1183 l 234 1126 z "},"Ō":{"ha":872,"x_min":56,"x_max":816,"o":"m 436 -13 q 156 113 256 -13 q 56 514 56 240 q 156 915 56 788 q 436 1041 256 1041 q 716 915 617 1041 q 816 514 816 788 q 716 113 816 240 q 436 -13 617 -13 m 436 103 q 566 142 513 103 q 647 269 618 180 q 675 510 675 359 q 647 756 675 664 q 566 886 618 847 q 436 924 513 924 q 307 886 359 924 q 226 758 254 848 q 197 518 197 669 q 226 272 197 364 q 307 142 254 181 q 436 103 359 103 m 232 1169 l 232 1261 l 640 1261 l 640 1169 l 232 1169 z "},"Ṓ":{"ha":872,"x_min":56,"x_max":816,"o":"m 436 -13 q 156 113 256 -13 q 56 514 56 240 q 156 915 56 788 q 436 1041 256 1041 q 716 915 617 1041 q 816 514 816 788 q 716 113 816 240 q 436 -13 617 -13 m 436 103 q 566 142 513 103 q 647 269 618 180 q 675 510 675 359 q 647 756 675 664 q 566 886 618 847 q 436 924 513 924 q 307 886 359 924 q 226 758 254 848 q 197 518 197 669 q 226 272 197 364 q 307 142 254 181 q 436 103 359 103 m 372 1336 l 471 1497 l 621 1497 l 500 1336 l 372 1336 m 232 1169 l 232 1261 l 640 1261 l 640 1169 l 232 1169 z "},"Ṑ":{"ha":872,"x_min":56,"x_max":816,"o":"m 436 -13 q 156 113 256 -13 q 56 514 56 240 q 156 915 56 788 q 436 1041 256 1041 q 716 915 617 1041 q 816 514 816 788 q 716 113 816 240 q 436 -13 617 -13 m 436 103 q 566 142 513 103 q 647 269 618 180 q 675 510 675 359 q 647 756 675 664 q 566 886 618 847 q 436 924 513 924 q 307 886 359 924 q 226 758 254 848 q 197 518 197 669 q 226 272 197 364 q 307 142 254 181 q 436 103 359 103 m 372 1336 l 252 1497 l 402 1497 l 500 1336 l 372 1336 m 232 1169 l 232 1261 l 640 1261 l 640 1169 l 232 1169 z "},"Ǫ":{"ha":872,"x_min":56,"x_max":816,"o":"m 579 10 q 417 -155 417 -56 q 440 -211 417 -192 q 511 -230 463 -230 q 609 -206 555 -230 l 609 -270 q 498 -294 555 -294 q 375 -260 417 -294 q 333 -162 333 -226 q 355 -82 333 -119 q 423 -13 376 -45 q 152 118 249 -9 q 56 514 56 244 q 156 915 56 788 q 436 1041 256 1041 q 716 915 617 1041 q 816 514 816 788 q 754 175 816 296 q 579 10 692 55 m 197 518 q 226 272 197 364 q 307 142 254 181 q 436 103 359 103 q 566 142 513 103 q 647 269 618 180 q 675 510 675 359 q 647 756 675 664 q 566 886 618 847 q 436 924 513 924 q 307 886 359 924 q 226 758 254 848 q 197 518 197 669 z "},"Ø":{"ha":872,"x_min":56,"x_max":816,"o":"m 727 899 q 816 514 816 768 q 716 113 816 240 q 436 -13 617 -13 q 202 64 292 -13 l 147 -24 l 78 21 l 145 128 q 56 514 56 260 q 156 915 56 788 q 436 1041 256 1041 q 670 964 580 1041 l 725 1051 l 794 1007 l 727 899 m 197 518 q 229 262 197 356 l 599 851 q 530 907 570 890 q 436 924 489 924 q 307 886 359 924 q 226 758 254 848 q 197 518 197 669 m 436 103 q 566 142 513 103 q 647 269 618 180 q 675 510 675 359 q 643 766 675 672 l 273 176 q 343 121 302 138 q 436 103 383 103 z "},"Ǿ":{"ha":872,"x_min":56,"x_max":816,"o":"m 727 899 q 816 514 816 768 q 716 113 816 240 q 436 -13 617 -13 q 202 64 292 -13 l 147 -24 l 78 21 l 145 128 q 56 514 56 260 q 156 915 56 788 q 436 1041 256 1041 q 670 964 580 1041 l 725 1051 l 794 1007 l 727 899 m 197 518 q 229 262 197 356 l 599 851 q 530 907 570 890 q 436 924 489 924 q 307 886 359 924 q 226 758 254 848 q 197 518 197 669 m 436 103 q 566 142 513 103 q 647 269 618 180 q 675 510 675 359 q 643 766 675 672 l 273 176 q 343 121 302 138 q 436 103 383 103 m 378 1114 l 477 1315 l 617 1315 l 497 1114 l 378 1114 z "},"Õ":{"ha":872,"x_min":56,"x_max":816,"o":"m 436 -13 q 156 113 256 -13 q 56 514 56 240 q 156 915 56 788 q 436 1041 256 1041 q 716 915 617 1041 q 816 514 816 788 q 716 113 816 240 q 436 -13 617 -13 m 436 103 q 566 142 513 103 q 647 269 618 180 q 675 510 675 359 q 647 756 675 664 q 566 886 618 847 q 436 924 513 924 q 307 886 359 924 q 226 758 254 848 q 197 518 197 669 q 226 272 197 364 q 307 142 254 181 q 436 103 359 103 m 537 1147 q 485 1155 509 1147 q 426 1176 462 1162 q 376 1196 396 1190 q 335 1202 356 1202 q 275 1190 301 1202 q 223 1151 249 1178 l 223 1243 q 272 1279 244 1267 q 336 1291 299 1291 q 388 1283 364 1291 q 447 1261 413 1276 q 497 1242 478 1248 q 538 1235 517 1235 q 598 1248 572 1235 q 649 1287 624 1260 l 649 1194 q 537 1147 608 1147 z "},"Ṍ":{"ha":872,"x_min":56,"x_max":816,"o":"m 436 -13 q 156 113 256 -13 q 56 514 56 240 q 156 915 56 788 q 436 1041 256 1041 q 716 915 617 1041 q 816 514 816 788 q 716 113 816 240 q 436 -13 617 -13 m 436 103 q 566 142 513 103 q 647 269 618 180 q 675 510 675 359 q 647 756 675 664 q 566 886 618 847 q 436 924 513 924 q 307 886 359 924 q 226 758 254 848 q 197 518 197 669 q 226 272 197 364 q 307 142 254 181 q 436 103 359 103 m 372 1336 l 471 1497 l 621 1497 l 500 1336 l 372 1336 m 537 1147 q 485 1155 509 1147 q 426 1176 462 1162 q 376 1196 396 1190 q 335 1202 356 1202 q 275 1190 301 1202 q 223 1151 249 1178 l 223 1243 q 272 1279 244 1267 q 336 1291 299 1291 q 388 1283 364 1291 q 447 1261 413 1276 q 497 1242 478 1248 q 538 1235 517 1235 q 598 1248 572 1235 q 649 1287 624 1260 l 649 1194 q 537 1147 608 1147 z "},"Ṏ":{"ha":872,"x_min":56,"x_max":816,"o":"m 436 -13 q 156 113 256 -13 q 56 514 56 240 q 156 915 56 788 q 436 1041 256 1041 q 716 915 617 1041 q 816 514 816 788 q 716 113 816 240 q 436 -13 617 -13 m 436 103 q 566 142 513 103 q 647 269 618 180 q 675 510 675 359 q 647 756 675 664 q 566 886 618 847 q 436 924 513 924 q 307 886 359 924 q 226 758 254 848 q 197 518 197 669 q 226 272 197 364 q 307 142 254 181 q 436 103 359 103 m 537 1147 q 485 1155 509 1147 q 426 1176 462 1162 q 376 1196 396 1190 q 335 1202 356 1202 q 275 1190 301 1202 q 223 1151 249 1178 l 223 1243 q 272 1279 244 1267 q 336 1291 299 1291 q 388 1283 364 1291 q 447 1261 413 1276 q 497 1242 478 1248 q 538 1235 517 1235 q 598 1248 572 1235 q 649 1287 624 1260 l 649 1194 q 537 1147 608 1147 m 292 1363 q 231 1382 253 1363 q 209 1438 209 1402 q 231 1494 209 1474 q 292 1515 253 1515 q 353 1494 331 1515 q 375 1438 375 1474 q 353 1382 375 1402 q 292 1363 331 1363 m 581 1363 q 519 1383 542 1363 q 497 1438 497 1403 q 519 1494 497 1474 q 581 1515 542 1515 q 642 1494 619 1515 q 664 1438 664 1474 q 642 1383 664 1403 q 581 1363 619 1363 z "},"Ȭ":{"ha":872,"x_min":56,"x_max":816,"o":"m 436 -13 q 156 113 256 -13 q 56 514 56 240 q 156 915 56 788 q 436 1041 256 1041 q 716 915 617 1041 q 816 514 816 788 q 716 113 816 240 q 436 -13 617 -13 m 436 103 q 566 142 513 103 q 647 269 618 180 q 675 510 675 359 q 647 756 675 664 q 566 886 618 847 q 436 924 513 924 q 307 886 359 924 q 226 758 254 848 q 197 518 197 669 q 226 272 197 364 q 307 142 254 181 q 436 103 359 103 m 537 1147 q 485 1155 509 1147 q 426 1176 462 1162 q 376 1196 396 1190 q 335 1202 356 1202 q 275 1190 301 1202 q 223 1151 249 1178 l 223 1243 q 272 1279 244 1267 q 336 1291 299 1291 q 388 1283 364 1291 q 447 1261 413 1276 q 497 1242 478 1248 q 538 1235 517 1235 q 598 1248 572 1235 q 649 1287 624 1260 l 649 1194 q 537 1147 608 1147 m 232 1392 l 232 1483 l 640 1483 l 640 1392 l 232 1392 z "},"Œ":{"ha":1208,"x_min":56,"x_max":1178,"o":"m 1178 119 l 1178 0 l 699 0 q 628 -3 678 0 q 526 -7 567 -7 q 174 119 292 -7 q 56 514 56 246 q 175 908 56 779 q 519 1036 293 1036 q 626 1031 551 1036 q 697 1028 669 1028 l 1171 1028 l 1171 908 l 745 908 l 745 587 l 1105 587 l 1105 467 l 745 467 l 745 119 l 1178 119 m 610 913 q 501 919 560 919 q 331 878 398 919 q 231 748 264 837 q 197 514 197 659 q 233 278 197 367 q 337 150 268 190 q 510 110 406 110 q 610 115 569 110 l 610 913 z "},"P":{"ha":777,"x_min":93,"x_max":726,"o":"m 93 1015 q 335 1039 222 1039 q 628 952 531 1039 q 726 681 726 865 q 626 416 726 506 q 329 326 527 326 q 229 329 286 326 l 229 0 l 93 0 l 93 1015 m 333 440 q 528 497 465 440 q 591 678 591 555 q 531 866 591 807 q 345 925 472 925 q 229 916 283 925 l 229 446 q 333 440 272 440 z "},"Þ":{"ha":784,"x_min":93,"x_max":726,"o":"m 93 1028 l 229 1028 l 229 878 q 335 885 282 885 q 628 798 531 885 q 726 527 726 710 q 627 261 726 351 q 330 172 528 172 q 229 175 286 172 l 229 0 l 93 0 l 93 1028 m 333 285 q 528 343 465 285 q 591 524 591 401 q 531 712 591 653 q 345 771 472 771 q 229 762 289 771 l 229 291 q 333 285 274 285 z "},"Q":{"ha":872,"x_min":56,"x_max":816,"o":"m 816 514 q 739 154 816 284 q 513 4 662 24 q 801 -58 642 -40 l 775 -173 q 344 -49 499 -130 q 123 165 189 31 q 56 514 56 299 q 156 915 56 788 q 436 1041 256 1041 q 716 915 617 1041 q 816 514 816 788 m 197 518 q 226 272 197 364 q 307 142 254 181 q 436 103 359 103 q 566 142 513 103 q 647 269 618 180 q 675 510 675 359 q 647 756 675 664 q 566 886 618 847 q 436 924 513 924 q 307 886 359 924 q 226 758 254 848 q 197 518 197 669 z "},"R":{"ha":820,"x_min":93,"x_max":803,"o":"m 656 0 l 379 413 q 331 412 349 412 q 228 415 288 412 l 228 0 l 93 0 l 93 1015 q 344 1039 224 1039 q 629 961 535 1039 q 724 728 724 884 q 669 541 724 615 q 509 435 615 467 l 803 0 l 656 0 m 328 522 q 530 572 466 522 q 594 727 594 621 q 536 879 594 830 q 357 928 479 928 q 228 918 288 928 l 228 526 q 328 522 285 522 z "},"Ŕ":{"ha":820,"x_min":93,"x_max":803,"o":"m 656 0 l 379 413 q 331 412 349 412 q 228 415 288 412 l 228 0 l 93 0 l 93 1015 q 344 1039 224 1039 q 629 961 535 1039 q 724 728 724 884 q 669 541 724 615 q 509 435 615 467 l 803 0 l 656 0 m 328 522 q 530 572 466 522 q 594 727 594 621 q 536 879 594 830 q 357 928 479 928 q 228 918 288 928 l 228 526 q 328 522 285 522 m 333 1114 l 431 1315 l 572 1315 l 451 1114 l 333 1114 z "},"Ř":{"ha":820,"x_min":93,"x_max":803,"o":"m 656 0 l 379 413 q 331 412 349 412 q 228 415 288 412 l 228 0 l 93 0 l 93 1015 q 344 1039 224 1039 q 629 961 535 1039 q 724 728 724 884 q 669 541 724 615 q 509 435 615 467 l 803 0 l 656 0 m 328 522 q 530 572 466 522 q 594 727 594 621 q 536 879 594 830 q 357 928 479 928 q 228 918 288 928 l 228 526 q 328 522 285 522 m 488 1315 l 588 1315 l 452 1114 l 331 1114 l 197 1315 l 296 1315 l 392 1168 l 488 1315 z "},"Ŗ":{"ha":820,"x_min":93,"x_max":803,"o":"m 656 0 l 379 413 q 331 412 349 412 q 228 415 288 412 l 228 0 l 93 0 l 93 1015 q 344 1039 224 1039 q 629 961 535 1039 q 724 728 724 884 q 669 541 724 615 q 509 435 615 467 l 803 0 l 656 0 m 328 522 q 530 572 466 522 q 594 727 594 621 q 536 879 594 830 q 357 928 479 928 q 228 918 288 928 l 228 526 q 328 522 285 522 m 436 -106 q 500 -127 478 -106 q 521 -190 521 -149 q 509 -260 521 -222 q 478 -330 498 -298 l 392 -330 q 424 -231 418 -275 q 372 -212 390 -228 q 354 -168 354 -195 q 375 -122 354 -139 q 436 -106 396 -106 z "},"Ȑ":{"ha":820,"x_min":93,"x_max":803,"o":"m 656 0 l 379 413 q 331 412 349 412 q 228 415 288 412 l 228 0 l 93 0 l 93 1015 q 344 1039 224 1039 q 629 961 535 1039 q 724 728 724 884 q 669 541 724 615 q 509 435 615 467 l 803 0 l 656 0 m 328 522 q 530 572 466 522 q 594 727 594 621 q 536 879 594 830 q 357 928 479 928 q 228 918 288 928 l 228 526 q 328 522 285 522 m 227 1114 l 149 1315 l 262 1315 l 331 1114 l 227 1114 m 453 1114 l 375 1315 l 488 1315 l 556 1114 l 453 1114 z "},"Ṛ":{"ha":820,"x_min":93,"x_max":803,"o":"m 656 0 l 379 413 q 331 412 349 412 q 228 415 288 412 l 228 0 l 93 0 l 93 1015 q 344 1039 224 1039 q 629 961 535 1039 q 724 728 724 884 q 669 541 724 615 q 509 435 615 467 l 803 0 l 656 0 m 328 522 q 530 572 466 522 q 594 727 594 621 q 536 879 594 830 q 357 928 479 928 q 228 918 288 928 l 228 526 q 328 522 285 522 m 438 -258 q 371 -238 395 -258 q 347 -182 347 -219 q 371 -126 347 -146 q 438 -106 396 -106 q 504 -125 480 -106 q 528 -182 528 -145 q 504 -238 528 -219 q 438 -258 480 -258 z "},"Ȓ":{"ha":820,"x_min":93,"x_max":803,"o":"m 656 0 l 379 413 q 331 412 349 412 q 228 415 288 412 l 228 0 l 93 0 l 93 1015 q 344 1039 224 1039 q 629 961 535 1039 q 724 728 724 884 q 669 541 724 615 q 509 435 615 467 l 803 0 l 656 0 m 328 522 q 530 572 466 522 q 594 727 594 621 q 536 879 594 830 q 357 928 479 928 q 228 918 288 928 l 228 526 q 328 522 285 522 m 190 1126 q 248 1263 197 1216 q 391 1310 300 1310 q 534 1263 482 1310 q 594 1126 587 1216 l 507 1126 q 473 1209 500 1184 q 391 1235 445 1235 q 310 1209 337 1235 q 277 1126 283 1183 l 190 1126 z "},"Ṟ":{"ha":820,"x_min":93,"x_max":803,"o":"m 656 0 l 379 413 q 331 412 349 412 q 228 415 288 412 l 228 0 l 93 0 l 93 1015 q 344 1039 224 1039 q 629 961 535 1039 q 724 728 724 884 q 669 541 724 615 q 509 435 615 467 l 803 0 l 656 0 m 328 522 q 530 572 466 522 q 594 727 594 621 q 536 879 594 830 q 357 928 479 928 q 228 918 288 928 l 228 526 q 328 522 285 522 m 233 -225 l 233 -133 l 642 -133 l 642 -225 l 233 -225 z "},"S":{"ha":652,"x_min":34,"x_max":618,"o":"m 275 -13 q 163 -3 222 -13 q 53 25 103 7 l 53 143 q 275 105 169 105 q 428 147 377 105 q 479 272 479 189 q 463 350 479 318 q 412 405 447 381 q 314 450 376 428 l 259 469 q 92 574 150 506 q 34 751 34 643 q 73 907 34 842 q 190 1006 113 972 q 381 1041 267 1041 q 483 1034 431 1041 q 573 1015 534 1027 l 573 897 q 390 923 488 923 q 173 761 173 923 q 188 686 173 717 q 236 634 202 656 q 328 591 269 611 l 382 572 q 558 464 499 533 q 618 283 618 394 q 578 124 618 190 q 460 22 538 57 q 275 -13 383 -13 z "},"Ś":{"ha":652,"x_min":34,"x_max":618,"o":"m 275 -13 q 163 -3 222 -13 q 53 25 103 7 l 53 143 q 275 105 169 105 q 428 147 377 105 q 479 272 479 189 q 463 350 479 318 q 412 405 447 381 q 314 450 376 428 l 259 469 q 92 574 150 506 q 34 751 34 643 q 73 907 34 842 q 190 1006 113 972 q 381 1041 267 1041 q 483 1034 431 1041 q 573 1015 534 1027 l 573 897 q 390 923 488 923 q 173 761 173 923 q 188 686 173 717 q 236 634 202 656 q 328 591 269 611 l 382 572 q 558 464 499 533 q 618 283 618 394 q 578 124 618 190 q 460 22 538 57 q 275 -13 383 -13 m 273 1114 l 372 1315 l 512 1315 l 391 1114 l 273 1114 z "},"Ṥ":{"ha":652,"x_min":34,"x_max":618,"o":"m 275 -13 q 163 -3 222 -13 q 53 25 103 7 l 53 143 q 275 105 169 105 q 428 147 377 105 q 479 272 479 189 q 463 350 479 318 q 412 405 447 381 q 314 450 376 428 l 259 469 q 92 574 150 506 q 34 751 34 643 q 73 907 34 842 q 190 1006 113 972 q 381 1041 267 1041 q 483 1034 431 1041 q 573 1015 534 1027 l 573 897 q 390 923 488 923 q 173 761 173 923 q 188 686 173 717 q 236 634 202 656 q 328 591 269 611 l 382 572 q 558 464 499 533 q 618 283 618 394 q 578 124 618 190 q 460 22 538 57 q 275 -13 383 -13 m 233 1288 q 176 1305 197 1288 q 155 1353 155 1322 q 176 1402 155 1385 q 233 1419 197 1419 q 290 1402 269 1419 q 310 1353 310 1385 q 290 1304 310 1321 q 233 1288 269 1288 m 273 1114 l 372 1315 l 512 1315 l 391 1114 l 273 1114 z "},"Š":{"ha":652,"x_min":34,"x_max":618,"o":"m 275 -13 q 163 -3 222 -13 q 53 25 103 7 l 53 143 q 275 105 169 105 q 428 147 377 105 q 479 272 479 189 q 463 350 479 318 q 412 405 447 381 q 314 450 376 428 l 259 469 q 92 574 150 506 q 34 751 34 643 q 73 907 34 842 q 190 1006 113 972 q 381 1041 267 1041 q 483 1034 431 1041 q 573 1015 534 1027 l 573 897 q 390 923 488 923 q 173 761 173 923 q 188 686 173 717 q 236 634 202 656 q 328 591 269 611 l 382 572 q 558 464 499 533 q 618 283 618 394 q 578 124 618 190 q 460 22 538 57 q 275 -13 383 -13 m 428 1315 l 528 1315 l 392 1114 l 272 1114 l 137 1315 l 236 1315 l 332 1168 l 428 1315 z "},"Ṧ":{"ha":652,"x_min":34,"x_max":618,"o":"m 275 -13 q 163 -3 222 -13 q 53 25 103 7 l 53 143 q 275 105 169 105 q 428 147 377 105 q 479 272 479 189 q 463 350 479 318 q 412 405 447 381 q 314 450 376 428 l 259 469 q 92 574 150 506 q 34 751 34 643 q 73 907 34 842 q 190 1006 113 972 q 381 1041 267 1041 q 483 1034 431 1041 q 573 1015 534 1027 l 573 897 q 390 923 488 923 q 173 761 173 923 q 188 686 173 717 q 236 634 202 656 q 328 591 269 611 l 382 572 q 558 464 499 533 q 618 283 618 394 q 578 124 618 190 q 460 22 538 57 q 275 -13 383 -13 m 332 1326 q 275 1343 297 1326 q 254 1392 254 1360 q 275 1441 254 1424 q 332 1458 297 1458 q 389 1441 368 1458 q 410 1392 410 1424 q 389 1343 410 1360 q 332 1326 368 1326 m 428 1315 l 528 1315 l 392 1114 l 272 1114 l 137 1315 l 236 1315 l 332 1168 l 428 1315 z "},"Ş":{"ha":652,"x_min":34,"x_max":618,"o":"m 618 283 q 552 88 618 163 q 362 -7 485 13 l 362 -68 q 447 -103 417 -74 q 478 -179 478 -131 q 438 -265 478 -235 q 323 -294 399 -294 q 199 -272 254 -294 l 199 -206 q 317 -231 257 -231 q 377 -218 356 -231 q 398 -175 398 -204 q 315 -118 398 -118 l 288 -118 l 288 -13 l 275 -13 q 163 -3 222 -13 q 53 25 103 7 l 53 143 q 275 105 169 105 q 428 147 377 105 q 479 272 479 189 q 463 350 479 318 q 412 405 447 381 q 314 450 376 428 l 259 469 q 92 574 150 506 q 34 751 34 643 q 73 907 34 842 q 190 1006 113 972 q 381 1041 267 1041 q 483 1034 431 1041 q 573 1015 534 1027 l 573 897 q 390 923 488 923 q 173 761 173 923 q 188 686 173 717 q 236 634 202 656 q 328 591 269 611 l 382 572 q 558 464 499 533 q 618 283 618 394 z "},"Ŝ":{"ha":652,"x_min":34,"x_max":618,"o":"m 275 -13 q 163 -3 222 -13 q 53 25 103 7 l 53 143 q 275 105 169 105 q 428 147 377 105 q 479 272 479 189 q 463 350 479 318 q 412 405 447 381 q 314 450 376 428 l 259 469 q 92 574 150 506 q 34 751 34 643 q 73 907 34 842 q 190 1006 113 972 q 381 1041 267 1041 q 483 1034 431 1041 q 573 1015 534 1027 l 573 897 q 390 923 488 923 q 173 761 173 923 q 188 686 173 717 q 236 634 202 656 q 328 591 269 611 l 382 572 q 558 464 499 533 q 618 283 618 394 q 578 124 618 190 q 460 22 538 57 q 275 -13 383 -13 m 528 1114 l 428 1114 l 332 1261 l 236 1114 l 137 1114 l 272 1315 l 392 1315 l 528 1114 z "},"Ș":{"ha":652,"x_min":34,"x_max":618,"o":"m 275 -13 q 163 -3 222 -13 q 53 25 103 7 l 53 143 q 275 105 169 105 q 428 147 377 105 q 479 272 479 189 q 463 350 479 318 q 412 405 447 381 q 314 450 376 428 l 259 469 q 92 574 150 506 q 34 751 34 643 q 73 907 34 842 q 190 1006 113 972 q 381 1041 267 1041 q 483 1034 431 1041 q 573 1015 534 1027 l 573 897 q 390 923 488 923 q 173 761 173 923 q 188 686 173 717 q 236 634 202 656 q 328 591 269 611 l 382 572 q 558 464 499 533 q 618 283 618 394 q 578 124 618 190 q 460 22 538 57 q 275 -13 383 -13 m 331 -106 q 394 -127 373 -106 q 415 -190 415 -149 q 404 -260 415 -222 q 373 -330 392 -298 l 287 -330 q 319 -231 313 -275 q 267 -212 285 -228 q 249 -168 249 -195 q 269 -122 249 -139 q 331 -106 290 -106 z "},"Ṡ":{"ha":652,"x_min":34,"x_max":618,"o":"m 275 -13 q 163 -3 222 -13 q 53 25 103 7 l 53 143 q 275 105 169 105 q 428 147 377 105 q 479 272 479 189 q 463 350 479 318 q 412 405 447 381 q 314 450 376 428 l 259 469 q 92 574 150 506 q 34 751 34 643 q 73 907 34 842 q 190 1006 113 972 q 381 1041 267 1041 q 483 1034 431 1041 q 573 1015 534 1027 l 573 897 q 390 923 488 923 q 173 761 173 923 q 188 686 173 717 q 236 634 202 656 q 328 591 269 611 l 382 572 q 558 464 499 533 q 618 283 618 394 q 578 124 618 190 q 460 22 538 57 q 275 -13 383 -13 m 332 1140 q 266 1160 290 1140 q 241 1216 241 1180 q 266 1272 241 1252 q 332 1292 290 1292 q 399 1273 374 1292 q 423 1216 423 1253 q 399 1160 423 1180 q 332 1140 374 1140 z "},"Ṣ":{"ha":652,"x_min":34,"x_max":618,"o":"m 275 -13 q 163 -3 222 -13 q 53 25 103 7 l 53 143 q 275 105 169 105 q 428 147 377 105 q 479 272 479 189 q 463 350 479 318 q 412 405 447 381 q 314 450 376 428 l 259 469 q 92 574 150 506 q 34 751 34 643 q 73 907 34 842 q 190 1006 113 972 q 381 1041 267 1041 q 483 1034 431 1041 q 573 1015 534 1027 l 573 897 q 390 923 488 923 q 173 761 173 923 q 188 686 173 717 q 236 634 202 656 q 328 591 269 611 l 382 572 q 558 464 499 533 q 618 283 618 394 q 578 124 618 190 q 460 22 538 57 q 275 -13 383 -13 m 332 -258 q 265 -238 290 -258 q 241 -182 241 -219 q 266 -126 241 -146 q 332 -106 290 -106 q 399 -125 374 -106 q 423 -182 423 -145 q 399 -238 423 -219 q 332 -258 374 -258 z "},"Ṩ":{"ha":652,"x_min":34,"x_max":618,"o":"m 275 -13 q 163 -3 222 -13 q 53 25 103 7 l 53 143 q 275 105 169 105 q 428 147 377 105 q 479 272 479 189 q 463 350 479 318 q 412 405 447 381 q 314 450 376 428 l 259 469 q 92 574 150 506 q 34 751 34 643 q 73 907 34 842 q 190 1006 113 972 q 381 1041 267 1041 q 483 1034 431 1041 q 573 1015 534 1027 l 573 897 q 390 923 488 923 q 173 761 173 923 q 188 686 173 717 q 236 634 202 656 q 328 591 269 611 l 382 572 q 558 464 499 533 q 618 283 618 394 q 578 124 618 190 q 460 22 538 57 q 275 -13 383 -13 m 332 -258 q 265 -238 290 -258 q 241 -182 241 -219 q 266 -126 241 -146 q 332 -106 290 -106 q 399 -125 374 -106 q 423 -182 423 -145 q 399 -238 423 -219 q 332 -258 374 -258 m 332 1140 q 266 1160 290 1140 q 241 1216 241 1180 q 266 1272 241 1252 q 332 1292 290 1292 q 399 1273 374 1292 q 423 1216 423 1253 q 399 1160 423 1180 q 332 1140 374 1140 z "},"ẞ":{"ha":1043,"x_min":93,"x_max":1009,"o":"m 777 572 q 950 464 892 533 q 1009 283 1009 394 q 969 124 1009 190 q 853 22 930 57 q 669 -13 777 -13 q 561 -3 619 -13 q 454 24 503 6 l 454 142 q 669 105 565 105 q 821 147 770 105 q 872 272 872 190 q 856 350 872 318 q 805 406 840 382 q 710 450 770 429 l 657 469 q 493 575 550 506 q 435 751 435 644 q 482 919 435 851 q 428 924 456 924 q 277 868 325 924 q 229 695 229 813 l 229 0 l 93 0 l 93 677 q 175 950 93 859 q 428 1041 258 1041 q 599 1010 528 1041 q 781 1041 675 1041 q 877 1034 828 1041 q 965 1017 927 1028 l 965 898 q 790 923 881 923 q 574 761 574 923 q 588 686 574 717 q 635 633 603 656 q 724 591 667 610 l 777 572 z "},"Ə":{"ha":866,"x_min":49,"x_max":810,"o":"m 349 1041 q 605 986 503 1041 q 758 814 706 932 q 810 508 810 697 q 708 114 810 240 q 429 -13 607 -13 q 149 112 249 -13 q 49 508 49 238 l 49 563 l 671 563 q 628 780 665 701 q 520 892 591 859 q 336 925 449 925 q 217 918 278 925 q 103 895 156 910 l 103 1013 q 349 1041 219 1041 m 430 101 q 558 134 506 101 q 638 244 609 167 q 672 455 667 322 l 191 455 q 223 245 195 322 q 302 134 251 167 q 430 101 352 101 z "},"T":{"ha":738,"x_min":4,"x_max":733,"o":"m 300 0 l 300 905 l 4 905 l 4 1028 l 733 1028 l 733 905 l 437 905 l 437 0 l 300 0 z "},"Ŧ":{"ha":738,"x_min":4,"x_max":733,"o":"m 733 905 l 437 905 l 437 576 l 629 576 l 629 479 l 437 479 l 437 0 l 300 0 l 300 479 l 109 479 l 109 576 l 300 576 l 300 905 l 4 905 l 4 1028 l 733 1028 l 733 905 z "},"Ť":{"ha":738,"x_min":4,"x_max":733,"o":"m 300 0 l 300 905 l 4 905 l 4 1028 l 733 1028 l 733 905 l 437 905 l 437 0 l 300 0 m 465 1315 l 565 1315 l 429 1114 l 308 1114 l 174 1315 l 273 1315 l 369 1168 l 465 1315 z "},"Ţ":{"ha":738,"x_min":4,"x_max":733,"o":"m 399 0 l 399 -68 q 484 -103 453 -74 q 515 -179 515 -131 q 475 -265 515 -235 q 360 -294 435 -294 q 235 -272 291 -294 l 235 -206 q 353 -231 294 -231 q 414 -218 393 -231 q 435 -175 435 -204 q 351 -118 435 -118 l 324 -118 l 324 0 l 300 0 l 300 905 l 4 905 l 4 1028 l 733 1028 l 733 905 l 437 905 l 437 0 l 399 0 z "},"Ț":{"ha":738,"x_min":4,"x_max":733,"o":"m 300 0 l 300 905 l 4 905 l 4 1028 l 733 1028 l 733 905 l 437 905 l 437 0 l 300 0 m 367 -106 q 431 -127 410 -106 q 452 -190 452 -149 q 441 -260 452 -222 q 410 -330 429 -298 l 324 -330 q 356 -231 349 -275 q 303 -212 322 -228 q 285 -168 285 -195 q 306 -122 285 -139 q 367 -106 327 -106 z "},"Ṭ":{"ha":738,"x_min":4,"x_max":733,"o":"m 300 0 l 300 905 l 4 905 l 4 1028 l 733 1028 l 733 905 l 437 905 l 437 0 l 300 0 m 369 -258 q 302 -238 326 -258 q 278 -182 278 -219 q 302 -126 278 -146 q 369 -106 327 -106 q 435 -125 411 -106 q 460 -182 460 -145 q 435 -238 460 -219 q 369 -258 411 -258 z "},"Ṯ":{"ha":738,"x_min":4,"x_max":733,"o":"m 300 0 l 300 905 l 4 905 l 4 1028 l 733 1028 l 733 905 l 437 905 l 437 0 l 300 0 m 165 -225 l 165 -133 l 573 -133 l 573 -225 l 165 -225 z "},"U":{"ha":870,"x_min":88,"x_max":783,"o":"m 437 -13 q 240 27 317 -13 q 126 153 163 68 q 88 372 88 238 l 88 1028 l 224 1028 l 224 356 q 275 165 224 225 q 437 105 326 105 q 598 165 547 105 q 649 356 649 225 l 649 1028 l 783 1028 l 783 372 q 746 153 783 238 q 633 27 709 68 q 437 -13 556 -13 z "},"Ú":{"ha":870,"x_min":88,"x_max":783,"o":"m 437 -13 q 240 27 317 -13 q 126 153 163 68 q 88 372 88 238 l 88 1028 l 224 1028 l 224 356 q 275 165 224 225 q 437 105 326 105 q 598 165 547 105 q 649 356 649 225 l 649 1028 l 783 1028 l 783 372 q 746 153 783 238 q 633 27 709 68 q 437 -13 556 -13 m 378 1114 l 476 1315 l 617 1315 l 496 1114 l 378 1114 z "},"Ŭ":{"ha":870,"x_min":88,"x_max":783,"o":"m 437 -13 q 240 27 317 -13 q 126 153 163 68 q 88 372 88 238 l 88 1028 l 224 1028 l 224 356 q 275 165 224 225 q 437 105 326 105 q 598 165 547 105 q 649 356 649 225 l 649 1028 l 783 1028 l 783 372 q 746 153 783 238 q 633 27 709 68 q 437 -13 556 -13 m 438 1119 q 294 1166 347 1119 q 235 1303 242 1213 l 322 1303 q 356 1220 329 1245 q 438 1194 383 1194 q 519 1220 492 1194 q 552 1303 547 1246 l 639 1303 q 580 1166 632 1213 q 438 1119 528 1119 z "},"Û":{"ha":870,"x_min":88,"x_max":783,"o":"m 437 -13 q 240 27 317 -13 q 126 153 163 68 q 88 372 88 238 l 88 1028 l 224 1028 l 224 356 q 275 165 224 225 q 437 105 326 105 q 598 165 547 105 q 649 356 649 225 l 649 1028 l 783 1028 l 783 372 q 746 153 783 238 q 633 27 709 68 q 437 -13 556 -13 m 633 1114 l 533 1114 l 437 1261 l 341 1114 l 242 1114 l 376 1315 l 497 1315 l 633 1114 z "},"Ȕ":{"ha":870,"x_min":88,"x_max":783,"o":"m 437 -13 q 240 27 317 -13 q 126 153 163 68 q 88 372 88 238 l 88 1028 l 224 1028 l 224 356 q 275 165 224 225 q 437 105 326 105 q 598 165 547 105 q 649 356 649 225 l 649 1028 l 783 1028 l 783 372 q 746 153 783 238 q 633 27 709 68 q 437 -13 556 -13 m 272 1114 l 194 1315 l 307 1315 l 376 1114 l 272 1114 m 498 1114 l 420 1315 l 533 1315 l 601 1114 l 498 1114 z "},"Ü":{"ha":870,"x_min":88,"x_max":783,"o":"m 437 -13 q 240 27 317 -13 q 126 153 163 68 q 88 372 88 238 l 88 1028 l 224 1028 l 224 356 q 275 165 224 225 q 437 105 326 105 q 598 165 547 105 q 649 356 649 225 l 649 1028 l 783 1028 l 783 372 q 746 153 783 238 q 633 27 709 68 q 437 -13 556 -13 m 293 1140 q 232 1160 254 1140 q 210 1216 210 1180 q 232 1272 210 1252 q 293 1292 254 1292 q 354 1272 332 1292 q 376 1216 376 1252 q 354 1160 376 1180 q 293 1140 332 1140 m 581 1140 q 520 1160 542 1140 q 498 1216 498 1181 q 520 1272 498 1252 q 581 1292 542 1292 q 642 1272 620 1292 q 665 1216 665 1252 q 642 1160 665 1181 q 581 1140 620 1140 z "},"Ụ":{"ha":870,"x_min":88,"x_max":783,"o":"m 437 -13 q 240 27 317 -13 q 126 153 163 68 q 88 372 88 238 l 88 1028 l 224 1028 l 224 356 q 275 165 224 225 q 437 105 326 105 q 598 165 547 105 q 649 356 649 225 l 649 1028 l 783 1028 l 783 372 q 746 153 783 238 q 633 27 709 68 q 437 -13 556 -13 m 437 -258 q 370 -238 394 -258 q 346 -182 346 -219 q 370 -126 346 -146 q 437 -106 395 -106 q 503 -125 479 -106 q 528 -182 528 -145 q 503 -238 528 -219 q 437 -258 479 -258 z "},"Ù":{"ha":870,"x_min":88,"x_max":783,"o":"m 437 -13 q 240 27 317 -13 q 126 153 163 68 q 88 372 88 238 l 88 1028 l 224 1028 l 224 356 q 275 165 224 225 q 437 105 326 105 q 598 165 547 105 q 649 356 649 225 l 649 1028 l 783 1028 l 783 372 q 746 153 783 238 q 633 27 709 68 q 437 -13 556 -13 m 378 1114 l 258 1315 l 398 1315 l 496 1114 l 378 1114 z "},"Ủ":{"ha":870,"x_min":88,"x_max":783,"o":"m 437 -13 q 240 27 317 -13 q 126 153 163 68 q 88 372 88 238 l 88 1028 l 224 1028 l 224 356 q 275 165 224 225 q 437 105 326 105 q 598 165 547 105 q 649 356 649 225 l 649 1028 l 783 1028 l 783 372 q 746 153 783 238 q 633 27 709 68 q 437 -13 556 -13 m 399 1114 q 418 1161 401 1145 q 465 1193 435 1178 q 493 1210 484 1202 q 503 1228 503 1217 q 486 1252 503 1244 q 430 1260 469 1260 q 368 1254 400 1260 q 307 1238 335 1249 l 307 1301 q 369 1317 332 1311 q 440 1323 406 1323 q 549 1301 513 1323 q 585 1239 585 1279 q 570 1198 585 1213 q 527 1167 556 1183 q 491 1143 503 1154 q 476 1114 478 1132 l 399 1114 z "},"Ư":{"ha":873,"x_min":88,"x_max":916,"o":"m 437 -13 q 240 27 317 -13 q 126 153 163 68 q 88 372 88 238 l 88 1028 l 224 1028 l 224 356 q 275 165 224 225 q 437 105 326 105 q 598 165 547 105 q 649 356 649 225 l 649 1028 l 699 1028 q 784 1053 753 1028 q 815 1135 815 1079 q 800 1233 815 1179 l 901 1233 q 913 1184 909 1208 q 916 1128 916 1160 q 880 1014 916 1056 q 783 961 844 972 l 783 372 q 746 153 783 238 q 633 27 709 68 q 437 -13 556 -13 z "},"Ứ":{"ha":873,"x_min":88,"x_max":916,"o":"m 437 -13 q 240 27 317 -13 q 126 153 163 68 q 88 372 88 238 l 88 1028 l 224 1028 l 224 356 q 275 165 224 225 q 437 105 326 105 q 598 165 547 105 q 649 356 649 225 l 649 1028 l 699 1028 q 784 1053 753 1028 q 815 1135 815 1079 q 800 1233 815 1179 l 901 1233 q 913 1184 909 1208 q 916 1128 916 1160 q 880 1014 916 1056 q 783 961 844 972 l 783 372 q 746 153 783 238 q 633 27 709 68 q 437 -13 556 -13 m 377 1114 l 476 1315 l 616 1315 l 495 1114 l 377 1114 z "},"Ự":{"ha":873,"x_min":88,"x_max":916,"o":"m 437 -13 q 240 27 317 -13 q 126 153 163 68 q 88 372 88 238 l 88 1028 l 224 1028 l 224 356 q 275 165 224 225 q 437 105 326 105 q 598 165 547 105 q 649 356 649 225 l 649 1028 l 699 1028 q 784 1053 753 1028 q 815 1135 815 1079 q 800 1233 815 1179 l 901 1233 q 913 1184 909 1208 q 916 1128 916 1160 q 880 1014 916 1056 q 783 961 844 972 l 783 372 q 746 153 783 238 q 633 27 709 68 q 437 -13 556 -13 m 436 -258 q 369 -238 394 -258 q 345 -182 345 -219 q 370 -126 345 -146 q 436 -106 394 -106 q 503 -125 478 -106 q 527 -182 527 -145 q 503 -238 527 -219 q 436 -258 478 -258 z "},"Ừ":{"ha":873,"x_min":88,"x_max":916,"o":"m 437 -13 q 240 27 317 -13 q 126 153 163 68 q 88 372 88 238 l 88 1028 l 224 1028 l 224 356 q 275 165 224 225 q 437 105 326 105 q 598 165 547 105 q 649 356 649 225 l 649 1028 l 699 1028 q 784 1053 753 1028 q 815 1135 815 1079 q 800 1233 815 1179 l 901 1233 q 913 1184 909 1208 q 916 1128 916 1160 q 880 1014 916 1056 q 783 961 844 972 l 783 372 q 746 153 783 238 q 633 27 709 68 q 437 -13 556 -13 m 377 1114 l 257 1315 l 397 1315 l 495 1114 l 377 1114 z "},"Ử":{"ha":873,"x_min":88,"x_max":916,"o":"m 437 -13 q 240 27 317 -13 q 126 153 163 68 q 88 372 88 238 l 88 1028 l 224 1028 l 224 356 q 275 165 224 225 q 437 105 326 105 q 598 165 547 105 q 649 356 649 225 l 649 1028 l 699 1028 q 784 1053 753 1028 q 815 1135 815 1079 q 800 1233 815 1179 l 901 1233 q 913 1184 909 1208 q 916 1128 916 1160 q 880 1014 916 1056 q 783 961 844 972 l 783 372 q 746 153 783 238 q 633 27 709 68 q 437 -13 556 -13 m 398 1114 q 417 1161 400 1145 q 465 1193 434 1178 q 493 1210 483 1202 q 502 1228 502 1217 q 485 1252 502 1244 q 429 1260 469 1260 q 367 1254 399 1260 q 306 1238 335 1249 l 306 1301 q 368 1317 331 1311 q 439 1323 406 1323 q 548 1301 512 1323 q 584 1239 584 1279 q 570 1198 584 1213 q 526 1167 556 1183 q 490 1143 503 1154 q 475 1114 477 1132 l 398 1114 z "},"Ữ":{"ha":873,"x_min":88,"x_max":916,"o":"m 437 -13 q 240 27 317 -13 q 126 153 163 68 q 88 372 88 238 l 88 1028 l 224 1028 l 224 356 q 275 165 224 225 q 437 105 326 105 q 598 165 547 105 q 649 356 649 225 l 649 1028 l 699 1028 q 784 1053 753 1028 q 815 1135 815 1079 q 800 1233 815 1179 l 901 1233 q 913 1184 909 1208 q 916 1128 916 1160 q 880 1014 916 1056 q 783 961 844 972 l 783 372 q 746 153 783 238 q 633 27 709 68 q 437 -13 556 -13 m 537 1147 q 485 1155 509 1147 q 426 1176 462 1162 q 376 1196 396 1190 q 335 1202 356 1202 q 275 1190 301 1202 q 223 1151 249 1178 l 223 1243 q 272 1279 244 1267 q 336 1291 299 1291 q 388 1283 364 1291 q 447 1261 413 1276 q 497 1242 478 1248 q 538 1235 517 1235 q 598 1248 572 1235 q 649 1287 624 1260 l 649 1194 q 537 1147 608 1147 z "},"Ű":{"ha":870,"x_min":88,"x_max":783,"o":"m 437 -13 q 240 27 317 -13 q 126 153 163 68 q 88 372 88 238 l 88 1028 l 224 1028 l 224 356 q 275 165 224 225 q 437 105 326 105 q 598 165 547 105 q 649 356 649 225 l 649 1028 l 783 1028 l 783 372 q 746 153 783 238 q 633 27 709 68 q 437 -13 556 -13 m 272 1114 l 342 1315 l 454 1315 l 376 1114 l 272 1114 m 498 1114 l 567 1315 l 679 1315 l 601 1114 l 498 1114 z "},"Ȗ":{"ha":870,"x_min":88,"x_max":783,"o":"m 437 -13 q 240 27 317 -13 q 126 153 163 68 q 88 372 88 238 l 88 1028 l 224 1028 l 224 356 q 275 165 224 225 q 437 105 326 105 q 598 165 547 105 q 649 356 649 225 l 649 1028 l 783 1028 l 783 372 q 746 153 783 238 q 633 27 709 68 q 437 -13 556 -13 m 235 1126 q 293 1263 242 1216 q 436 1310 345 1310 q 580 1263 527 1310 q 639 1126 632 1216 l 552 1126 q 518 1209 545 1184 q 436 1235 490 1235 q 355 1209 382 1235 q 322 1126 328 1183 l 235 1126 z "},"Ū":{"ha":870,"x_min":88,"x_max":783,"o":"m 437 -13 q 240 27 317 -13 q 126 153 163 68 q 88 372 88 238 l 88 1028 l 224 1028 l 224 356 q 275 165 224 225 q 437 105 326 105 q 598 165 547 105 q 649 356 649 225 l 649 1028 l 783 1028 l 783 372 q 746 153 783 238 q 633 27 709 68 q 437 -13 556 -13 m 233 1169 l 233 1261 l 641 1261 l 641 1169 l 233 1169 z "},"Ṻ":{"ha":870,"x_min":88,"x_max":783,"o":"m 437 -13 q 240 27 317 -13 q 126 153 163 68 q 88 372 88 238 l 88 1028 l 224 1028 l 224 356 q 275 165 224 225 q 437 105 326 105 q 598 165 547 105 q 649 356 649 225 l 649 1028 l 783 1028 l 783 372 q 746 153 783 238 q 633 27 709 68 q 437 -13 556 -13 m 233 1169 l 233 1261 l 641 1261 l 641 1169 l 233 1169 m 293 1363 q 232 1382 254 1363 q 210 1438 210 1402 q 232 1494 210 1474 q 293 1515 254 1515 q 354 1494 332 1515 q 376 1438 376 1474 q 354 1382 376 1402 q 293 1363 332 1363 m 581 1363 q 520 1383 542 1363 q 498 1438 498 1403 q 520 1494 498 1474 q 581 1515 542 1515 q 642 1494 620 1515 q 665 1438 665 1474 q 642 1383 665 1403 q 581 1363 620 1363 z "},"Ų":{"ha":870,"x_min":88,"x_max":783,"o":"m 783 1028 l 783 372 q 736 134 783 224 q 588 8 690 43 q 452 -67 489 -26 q 415 -155 415 -108 q 438 -211 415 -192 q 508 -230 460 -230 q 606 -206 552 -230 l 606 -270 q 495 -294 552 -294 q 373 -260 415 -294 q 331 -162 331 -226 q 353 -82 331 -119 q 422 -13 374 -44 q 233 31 306 -10 q 124 157 160 73 q 88 372 88 241 l 88 1028 l 224 1028 l 224 356 q 275 165 224 225 q 437 105 326 105 q 598 165 547 105 q 649 356 649 225 l 649 1028 l 783 1028 z "},"Ů":{"ha":870,"x_min":88,"x_max":783,"o":"m 437 -13 q 240 27 317 -13 q 126 153 163 68 q 88 372 88 238 l 88 1028 l 224 1028 l 224 356 q 275 165 224 225 q 437 105 326 105 q 598 165 547 105 q 649 356 649 225 l 649 1028 l 783 1028 l 783 372 q 746 153 783 238 q 633 27 709 68 q 437 -13 556 -13 m 437 1107 q 365 1125 397 1107 q 315 1174 333 1142 q 297 1244 297 1206 q 315 1316 297 1284 q 365 1365 333 1347 q 437 1383 397 1383 q 509 1365 477 1383 q 559 1316 541 1347 q 577 1244 577 1284 q 559 1174 577 1206 q 509 1125 541 1142 q 437 1107 477 1107 m 437 1167 q 492 1188 471 1167 q 513 1244 513 1209 q 492 1302 513 1281 q 437 1323 471 1323 q 382 1302 403 1323 q 361 1244 361 1281 q 382 1188 361 1209 q 437 1167 403 1167 z "},"Ũ":{"ha":870,"x_min":88,"x_max":783,"o":"m 437 -13 q 240 27 317 -13 q 126 153 163 68 q 88 372 88 238 l 88 1028 l 224 1028 l 224 356 q 275 165 224 225 q 437 105 326 105 q 598 165 547 105 q 649 356 649 225 l 649 1028 l 783 1028 l 783 372 q 746 153 783 238 q 633 27 709 68 q 437 -13 556 -13 m 538 1147 q 486 1155 510 1147 q 426 1176 463 1162 q 376 1196 397 1190 q 335 1202 356 1202 q 276 1190 301 1202 q 224 1151 250 1178 l 224 1243 q 273 1279 245 1267 q 337 1291 300 1291 q 389 1283 365 1291 q 448 1261 413 1276 q 498 1242 478 1248 q 538 1235 517 1235 q 598 1248 572 1235 q 650 1287 624 1260 l 650 1194 q 538 1147 608 1147 z "},"Ṹ":{"ha":870,"x_min":88,"x_max":783,"o":"m 437 -13 q 240 27 317 -13 q 126 153 163 68 q 88 372 88 238 l 88 1028 l 224 1028 l 224 356 q 275 165 224 225 q 437 105 326 105 q 598 165 547 105 q 649 356 649 225 l 649 1028 l 783 1028 l 783 372 q 746 153 783 238 q 633 27 709 68 q 437 -13 556 -13 m 373 1336 l 472 1497 l 622 1497 l 501 1336 l 373 1336 m 538 1147 q 486 1155 510 1147 q 426 1176 463 1162 q 376 1196 397 1190 q 335 1202 356 1202 q 276 1190 301 1202 q 224 1151 250 1178 l 224 1243 q 273 1279 245 1267 q 337 1291 300 1291 q 389 1283 365 1291 q 448 1261 413 1276 q 498 1242 478 1248 q 538 1235 517 1235 q 598 1248 572 1235 q 650 1287 624 1260 l 650 1194 q 538 1147 608 1147 z "},"V":{"ha":813,"x_min":-1,"x_max":813,"o":"m 681 1028 l 813 1028 l 508 0 l 304 0 l -1 1028 l 141 1028 l 410 106 l 681 1028 z "},"W":{"ha":1301,"x_min":24,"x_max":1276,"o":"m 1147 1028 l 1276 1028 l 1034 0 l 855 0 l 654 860 l 446 0 l 267 0 l 24 1028 l 163 1028 l 366 136 l 576 1028 l 733 1028 l 940 131 l 1147 1028 z "},"Ẃ":{"ha":1301,"x_min":24,"x_max":1276,"o":"m 1147 1028 l 1276 1028 l 1034 0 l 855 0 l 654 860 l 446 0 l 267 0 l 24 1028 l 163 1028 l 366 136 l 576 1028 l 733 1028 l 940 131 l 1147 1028 m 592 1114 l 691 1315 l 831 1315 l 710 1114 l 592 1114 z "},"Ŵ":{"ha":1301,"x_min":24,"x_max":1276,"o":"m 1147 1028 l 1276 1028 l 1034 0 l 855 0 l 654 860 l 446 0 l 267 0 l 24 1028 l 163 1028 l 366 136 l 576 1028 l 733 1028 l 940 131 l 1147 1028 m 847 1114 l 747 1114 l 651 1261 l 556 1114 l 456 1114 l 591 1315 l 712 1315 l 847 1114 z "},"Ẅ":{"ha":1301,"x_min":24,"x_max":1276,"o":"m 1147 1028 l 1276 1028 l 1034 0 l 855 0 l 654 860 l 446 0 l 267 0 l 24 1028 l 163 1028 l 366 136 l 576 1028 l 733 1028 l 940 131 l 1147 1028 m 508 1140 q 447 1160 469 1140 q 424 1216 424 1180 q 447 1272 424 1252 q 508 1292 469 1292 q 568 1272 547 1292 q 590 1216 590 1252 q 568 1160 590 1180 q 508 1140 547 1140 m 796 1140 q 735 1160 757 1140 q 713 1216 713 1181 q 735 1272 713 1252 q 796 1292 757 1292 q 857 1272 835 1292 q 879 1216 879 1252 q 857 1160 879 1181 q 796 1140 835 1140 z "},"Ẁ":{"ha":1301,"x_min":24,"x_max":1276,"o":"m 1147 1028 l 1276 1028 l 1034 0 l 855 0 l 654 860 l 446 0 l 267 0 l 24 1028 l 163 1028 l 366 136 l 576 1028 l 733 1028 l 940 131 l 1147 1028 m 592 1114 l 472 1315 l 613 1315 l 710 1114 l 592 1114 z "},"X":{"ha":806,"x_min":-1,"x_max":804,"o":"m 482 528 l 804 0 l 653 0 l 403 415 l 151 0 l -1 0 l 324 527 l 16 1028 l 167 1028 l 403 641 l 638 1028 l 788 1028 l 482 528 z "},"Y":{"ha":738,"x_min":-29,"x_max":761,"o":"m 761 1028 l 437 451 l 437 0 l 301 0 l 301 450 l -29 1028 l 117 1028 l 372 578 l 626 1028 l 761 1028 z "},"Ý":{"ha":738,"x_min":-29,"x_max":761,"o":"m 761 1028 l 437 451 l 437 0 l 301 0 l 301 450 l -29 1028 l 117 1028 l 372 578 l 626 1028 l 761 1028 m 310 1114 l 409 1315 l 549 1315 l 428 1114 l 310 1114 z "},"Ŷ":{"ha":738,"x_min":-29,"x_max":761,"o":"m 761 1028 l 437 451 l 437 0 l 301 0 l 301 450 l -29 1028 l 117 1028 l 372 578 l 626 1028 l 761 1028 m 565 1114 l 465 1114 l 369 1261 l 274 1114 l 174 1114 l 309 1315 l 430 1315 l 565 1114 z "},"Ÿ":{"ha":738,"x_min":-29,"x_max":761,"o":"m 761 1028 l 437 451 l 437 0 l 301 0 l 301 450 l -29 1028 l 117 1028 l 372 578 l 626 1028 l 761 1028 m 226 1140 q 165 1160 187 1140 q 142 1216 142 1180 q 165 1272 142 1252 q 226 1292 187 1292 q 286 1272 265 1292 q 308 1216 308 1252 q 286 1160 308 1180 q 226 1140 265 1140 m 514 1140 q 453 1160 475 1140 q 431 1216 431 1181 q 453 1272 431 1252 q 514 1292 475 1292 q 575 1272 553 1292 q 597 1216 597 1252 q 575 1160 597 1181 q 514 1140 553 1140 z "},"Ẏ":{"ha":738,"x_min":-29,"x_max":761,"o":"m 761 1028 l 437 451 l 437 0 l 301 0 l 301 450 l -29 1028 l 117 1028 l 372 578 l 626 1028 l 761 1028 m 369 1140 q 303 1160 328 1140 q 278 1216 278 1180 q 303 1272 278 1252 q 369 1292 328 1292 q 436 1273 412 1292 q 460 1216 460 1253 q 436 1160 460 1180 q 369 1140 412 1140 z "},"Ỵ":{"ha":738,"x_min":-29,"x_max":761,"o":"m 761 1028 l 437 451 l 437 0 l 301 0 l 301 450 l -29 1028 l 117 1028 l 372 578 l 626 1028 l 761 1028 m 369 -258 q 302 -238 326 -258 q 278 -182 278 -219 q 302 -126 278 -146 q 369 -106 327 -106 q 435 -125 411 -106 q 460 -182 460 -145 q 435 -238 460 -219 q 369 -258 411 -258 z "},"Ỳ":{"ha":738,"x_min":-29,"x_max":761,"o":"m 761 1028 l 437 451 l 437 0 l 301 0 l 301 450 l -29 1028 l 117 1028 l 372 578 l 626 1028 l 761 1028 m 310 1114 l 190 1315 l 331 1315 l 428 1114 l 310 1114 z "},"Ỷ":{"ha":738,"x_min":-29,"x_max":761,"o":"m 761 1028 l 437 451 l 437 0 l 301 0 l 301 450 l -29 1028 l 117 1028 l 372 578 l 626 1028 l 761 1028 m 331 1114 q 350 1161 333 1145 q 398 1193 367 1178 q 426 1210 417 1202 q 435 1228 435 1217 q 419 1252 435 1244 q 363 1260 402 1260 q 300 1254 333 1260 q 240 1238 268 1249 l 240 1301 q 302 1317 265 1311 q 372 1323 339 1323 q 481 1301 445 1323 q 517 1239 517 1279 q 503 1198 517 1213 q 460 1167 489 1183 q 423 1143 436 1154 q 408 1114 410 1132 l 331 1114 z "},"Ȳ":{"ha":738,"x_min":-29,"x_max":761,"o":"m 761 1028 l 437 451 l 437 0 l 301 0 l 301 450 l -29 1028 l 117 1028 l 372 578 l 626 1028 l 761 1028 m 165 1169 l 165 1261 l 574 1261 l 574 1169 l 165 1169 z "},"Ỹ":{"ha":738,"x_min":-29,"x_max":761,"o":"m 761 1028 l 437 451 l 437 0 l 301 0 l 301 450 l -29 1028 l 117 1028 l 372 578 l 626 1028 l 761 1028 m 470 1147 q 419 1155 442 1147 q 359 1176 395 1162 q 309 1196 329 1190 q 268 1202 289 1202 q 208 1190 234 1202 q 156 1151 183 1178 l 156 1243 q 205 1279 178 1267 q 269 1291 233 1291 q 322 1283 297 1291 q 381 1261 346 1276 q 431 1242 411 1248 q 471 1235 450 1235 q 531 1248 505 1235 q 583 1287 557 1260 l 583 1194 q 470 1147 541 1147 z "},"Z":{"ha":704,"x_min":32,"x_max":672,"o":"m 208 122 l 672 122 l 672 0 l 32 0 l 32 77 l 489 906 l 39 906 l 39 1028 l 665 1028 l 665 951 l 208 122 z "},"Ź":{"ha":704,"x_min":32,"x_max":672,"o":"m 208 122 l 672 122 l 672 0 l 32 0 l 32 77 l 489 906 l 39 906 l 39 1028 l 665 1028 l 665 951 l 208 122 m 294 1114 l 392 1315 l 533 1315 l 412 1114 l 294 1114 z "},"Ž":{"ha":704,"x_min":32,"x_max":672,"o":"m 208 122 l 672 122 l 672 0 l 32 0 l 32 77 l 489 906 l 39 906 l 39 1028 l 665 1028 l 665 951 l 208 122 m 449 1315 l 549 1315 l 413 1114 l 292 1114 l 158 1315 l 257 1315 l 353 1168 l 449 1315 z "},"Ż":{"ha":704,"x_min":32,"x_max":672,"o":"m 208 122 l 672 122 l 672 0 l 32 0 l 32 77 l 489 906 l 39 906 l 39 1028 l 665 1028 l 665 951 l 208 122 m 353 1140 q 286 1160 311 1140 q 262 1216 262 1180 q 286 1272 262 1252 q 353 1292 311 1292 q 419 1273 395 1292 q 444 1216 444 1253 q 419 1160 444 1180 q 353 1140 395 1140 z "},"Ẓ":{"ha":704,"x_min":32,"x_max":672,"o":"m 208 122 l 672 122 l 672 0 l 32 0 l 32 77 l 489 906 l 39 906 l 39 1028 l 665 1028 l 665 951 l 208 122 m 351 -258 q 284 -238 308 -258 q 260 -182 260 -219 q 284 -126 260 -146 q 351 -106 309 -106 q 417 -125 393 -106 q 442 -182 442 -145 q 417 -238 442 -219 q 351 -258 393 -258 z "},"a":{"ha":635,"x_min":42,"x_max":558,"o":"m 288 767 q 440 741 381 767 q 529 655 499 715 q 558 494 558 595 l 558 0 l 447 0 l 437 82 l 429 82 q 353 11 400 34 q 248 -12 307 -12 q 140 12 187 -12 q 68 84 94 37 q 42 196 42 131 q 105 357 42 300 q 300 426 167 415 l 426 439 l 426 500 q 409 593 426 560 q 358 641 392 627 q 265 656 323 656 q 180 648 226 656 q 89 626 133 640 l 89 738 q 185 760 131 752 q 288 767 239 767 m 290 92 q 364 111 328 92 q 426 172 399 129 l 426 351 l 313 340 q 210 301 243 333 q 176 211 176 269 q 206 122 176 151 q 290 92 235 92 z "},"á":{"ha":635,"x_min":42,"x_max":558,"o":"m 288 767 q 440 741 381 767 q 529 655 499 715 q 558 494 558 595 l 558 0 l 447 0 l 437 82 l 429 82 q 353 11 400 34 q 248 -12 307 -12 q 140 12 187 -12 q 68 84 94 37 q 42 196 42 131 q 105 357 42 300 q 300 426 167 415 l 426 439 l 426 500 q 409 593 426 560 q 358 641 392 627 q 265 656 323 656 q 180 648 226 656 q 89 626 133 640 l 89 738 q 185 760 131 752 q 288 767 239 767 m 290 92 q 364 111 328 92 q 426 172 399 129 l 426 351 l 313 340 q 210 301 243 333 q 176 211 176 269 q 206 122 176 151 q 290 92 235 92 m 256 866 l 376 1122 l 513 1122 l 372 866 l 256 866 z "},"ă":{"ha":635,"x_min":42,"x_max":558,"o":"m 288 767 q 440 741 381 767 q 529 655 499 715 q 558 494 558 595 l 558 0 l 447 0 l 437 82 l 429 82 q 353 11 400 34 q 248 -12 307 -12 q 140 12 187 -12 q 68 84 94 37 q 42 196 42 131 q 105 357 42 300 q 300 426 167 415 l 426 439 l 426 500 q 409 593 426 560 q 358 641 392 627 q 265 656 323 656 q 180 648 226 656 q 89 626 133 640 l 89 738 q 185 760 131 752 q 288 767 239 767 m 290 92 q 364 111 328 92 q 426 172 399 129 l 426 351 l 313 340 q 210 301 243 333 q 176 211 176 269 q 206 122 176 151 q 290 92 235 92 m 315 874 q 179 932 230 874 q 124 1105 128 989 l 211 1105 q 241 988 215 1024 q 315 951 267 951 q 389 988 363 951 q 417 1105 415 1024 l 505 1105 q 450 931 500 988 q 315 874 400 874 z "},"ắ":{"ha":635,"x_min":42,"x_max":558,"o":"m 288 767 q 440 741 381 767 q 529 655 499 715 q 558 494 558 595 l 558 0 l 447 0 l 437 82 l 429 82 q 353 11 400 34 q 248 -12 307 -12 q 140 12 187 -12 q 68 84 94 37 q 42 196 42 131 q 105 357 42 300 q 300 426 167 415 l 426 439 l 426 500 q 409 593 426 560 q 358 641 392 627 q 265 656 323 656 q 180 648 226 656 q 89 626 133 640 l 89 738 q 185 760 131 752 q 288 767 239 767 m 290 92 q 364 111 328 92 q 426 172 399 129 l 426 351 l 313 340 q 210 301 243 333 q 176 211 176 269 q 206 122 176 151 q 290 92 235 92 m 267 1109 l 365 1297 l 482 1297 l 362 1109 l 267 1109 m 315 874 q 177 930 228 874 q 120 1092 126 985 l 208 1092 q 240 982 213 1016 q 315 949 266 949 q 390 982 364 949 q 421 1092 416 1016 l 508 1092 q 452 929 502 984 q 315 874 401 874 z "},"ặ":{"ha":635,"x_min":42,"x_max":558,"o":"m 288 767 q 440 741 381 767 q 529 655 499 715 q 558 494 558 595 l 558 0 l 447 0 l 437 82 l 429 82 q 353 11 400 34 q 248 -12 307 -12 q 140 12 187 -12 q 68 84 94 37 q 42 196 42 131 q 105 357 42 300 q 300 426 167 415 l 426 439 l 426 500 q 409 593 426 560 q 358 641 392 627 q 265 656 323 656 q 180 648 226 656 q 89 626 133 640 l 89 738 q 185 760 131 752 q 288 767 239 767 m 290 92 q 364 111 328 92 q 426 172 399 129 l 426 351 l 313 340 q 210 301 243 333 q 176 211 176 269 q 206 122 176 151 q 290 92 235 92 m 316 -267 q 256 -246 278 -267 q 234 -187 234 -224 q 256 -127 234 -149 q 316 -106 278 -106 q 376 -127 353 -106 q 399 -187 399 -149 q 376 -246 399 -224 q 316 -267 353 -267 m 315 874 q 179 932 230 874 q 124 1105 128 989 l 211 1105 q 241 988 215 1024 q 315 951 267 951 q 389 988 363 951 q 417 1105 415 1024 l 505 1105 q 450 931 500 988 q 315 874 400 874 z "},"ằ":{"ha":635,"x_min":42,"x_max":558,"o":"m 288 767 q 440 741 381 767 q 529 655 499 715 q 558 494 558 595 l 558 0 l 447 0 l 437 82 l 429 82 q 353 11 400 34 q 248 -12 307 -12 q 140 12 187 -12 q 68 84 94 37 q 42 196 42 131 q 105 357 42 300 q 300 426 167 415 l 426 439 l 426 500 q 409 593 426 560 q 358 641 392 627 q 265 656 323 656 q 180 648 226 656 q 89 626 133 640 l 89 738 q 185 760 131 752 q 288 767 239 767 m 290 92 q 364 111 328 92 q 426 172 399 129 l 426 351 l 313 340 q 210 301 243 333 q 176 211 176 269 q 206 122 176 151 q 290 92 235 92 m 267 1109 l 147 1297 l 263 1297 l 362 1109 l 267 1109 m 315 874 q 177 930 228 874 q 120 1092 126 985 l 208 1092 q 240 982 213 1016 q 315 949 266 949 q 390 982 364 949 q 421 1092 416 1016 l 508 1092 q 452 929 502 984 q 315 874 401 874 z "},"ẳ":{"ha":635,"x_min":42,"x_max":558,"o":"m 288 767 q 440 741 381 767 q 529 655 499 715 q 558 494 558 595 l 558 0 l 447 0 l 437 82 l 429 82 q 353 11 400 34 q 248 -12 307 -12 q 140 12 187 -12 q 68 84 94 37 q 42 196 42 131 q 105 357 42 300 q 300 426 167 415 l 426 439 l 426 500 q 409 593 426 560 q 358 641 392 627 q 265 656 323 656 q 180 648 226 656 q 89 626 133 640 l 89 738 q 185 760 131 752 q 288 767 239 767 m 290 92 q 364 111 328 92 q 426 172 399 129 l 426 351 l 313 340 q 210 301 243 333 q 176 211 176 269 q 206 122 176 151 q 290 92 235 92 m 276 1109 q 295 1153 278 1138 q 342 1183 312 1169 q 370 1199 361 1192 q 380 1217 380 1206 q 363 1240 380 1232 q 307 1247 347 1247 q 245 1242 277 1247 q 184 1226 213 1237 l 184 1284 q 246 1299 209 1293 q 317 1304 283 1304 q 426 1284 390 1304 q 462 1226 462 1264 q 447 1188 462 1201 q 403 1159 433 1174 q 367 1136 380 1147 q 353 1109 355 1126 l 276 1109 m 315 874 q 177 930 228 874 q 120 1092 126 985 l 208 1092 q 240 982 213 1016 q 315 949 266 949 q 390 982 364 949 q 421 1092 416 1016 l 508 1092 q 452 929 502 984 q 315 874 401 874 z "},"ẵ":{"ha":635,"x_min":42,"x_max":558,"o":"m 288 767 q 440 741 381 767 q 529 655 499 715 q 558 494 558 595 l 558 0 l 447 0 l 437 82 l 429 82 q 353 11 400 34 q 248 -12 307 -12 q 140 12 187 -12 q 68 84 94 37 q 42 196 42 131 q 105 357 42 300 q 300 426 167 415 l 426 439 l 426 500 q 409 593 426 560 q 358 641 392 627 q 265 656 323 656 q 180 648 226 656 q 89 626 133 640 l 89 738 q 185 760 131 752 q 288 767 239 767 m 290 92 q 364 111 328 92 q 426 172 399 129 l 426 351 l 313 340 q 210 301 243 333 q 176 211 176 269 q 206 122 176 151 q 290 92 235 92 m 409 1142 q 359 1149 383 1142 q 303 1169 335 1156 q 255 1188 273 1182 q 218 1193 237 1193 q 159 1182 185 1193 q 108 1146 133 1170 l 108 1228 q 219 1273 149 1273 q 268 1266 245 1273 q 324 1245 291 1259 q 372 1227 353 1233 q 410 1221 391 1221 q 469 1232 443 1221 q 519 1269 494 1244 l 519 1186 q 472 1153 499 1164 q 409 1142 445 1142 m 315 874 q 177 930 228 874 q 120 1092 126 985 l 208 1092 q 240 982 213 1016 q 315 949 266 949 q 390 982 364 949 q 421 1092 416 1016 l 508 1092 q 452 929 502 984 q 315 874 401 874 z "},"â":{"ha":635,"x_min":42,"x_max":558,"o":"m 288 767 q 440 741 381 767 q 529 655 499 715 q 558 494 558 595 l 558 0 l 447 0 l 437 82 l 429 82 q 353 11 400 34 q 248 -12 307 -12 q 140 12 187 -12 q 68 84 94 37 q 42 196 42 131 q 105 357 42 300 q 300 426 167 415 l 426 439 l 426 500 q 409 593 426 560 q 358 641 392 627 q 265 656 323 656 q 180 648 226 656 q 89 626 133 640 l 89 738 q 185 760 131 752 q 288 767 239 767 m 290 92 q 364 111 328 92 q 426 172 399 129 l 426 351 l 313 340 q 210 301 243 333 q 176 211 176 269 q 206 122 176 151 q 290 92 235 92 m 501 866 l 404 866 l 315 1057 l 224 866 l 127 866 l 253 1122 l 374 1122 l 501 866 z "},"ấ":{"ha":635,"x_min":42,"x_max":667,"o":"m 288 767 q 440 741 381 767 q 529 655 499 715 q 558 494 558 595 l 558 0 l 447 0 l 437 82 l 429 82 q 353 11 400 34 q 248 -12 307 -12 q 140 12 187 -12 q 68 84 94 37 q 42 196 42 131 q 105 357 42 300 q 300 426 167 415 l 426 439 l 426 500 q 409 593 426 560 q 358 641 392 627 q 265 656 323 656 q 180 648 226 656 q 89 626 133 640 l 89 738 q 185 760 131 752 q 288 767 239 767 m 290 92 q 364 111 328 92 q 426 172 399 129 l 426 351 l 313 340 q 210 301 243 333 q 176 211 176 269 q 206 122 176 151 q 290 92 235 92 m 550 1297 l 667 1297 l 547 1109 l 452 1109 l 550 1297 m 253 1122 l 374 1122 l 501 866 l 404 866 l 315 1057 l 224 866 l 127 866 l 253 1122 z "},"ậ":{"ha":635,"x_min":42,"x_max":558,"o":"m 288 767 q 440 741 381 767 q 529 655 499 715 q 558 494 558 595 l 558 0 l 447 0 l 437 82 l 429 82 q 353 11 400 34 q 248 -12 307 -12 q 140 12 187 -12 q 68 84 94 37 q 42 196 42 131 q 105 357 42 300 q 300 426 167 415 l 426 439 l 426 500 q 409 593 426 560 q 358 641 392 627 q 265 656 323 656 q 180 648 226 656 q 89 626 133 640 l 89 738 q 185 760 131 752 q 288 767 239 767 m 290 92 q 364 111 328 92 q 426 172 399 129 l 426 351 l 313 340 q 210 301 243 333 q 176 211 176 269 q 206 122 176 151 q 290 92 235 92 m 316 -267 q 256 -246 278 -267 q 234 -187 234 -224 q 256 -127 234 -149 q 316 -106 278 -106 q 376 -127 353 -106 q 399 -187 399 -149 q 376 -246 399 -224 q 316 -267 353 -267 m 501 866 l 404 866 l 315 1057 l 224 866 l 127 866 l 253 1122 l 374 1122 l 501 866 z "},"ầ":{"ha":635,"x_min":42,"x_max":558,"o":"m 288 767 q 440 741 381 767 q 529 655 499 715 q 558 494 558 595 l 558 0 l 447 0 l 437 82 l 429 82 q 353 11 400 34 q 248 -12 307 -12 q 140 12 187 -12 q 68 84 94 37 q 42 196 42 131 q 105 357 42 300 q 300 426 167 415 l 426 439 l 426 500 q 409 593 426 560 q 358 641 392 627 q 265 656 323 656 q 180 648 226 656 q 89 626 133 640 l 89 738 q 185 760 131 752 q 288 767 239 767 m 290 92 q 364 111 328 92 q 426 172 399 129 l 426 351 l 313 340 q 210 301 243 333 q 176 211 176 269 q 206 122 176 151 q 290 92 235 92 m 558 1109 l 463 1109 l 342 1297 l 460 1297 l 558 1109 m 253 1122 l 374 1122 l 501 866 l 404 866 l 315 1057 l 224 866 l 127 866 l 253 1122 z "},"ẩ":{"ha":635,"x_min":42,"x_max":628,"o":"m 288 767 q 440 741 381 767 q 529 655 499 715 q 558 494 558 595 l 558 0 l 447 0 l 437 82 l 429 82 q 353 11 400 34 q 248 -12 307 -12 q 140 12 187 -12 q 68 84 94 37 q 42 196 42 131 q 105 357 42 300 q 300 426 167 415 l 426 439 l 426 500 q 409 593 426 560 q 358 641 392 627 q 265 656 323 656 q 180 648 226 656 q 89 626 133 640 l 89 738 q 185 760 131 752 q 288 767 239 767 m 290 92 q 364 111 328 92 q 426 172 399 129 l 426 351 l 313 340 q 210 301 243 333 q 176 211 176 269 q 206 122 176 151 q 290 92 235 92 m 483 1304 q 592 1284 556 1304 q 628 1226 628 1264 q 613 1188 628 1201 q 569 1159 599 1174 q 533 1136 546 1147 q 518 1109 520 1126 l 442 1109 q 460 1153 443 1138 q 508 1183 478 1169 q 536 1199 527 1192 q 546 1217 546 1206 q 529 1240 546 1232 q 473 1247 513 1247 q 411 1242 443 1247 q 350 1226 378 1237 l 350 1284 q 411 1299 374 1293 q 483 1304 449 1304 m 253 1122 l 374 1122 l 501 866 l 404 866 l 315 1057 l 224 866 l 127 866 l 253 1122 z "},"ẫ":{"ha":635,"x_min":42,"x_max":558,"o":"m 288 767 q 440 741 381 767 q 529 655 499 715 q 558 494 558 595 l 558 0 l 447 0 l 437 82 l 429 82 q 353 11 400 34 q 248 -12 307 -12 q 140 12 187 -12 q 68 84 94 37 q 42 196 42 131 q 105 357 42 300 q 300 426 167 415 l 426 439 l 426 500 q 409 593 426 560 q 358 641 392 627 q 265 656 323 656 q 180 648 226 656 q 89 626 133 640 l 89 738 q 185 760 131 752 q 288 767 239 767 m 290 92 q 364 111 328 92 q 426 172 399 129 l 426 351 l 313 340 q 210 301 243 333 q 176 211 176 269 q 206 122 176 151 q 290 92 235 92 m 411 1221 q 471 1233 444 1221 q 522 1269 497 1244 l 522 1185 q 410 1142 481 1142 q 361 1149 384 1142 q 303 1169 338 1156 q 256 1188 275 1181 q 217 1194 236 1194 q 157 1182 183 1194 q 106 1145 131 1170 l 106 1228 q 218 1273 149 1273 q 268 1266 244 1273 q 325 1244 292 1258 q 374 1226 356 1232 q 411 1221 392 1221 m 253 1101 l 374 1101 l 501 866 l 404 866 l 315 1044 l 224 866 l 127 866 l 253 1101 z "},"ȁ":{"ha":635,"x_min":42,"x_max":558,"o":"m 288 767 q 440 741 381 767 q 529 655 499 715 q 558 494 558 595 l 558 0 l 447 0 l 437 82 l 429 82 q 353 11 400 34 q 248 -12 307 -12 q 140 12 187 -12 q 68 84 94 37 q 42 196 42 131 q 105 357 42 300 q 300 426 167 415 l 426 439 l 426 500 q 409 593 426 560 q 358 641 392 627 q 265 656 323 656 q 180 648 226 656 q 89 626 133 640 l 89 738 q 185 760 131 752 q 288 767 239 767 m 290 92 q 364 111 328 92 q 426 172 399 129 l 426 351 l 313 340 q 210 301 243 333 q 176 211 176 269 q 206 122 176 151 q 290 92 235 92 m 149 866 l 66 1122 l 180 1122 l 253 866 l 149 866 m 375 866 l 292 1122 l 405 1122 l 478 866 l 375 866 z "},"ä":{"ha":635,"x_min":42,"x_max":558,"o":"m 288 767 q 440 741 381 767 q 529 655 499 715 q 558 494 558 595 l 558 0 l 447 0 l 437 82 l 429 82 q 353 11 400 34 q 248 -12 307 -12 q 140 12 187 -12 q 68 84 94 37 q 42 196 42 131 q 105 357 42 300 q 300 426 167 415 l 426 439 l 426 500 q 409 593 426 560 q 358 641 392 627 q 265 656 323 656 q 180 648 226 656 q 89 626 133 640 l 89 738 q 185 760 131 752 q 288 767 239 767 m 290 92 q 364 111 328 92 q 426 172 399 129 l 426 351 l 313 340 q 210 301 243 333 q 176 211 176 269 q 206 122 176 151 q 290 92 235 92 m 181 906 q 120 928 143 906 q 98 986 98 949 q 120 1046 98 1024 q 181 1068 143 1068 q 240 1046 217 1068 q 263 986 263 1024 q 240 928 263 949 q 181 906 218 906 m 448 906 q 388 928 410 906 q 365 986 365 949 q 388 1046 365 1024 q 448 1068 410 1068 q 507 1046 485 1068 q 530 986 530 1024 q 508 928 530 949 q 448 906 485 906 z "},"ạ":{"ha":635,"x_min":42,"x_max":558,"o":"m 288 767 q 440 741 381 767 q 529 655 499 715 q 558 494 558 595 l 558 0 l 447 0 l 437 82 l 429 82 q 353 11 400 34 q 248 -12 307 -12 q 140 12 187 -12 q 68 84 94 37 q 42 196 42 131 q 105 357 42 300 q 300 426 167 415 l 426 439 l 426 500 q 409 593 426 560 q 358 641 392 627 q 265 656 323 656 q 180 648 226 656 q 89 626 133 640 l 89 738 q 185 760 131 752 q 288 767 239 767 m 290 92 q 364 111 328 92 q 426 172 399 129 l 426 351 l 313 340 q 210 301 243 333 q 176 211 176 269 q 206 122 176 151 q 290 92 235 92 m 316 -267 q 256 -246 278 -267 q 234 -187 234 -224 q 256 -127 234 -149 q 316 -106 278 -106 q 376 -127 353 -106 q 399 -187 399 -149 q 376 -246 399 -224 q 316 -267 353 -267 z "},"à":{"ha":635,"x_min":42,"x_max":558,"o":"m 288 767 q 440 741 381 767 q 529 655 499 715 q 558 494 558 595 l 558 0 l 447 0 l 437 82 l 429 82 q 353 11 400 34 q 248 -12 307 -12 q 140 12 187 -12 q 68 84 94 37 q 42 196 42 131 q 105 357 42 300 q 300 426 167 415 l 426 439 l 426 500 q 409 593 426 560 q 358 641 392 627 q 265 656 323 656 q 180 648 226 656 q 89 626 133 640 l 89 738 q 185 760 131 752 q 288 767 239 767 m 290 92 q 364 111 328 92 q 426 172 399 129 l 426 351 l 313 340 q 210 301 243 333 q 176 211 176 269 q 206 122 176 151 q 290 92 235 92 m 256 866 l 116 1122 l 253 1122 l 372 866 l 256 866 z "},"ả":{"ha":635,"x_min":42,"x_max":558,"o":"m 288 767 q 440 741 381 767 q 529 655 499 715 q 558 494 558 595 l 558 0 l 447 0 l 437 82 l 429 82 q 353 11 400 34 q 248 -12 307 -12 q 140 12 187 -12 q 68 84 94 37 q 42 196 42 131 q 105 357 42 300 q 300 426 167 415 l 426 439 l 426 500 q 409 593 426 560 q 358 641 392 627 q 265 656 323 656 q 180 648 226 656 q 89 626 133 640 l 89 738 q 185 760 131 752 q 288 767 239 767 m 290 92 q 364 111 328 92 q 426 172 399 129 l 426 351 l 313 340 q 210 301 243 333 q 176 211 176 269 q 206 122 176 151 q 290 92 235 92 m 275 866 q 291 927 276 904 q 335 972 307 949 q 362 998 353 988 q 370 1023 370 1008 q 354 1055 370 1044 q 303 1066 338 1066 q 202 1049 249 1066 l 202 1113 q 255 1126 225 1121 q 312 1131 284 1131 q 452 1031 452 1131 q 439 980 452 999 q 400 940 426 960 q 365 906 377 922 q 353 866 353 890 l 275 866 z "},"ȃ":{"ha":635,"x_min":42,"x_max":558,"o":"m 288 767 q 440 741 381 767 q 529 655 499 715 q 558 494 558 595 l 558 0 l 447 0 l 437 82 l 429 82 q 353 11 400 34 q 248 -12 307 -12 q 140 12 187 -12 q 68 84 94 37 q 42 196 42 131 q 105 357 42 300 q 300 426 167 415 l 426 439 l 426 500 q 409 593 426 560 q 358 641 392 627 q 265 656 323 656 q 180 648 226 656 q 89 626 133 640 l 89 738 q 185 760 131 752 q 288 767 239 767 m 290 92 q 364 111 328 92 q 426 172 399 129 l 426 351 l 313 340 q 210 301 243 333 q 176 211 176 269 q 206 122 176 151 q 290 92 235 92 m 124 885 q 178 1060 128 1003 q 313 1116 227 1116 q 449 1059 398 1116 q 505 885 500 1002 l 417 885 q 386 1003 413 967 q 313 1040 360 1040 q 239 1003 265 1040 q 211 885 214 967 l 124 885 z "},"ā":{"ha":635,"x_min":42,"x_max":558,"o":"m 288 767 q 440 741 381 767 q 529 655 499 715 q 558 494 558 595 l 558 0 l 447 0 l 437 82 l 429 82 q 353 11 400 34 q 248 -12 307 -12 q 140 12 187 -12 q 68 84 94 37 q 42 196 42 131 q 105 357 42 300 q 300 426 167 415 l 426 439 l 426 500 q 409 593 426 560 q 358 641 392 627 q 265 656 323 656 q 180 648 226 656 q 89 626 133 640 l 89 738 q 185 760 131 752 q 288 767 239 767 m 290 92 q 364 111 328 92 q 426 172 399 129 l 426 351 l 313 340 q 210 301 243 333 q 176 211 176 269 q 206 122 176 151 q 290 92 235 92 m 111 941 l 111 1033 l 517 1033 l 517 941 l 111 941 z "},"ą":{"ha":635,"x_min":42,"x_max":599,"o":"m 510 -230 q 599 -204 555 -230 l 599 -269 q 497 -294 554 -294 q 387 -259 426 -294 q 348 -162 348 -224 q 371 -75 348 -115 q 447 1 394 -35 l 437 82 l 429 82 q 353 11 400 34 q 248 -12 307 -12 q 140 12 187 -12 q 68 84 94 37 q 42 196 42 131 q 105 357 42 300 q 300 426 167 415 l 426 439 l 426 500 q 409 593 426 560 q 358 641 392 627 q 265 656 323 656 q 180 648 226 656 q 89 626 133 640 l 89 738 q 185 760 131 752 q 288 767 239 767 q 440 741 381 767 q 529 655 499 715 q 558 494 558 595 l 558 0 q 459 -75 488 -38 q 431 -155 431 -112 q 451 -210 431 -191 q 510 -230 472 -230 m 290 92 q 364 111 328 92 q 426 172 399 129 l 426 351 l 313 340 q 210 301 243 333 q 176 211 176 269 q 206 122 176 151 q 290 92 235 92 z "},"å":{"ha":635,"x_min":42,"x_max":558,"o":"m 288 767 q 440 741 381 767 q 529 655 499 715 q 558 494 558 595 l 558 0 l 447 0 l 437 82 l 429 82 q 353 11 400 34 q 248 -12 307 -12 q 140 12 187 -12 q 68 84 94 37 q 42 196 42 131 q 105 357 42 300 q 300 426 167 415 l 426 439 l 426 500 q 409 593 426 560 q 358 641 392 627 q 265 656 323 656 q 180 648 226 656 q 89 626 133 640 l 89 738 q 185 760 131 752 q 288 767 239 767 m 290 92 q 364 111 328 92 q 426 172 399 129 l 426 351 l 313 340 q 210 301 243 333 q 176 211 176 269 q 206 122 176 151 q 290 92 235 92 m 314 863 q 242 880 274 863 q 192 929 210 898 q 174 1000 174 960 q 192 1071 174 1040 q 242 1120 210 1102 q 314 1138 274 1138 q 386 1120 354 1138 q 436 1071 418 1102 q 454 1000 454 1040 q 436 929 454 960 q 386 880 418 898 q 314 863 354 863 m 314 922 q 369 943 348 922 q 390 1000 390 965 q 369 1057 390 1035 q 314 1078 348 1078 q 259 1057 280 1078 q 238 1000 238 1035 q 259 943 238 965 q 314 922 280 922 z "},"ǻ":{"ha":635,"x_min":42,"x_max":558,"o":"m 288 767 q 440 741 381 767 q 529 655 499 715 q 558 494 558 595 l 558 0 l 447 0 l 437 82 l 429 82 q 353 11 400 34 q 248 -12 307 -12 q 140 12 187 -12 q 68 84 94 37 q 42 196 42 131 q 105 357 42 300 q 300 426 167 415 l 426 439 l 426 500 q 409 593 426 560 q 358 641 392 627 q 265 656 323 656 q 180 648 226 656 q 89 626 133 640 l 89 738 q 185 760 131 752 q 288 767 239 767 m 290 92 q 364 111 328 92 q 426 172 399 129 l 426 351 l 313 340 q 210 301 243 333 q 176 211 176 269 q 206 122 176 151 q 290 92 235 92 m 427 1085 q 454 1000 454 1049 q 436 929 454 960 q 386 880 418 898 q 314 863 354 863 q 242 880 274 863 q 192 929 210 898 q 174 1000 174 960 q 192 1071 174 1040 q 242 1120 210 1102 q 314 1138 274 1138 q 359 1131 338 1138 l 442 1236 l 556 1236 l 427 1085 m 314 922 q 369 943 348 922 q 390 1000 390 965 q 369 1057 390 1035 q 314 1078 348 1078 q 259 1057 280 1078 q 238 1000 238 1035 q 259 943 238 965 q 314 922 280 922 z "},"ã":{"ha":635,"x_min":42,"x_max":558,"o":"m 288 767 q 440 741 381 767 q 529 655 499 715 q 558 494 558 595 l 558 0 l 447 0 l 437 82 l 429 82 q 353 11 400 34 q 248 -12 307 -12 q 140 12 187 -12 q 68 84 94 37 q 42 196 42 131 q 105 357 42 300 q 300 426 167 415 l 426 439 l 426 500 q 409 593 426 560 q 358 641 392 627 q 265 656 323 656 q 180 648 226 656 q 89 626 133 640 l 89 738 q 185 760 131 752 q 288 767 239 767 m 290 92 q 364 111 328 92 q 426 172 399 129 l 426 351 l 313 340 q 210 301 243 333 q 176 211 176 269 q 206 122 176 151 q 290 92 235 92 m 407 922 q 360 930 382 922 q 303 954 338 938 q 258 975 276 968 q 220 982 239 982 q 163 968 188 982 q 111 926 137 955 l 111 1023 q 221 1072 153 1072 q 269 1064 246 1072 q 325 1040 292 1056 q 371 1019 353 1026 q 408 1013 390 1013 q 466 1026 440 1013 q 517 1067 492 1039 l 517 971 q 407 922 476 922 z "},"æ":{"ha":997,"x_min":42,"x_max":957,"o":"m 957 333 l 558 333 q 582 193 560 244 q 647 120 604 142 q 761 99 690 99 q 922 125 831 99 l 922 13 q 747 -14 831 -14 q 584 16 649 -14 q 482 110 519 46 q 384 15 440 43 q 260 -12 328 -12 q 145 12 194 -12 q 69 83 96 36 q 42 196 42 130 q 108 363 42 302 q 314 424 174 424 l 429 424 l 429 501 q 411 594 429 560 q 357 642 393 628 q 265 656 322 656 q 180 648 226 656 q 90 626 133 640 l 90 738 q 186 760 135 753 q 283 767 236 767 q 424 741 369 767 q 506 659 479 715 q 701 768 570 768 q 890 674 824 768 q 957 376 957 580 l 957 333 m 695 672 q 623 650 653 672 q 577 573 594 628 q 558 424 560 518 l 828 424 q 811 575 827 520 q 766 651 794 629 q 695 672 738 672 m 292 93 q 449 196 394 93 q 430 337 433 256 l 326 337 q 213 303 249 337 q 176 208 176 269 q 207 122 176 151 q 292 93 237 93 z "},"ǽ":{"ha":997,"x_min":42,"x_max":957,"o":"m 957 333 l 558 333 q 582 193 560 244 q 647 120 604 142 q 761 99 690 99 q 922 125 831 99 l 922 13 q 747 -14 831 -14 q 584 16 649 -14 q 482 110 519 46 q 384 15 440 43 q 260 -12 328 -12 q 145 12 194 -12 q 69 83 96 36 q 42 196 42 130 q 108 363 42 302 q 314 424 174 424 l 429 424 l 429 501 q 411 594 429 560 q 357 642 393 628 q 265 656 322 656 q 180 648 226 656 q 90 626 133 640 l 90 738 q 186 760 135 753 q 283 767 236 767 q 424 741 369 767 q 506 659 479 715 q 701 768 570 768 q 890 674 824 768 q 957 376 957 580 l 957 333 m 695 672 q 623 650 653 672 q 577 573 594 628 q 558 424 560 518 l 828 424 q 811 575 827 520 q 766 651 794 629 q 695 672 738 672 m 292 93 q 449 196 394 93 q 430 337 433 256 l 326 337 q 213 303 249 337 q 176 208 176 269 q 207 122 176 151 q 292 93 237 93 m 436 866 l 556 1122 l 692 1122 l 552 866 l 436 866 z "},"b":{"ha":687,"x_min":82,"x_max":639,"o":"m 290 -13 q 181 -5 237 -13 q 82 20 125 4 l 82 1122 l 217 1122 l 217 682 l 224 682 q 292 744 249 720 q 390 767 335 767 q 517 730 461 767 q 606 608 572 692 q 639 390 639 524 q 552 87 639 187 q 290 -13 465 -13 m 297 95 q 409 123 365 95 q 477 212 454 150 q 501 378 501 274 q 481 544 501 485 q 426 627 461 604 q 342 650 392 650 q 270 632 304 650 q 217 582 236 615 l 217 106 q 256 98 233 101 q 297 95 278 95 z "},"c":{"ha":526,"x_min":48,"x_max":510,"o":"m 352 -14 q 125 79 201 -14 q 48 377 48 172 q 132 675 48 583 q 381 767 217 767 q 510 753 451 767 l 510 639 q 403 651 456 651 q 281 626 328 651 q 212 542 235 601 q 189 381 189 483 q 210 214 189 275 q 273 128 231 153 q 380 102 314 102 q 510 128 438 102 l 510 13 q 352 -14 433 -14 z "},"ć":{"ha":526,"x_min":48,"x_max":510,"o":"m 352 -14 q 125 79 201 -14 q 48 377 48 172 q 132 675 48 583 q 381 767 217 767 q 510 753 451 767 l 510 639 q 403 651 456 651 q 281 626 328 651 q 212 542 235 601 q 189 381 189 483 q 210 214 189 275 q 273 128 231 153 q 380 102 314 102 q 510 128 438 102 l 510 13 q 352 -14 433 -14 m 247 866 l 367 1122 l 503 1122 l 363 866 l 247 866 z "},"č":{"ha":526,"x_min":48,"x_max":510,"o":"m 352 -14 q 125 79 201 -14 q 48 377 48 172 q 132 675 48 583 q 381 767 217 767 q 510 753 451 767 l 510 639 q 403 651 456 651 q 281 626 328 651 q 212 542 235 601 q 189 381 189 483 q 210 214 189 275 q 273 128 231 153 q 380 102 314 102 q 510 128 438 102 l 510 13 q 352 -14 433 -14 m 395 1122 l 492 1122 l 365 866 l 244 866 l 118 1122 l 215 1122 l 306 931 l 395 1122 z "},"ç":{"ha":526,"x_min":48,"x_max":510,"o":"m 403 651 q 281 626 328 651 q 212 542 235 601 q 189 381 189 483 q 210 214 189 275 q 273 128 231 153 q 380 102 314 102 q 510 128 438 102 l 510 13 q 352 -14 433 -14 l 352 -70 q 426 -107 400 -78 q 451 -181 451 -135 q 415 -264 451 -233 q 306 -294 378 -294 q 249 -289 276 -294 q 199 -273 221 -283 l 199 -208 q 302 -231 247 -231 q 355 -218 338 -231 q 372 -176 372 -204 q 300 -118 372 -118 l 278 -118 l 278 -8 q 106 106 164 13 q 48 377 48 199 q 132 675 48 583 q 381 767 217 767 q 510 753 451 767 l 510 639 q 403 651 456 651 z "},"ḉ":{"ha":526,"x_min":48,"x_max":510,"o":"m 503 1122 l 363 866 l 247 866 l 367 1122 l 503 1122 m 403 651 q 281 626 328 651 q 212 542 235 601 q 189 381 189 483 q 210 214 189 275 q 273 128 231 153 q 380 102 314 102 q 510 128 438 102 l 510 13 q 352 -14 433 -14 l 352 -70 q 426 -107 400 -78 q 451 -181 451 -135 q 415 -264 451 -233 q 306 -294 378 -294 q 249 -289 276 -294 q 199 -273 221 -283 l 199 -208 q 302 -231 247 -231 q 355 -218 338 -231 q 372 -176 372 -204 q 300 -118 372 -118 l 278 -118 l 278 -8 q 106 106 164 13 q 48 377 48 199 q 132 675 48 583 q 381 767 217 767 q 510 753 451 767 l 510 639 q 403 651 456 651 z "},"ĉ":{"ha":526,"x_min":48,"x_max":510,"o":"m 352 -14 q 125 79 201 -14 q 48 377 48 172 q 132 675 48 583 q 381 767 217 767 q 510 753 451 767 l 510 639 q 403 651 456 651 q 281 626 328 651 q 212 542 235 601 q 189 381 189 483 q 210 214 189 275 q 273 128 231 153 q 380 102 314 102 q 510 128 438 102 l 510 13 q 352 -14 433 -14 m 492 866 l 395 866 l 306 1057 l 215 866 l 118 866 l 244 1122 l 365 1122 l 492 866 z "},"ċ":{"ha":526,"x_min":48,"x_max":510,"o":"m 352 -14 q 125 79 201 -14 q 48 377 48 172 q 132 675 48 583 q 381 767 217 767 q 510 753 451 767 l 510 639 q 403 651 456 651 q 281 626 328 651 q 212 542 235 601 q 189 381 189 483 q 210 214 189 275 q 273 128 231 153 q 380 102 314 102 q 510 128 438 102 l 510 13 q 352 -14 433 -14 m 305 903 q 238 925 260 903 q 215 986 215 947 q 238 1048 215 1026 q 305 1070 260 1070 q 372 1048 349 1070 q 395 986 395 1026 q 372 925 395 947 q 305 903 349 903 z "},"d":{"ha":687,"x_min":48,"x_max":605,"o":"m 306 -14 q 175 24 233 -14 q 83 145 117 61 q 48 363 48 229 q 136 667 48 567 q 401 767 224 767 q 470 763 438 767 l 470 1122 l 605 1122 l 605 0 l 490 0 l 481 78 l 473 78 q 405 11 448 36 q 306 -14 362 -14 m 343 103 q 416 122 381 103 q 470 175 451 141 l 470 651 q 432 656 455 654 q 392 658 410 658 q 278 631 323 658 q 210 541 233 603 q 187 375 187 478 q 207 209 187 269 q 260 126 226 149 q 343 103 294 103 z "},"ð":{"ha":676,"x_min":48,"x_max":628,"o":"m 483 921 q 589 673 550 806 q 628 410 628 539 q 553 88 628 190 q 339 -15 479 -15 q 48 376 48 -15 q 122 672 48 578 q 330 765 196 765 q 444 733 393 765 q 362 897 411 820 l 120 850 l 103 930 l 311 970 q 167 1122 249 1051 l 318 1122 q 435 994 381 1069 l 594 1026 l 612 946 l 483 921 m 339 91 q 451 155 413 91 q 490 372 490 219 q 472 547 490 483 q 421 635 453 610 q 338 660 388 660 q 256 635 289 660 q 205 548 223 610 q 187 376 187 485 q 205 203 187 266 q 255 116 222 141 q 339 91 288 91 z "},"ď":{"ha":687,"x_min":48,"x_max":767,"o":"m 306 -14 q 175 24 233 -14 q 83 145 117 61 q 48 363 48 229 q 136 667 48 567 q 401 767 224 767 q 470 763 438 767 l 470 1122 l 605 1122 l 605 0 l 490 0 l 481 78 l 473 78 q 405 11 448 36 q 306 -14 362 -14 m 343 103 q 416 122 381 103 q 470 175 451 141 l 470 651 q 432 656 455 654 q 392 658 410 658 q 278 631 323 658 q 210 541 233 603 q 187 375 187 478 q 207 209 187 269 q 260 126 226 149 q 343 103 294 103 m 653 819 q 669 1122 669 942 l 767 1122 q 758 964 767 1043 q 731 819 749 885 l 653 819 z "},"đ":{"ha":687,"x_min":48,"x_max":684,"o":"m 684 892 l 605 892 l 605 0 l 490 0 l 481 78 l 473 78 q 405 11 448 36 q 306 -14 362 -14 q 175 24 233 -14 q 83 145 117 61 q 48 363 48 229 q 136 667 48 567 q 401 767 224 767 q 470 763 438 767 l 470 892 l 281 892 l 281 989 l 470 989 l 470 1122 l 605 1122 l 605 989 l 684 989 l 684 892 m 470 651 q 432 656 455 654 q 392 658 410 658 q 278 631 323 658 q 210 541 233 603 q 187 375 187 478 q 207 209 187 269 q 260 126 226 149 q 343 103 294 103 q 416 122 381 103 q 470 175 451 141 l 470 651 z "},"ḍ":{"ha":687,"x_min":48,"x_max":605,"o":"m 306 -14 q 175 24 233 -14 q 83 145 117 61 q 48 363 48 229 q 136 667 48 567 q 401 767 224 767 q 470 763 438 767 l 470 1122 l 605 1122 l 605 0 l 490 0 l 481 78 l 473 78 q 405 11 448 36 q 306 -14 362 -14 m 343 103 q 416 122 381 103 q 470 175 451 141 l 470 651 q 432 656 455 654 q 392 658 410 658 q 278 631 323 658 q 210 541 233 603 q 187 375 187 478 q 207 209 187 269 q 260 126 226 149 q 343 103 294 103 m 345 -267 q 285 -246 308 -267 q 263 -187 263 -224 q 285 -127 263 -149 q 345 -106 308 -106 q 405 -127 383 -106 q 428 -187 428 -149 q 405 -246 428 -224 q 345 -267 383 -267 z "},"ḏ":{"ha":687,"x_min":48,"x_max":605,"o":"m 306 -14 q 175 24 233 -14 q 83 145 117 61 q 48 363 48 229 q 136 667 48 567 q 401 767 224 767 q 470 763 438 767 l 470 1122 l 605 1122 l 605 0 l 490 0 l 481 78 l 473 78 q 405 11 448 36 q 306 -14 362 -14 m 343 103 q 416 122 381 103 q 470 175 451 141 l 470 651 q 432 656 455 654 q 392 658 410 658 q 278 631 323 658 q 210 541 233 603 q 187 375 187 478 q 207 209 187 269 q 260 126 226 149 q 343 103 294 103 m 155 -231 l 155 -140 l 535 -140 l 535 -231 l 155 -231 z "},"ǳ":{"ha":1239,"x_min":48,"x_max":1211,"o":"m 306 -14 q 175 24 233 -14 q 83 145 117 61 q 48 363 48 229 q 136 667 48 567 q 401 767 224 767 q 470 763 438 767 l 470 1122 l 605 1122 l 605 0 l 490 0 l 481 78 l 473 78 q 405 11 448 36 q 306 -14 362 -14 m 343 103 q 416 122 381 103 q 470 175 451 141 l 470 651 q 432 656 455 654 q 392 658 410 658 q 278 631 323 658 q 210 541 233 603 q 187 375 187 478 q 207 209 187 269 q 260 126 226 149 q 343 103 294 103 m 874 110 l 1211 110 l 1211 0 l 721 0 l 721 83 l 1051 646 l 728 646 l 728 756 l 1204 756 l 1204 673 l 874 110 z "},"ǆ":{"ha":1239,"x_min":48,"x_max":1211,"o":"m 306 -14 q 175 24 233 -14 q 83 145 117 61 q 48 363 48 229 q 136 667 48 567 q 401 767 224 767 q 470 763 438 767 l 470 1122 l 605 1122 l 605 0 l 490 0 l 481 78 l 473 78 q 405 11 448 36 q 306 -14 362 -14 m 343 103 q 416 122 381 103 q 470 175 451 141 l 470 651 q 432 656 455 654 q 392 658 410 658 q 278 631 323 658 q 210 541 233 603 q 187 375 187 478 q 207 209 187 269 q 260 126 226 149 q 343 103 294 103 m 874 110 l 1211 110 l 1211 0 l 721 0 l 721 83 l 1051 646 l 728 646 l 728 756 l 1204 756 l 1204 673 l 874 110 m 1056 1122 l 1153 1122 l 1026 866 l 906 866 l 779 1122 l 876 1122 l 967 931 l 1056 1122 z "},"e":{"ha":630,"x_min":48,"x_max":590,"o":"m 590 333 l 185 333 q 209 193 188 244 q 276 120 231 142 q 392 99 320 99 q 555 125 463 99 l 555 13 q 377 -14 464 -14 q 191 25 263 -14 q 84 151 119 65 q 48 379 48 238 q 122 672 48 576 q 328 767 195 767 q 523 673 456 767 q 590 376 590 578 l 590 333 m 327 672 q 224 617 260 672 q 185 424 188 562 l 461 424 q 444 573 460 519 q 399 650 428 628 q 327 672 370 672 z "},"é":{"ha":630,"x_min":48,"x_max":590,"o":"m 590 333 l 185 333 q 209 193 188 244 q 276 120 231 142 q 392 99 320 99 q 555 125 463 99 l 555 13 q 377 -14 464 -14 q 191 25 263 -14 q 84 151 119 65 q 48 379 48 238 q 122 672 48 576 q 328 767 195 767 q 523 673 456 767 q 590 376 590 578 l 590 333 m 327 672 q 224 617 260 672 q 185 424 188 562 l 461 424 q 444 573 460 519 q 399 650 428 628 q 327 672 370 672 m 266 866 l 385 1122 l 522 1122 l 382 866 l 266 866 z "},"ĕ":{"ha":630,"x_min":48,"x_max":590,"o":"m 590 333 l 185 333 q 209 193 188 244 q 276 120 231 142 q 392 99 320 99 q 555 125 463 99 l 555 13 q 377 -14 464 -14 q 191 25 263 -14 q 84 151 119 65 q 48 379 48 238 q 122 672 48 576 q 328 767 195 767 q 523 673 456 767 q 590 376 590 578 l 590 333 m 327 672 q 224 617 260 672 q 185 424 188 562 l 461 424 q 444 573 460 519 q 399 650 428 628 q 327 672 370 672 m 324 874 q 189 932 240 874 q 133 1105 138 989 l 221 1105 q 251 988 225 1024 q 324 951 277 951 q 398 988 372 951 q 427 1105 424 1024 l 515 1105 q 460 931 510 988 q 324 874 410 874 z "},"ě":{"ha":630,"x_min":48,"x_max":590,"o":"m 590 333 l 185 333 q 209 193 188 244 q 276 120 231 142 q 392 99 320 99 q 555 125 463 99 l 555 13 q 377 -14 464 -14 q 191 25 263 -14 q 84 151 119 65 q 48 379 48 238 q 122 672 48 576 q 328 767 195 767 q 523 673 456 767 q 590 376 590 578 l 590 333 m 327 672 q 224 617 260 672 q 185 424 188 562 l 461 424 q 444 573 460 519 q 399 650 428 628 q 327 672 370 672 m 414 1122 l 511 1122 l 384 866 l 263 866 l 137 1122 l 234 1122 l 324 931 l 414 1122 z "},"ḝ":{"ha":630,"x_min":48,"x_max":590,"o":"m 324 874 q 189 932 240 874 q 133 1105 138 989 l 221 1105 q 251 988 225 1024 q 324 951 277 951 q 398 988 372 951 q 427 1105 424 1024 l 515 1105 q 460 931 510 988 q 324 874 410 874 m 590 333 l 185 333 q 209 193 188 244 q 276 120 231 142 q 392 99 320 99 q 555 125 463 99 l 555 13 q 377 -14 464 -14 l 365 -14 l 365 -70 q 439 -107 413 -78 q 465 -181 465 -135 q 428 -264 465 -233 q 319 -294 391 -294 q 262 -289 290 -294 q 212 -273 234 -283 l 212 -208 q 315 -231 260 -231 q 368 -218 351 -231 q 385 -176 385 -204 q 313 -118 385 -118 l 291 -118 l 291 -8 q 107 105 166 13 q 48 379 48 197 q 122 672 48 576 q 328 767 195 767 q 523 673 456 767 q 590 376 590 578 l 590 333 m 327 672 q 224 617 260 672 q 185 424 188 562 l 461 424 q 444 573 460 519 q 399 650 428 628 q 327 672 370 672 z "},"ê":{"ha":630,"x_min":48,"x_max":590,"o":"m 590 333 l 185 333 q 209 193 188 244 q 276 120 231 142 q 392 99 320 99 q 555 125 463 99 l 555 13 q 377 -14 464 -14 q 191 25 263 -14 q 84 151 119 65 q 48 379 48 238 q 122 672 48 576 q 328 767 195 767 q 523 673 456 767 q 590 376 590 578 l 590 333 m 327 672 q 224 617 260 672 q 185 424 188 562 l 461 424 q 444 573 460 519 q 399 650 428 628 q 327 672 370 672 m 511 866 l 414 866 l 324 1057 l 234 866 l 137 866 l 263 1122 l 384 1122 l 511 866 z "},"ế":{"ha":630,"x_min":48,"x_max":677,"o":"m 590 333 l 185 333 q 209 193 188 244 q 276 120 231 142 q 392 99 320 99 q 555 125 463 99 l 555 13 q 377 -14 464 -14 q 191 25 263 -14 q 84 151 119 65 q 48 379 48 238 q 122 672 48 576 q 328 767 195 767 q 523 673 456 767 q 590 376 590 578 l 590 333 m 327 672 q 224 617 260 672 q 185 424 188 562 l 461 424 q 444 573 460 519 q 399 650 428 628 q 327 672 370 672 m 560 1297 l 677 1297 l 557 1109 l 462 1109 l 560 1297 m 263 1122 l 384 1122 l 511 866 l 414 866 l 324 1057 l 234 866 l 137 866 l 263 1122 z "},"ệ":{"ha":630,"x_min":48,"x_max":590,"o":"m 590 333 l 185 333 q 209 193 188 244 q 276 120 231 142 q 392 99 320 99 q 555 125 463 99 l 555 13 q 377 -14 464 -14 q 191 25 263 -14 q 84 151 119 65 q 48 379 48 238 q 122 672 48 576 q 328 767 195 767 q 523 673 456 767 q 590 376 590 578 l 590 333 m 327 672 q 224 617 260 672 q 185 424 188 562 l 461 424 q 444 573 460 519 q 399 650 428 628 q 327 672 370 672 m 324 -267 q 264 -246 286 -267 q 242 -187 242 -224 q 264 -127 242 -149 q 324 -106 286 -106 q 384 -127 361 -106 q 406 -187 406 -149 q 384 -246 406 -224 q 324 -267 361 -267 m 511 866 l 414 866 l 324 1057 l 234 866 l 137 866 l 263 1122 l 384 1122 l 511 866 z "},"ề":{"ha":630,"x_min":48,"x_max":590,"o":"m 590 333 l 185 333 q 209 193 188 244 q 276 120 231 142 q 392 99 320 99 q 555 125 463 99 l 555 13 q 377 -14 464 -14 q 191 25 263 -14 q 84 151 119 65 q 48 379 48 238 q 122 672 48 576 q 328 767 195 767 q 523 673 456 767 q 590 376 590 578 l 590 333 m 327 672 q 224 617 260 672 q 185 424 188 562 l 461 424 q 444 573 460 519 q 399 650 428 628 q 327 672 370 672 m 568 1109 l 473 1109 l 352 1297 l 469 1297 l 568 1109 m 263 1122 l 384 1122 l 511 866 l 414 866 l 324 1057 l 234 866 l 137 866 l 263 1122 z "},"ể":{"ha":630,"x_min":48,"x_max":638,"o":"m 590 333 l 185 333 q 209 193 188 244 q 276 120 231 142 q 392 99 320 99 q 555 125 463 99 l 555 13 q 377 -14 464 -14 q 191 25 263 -14 q 84 151 119 65 q 48 379 48 238 q 122 672 48 576 q 328 767 195 767 q 523 673 456 767 q 590 376 590 578 l 590 333 m 327 672 q 224 617 260 672 q 185 424 188 562 l 461 424 q 444 573 460 519 q 399 650 428 628 q 327 672 370 672 m 492 1304 q 601 1284 565 1304 q 638 1226 638 1264 q 623 1188 638 1201 q 579 1159 608 1174 q 543 1136 556 1147 q 528 1109 530 1126 l 451 1109 q 470 1153 453 1138 q 517 1183 488 1169 q 546 1199 537 1192 q 556 1217 556 1206 q 539 1240 556 1232 q 483 1247 522 1247 q 420 1242 453 1247 q 360 1226 388 1237 l 360 1284 q 421 1299 384 1293 q 492 1304 458 1304 m 263 1122 l 384 1122 l 511 866 l 414 866 l 324 1057 l 234 866 l 137 866 l 263 1122 z "},"ễ":{"ha":630,"x_min":48,"x_max":590,"o":"m 590 333 l 185 333 q 209 193 188 244 q 276 120 231 142 q 392 99 320 99 q 555 125 463 99 l 555 13 q 377 -14 464 -14 q 191 25 263 -14 q 84 151 119 65 q 48 379 48 238 q 122 672 48 576 q 328 767 195 767 q 523 673 456 767 q 590 376 590 578 l 590 333 m 327 672 q 224 617 260 672 q 185 424 188 562 l 461 424 q 444 573 460 519 q 399 650 428 628 q 327 672 370 672 m 421 1221 q 481 1233 454 1221 q 532 1269 507 1244 l 532 1185 q 420 1142 490 1142 q 371 1149 394 1142 q 313 1169 348 1156 q 265 1188 285 1181 q 226 1194 246 1194 q 167 1182 193 1194 q 115 1145 141 1170 l 115 1228 q 228 1273 158 1273 q 278 1266 254 1273 q 335 1244 302 1258 q 383 1226 365 1232 q 421 1221 401 1221 m 263 1101 l 384 1101 l 511 866 l 414 866 l 324 1044 l 234 866 l 137 866 l 263 1101 z "},"ȅ":{"ha":630,"x_min":48,"x_max":590,"o":"m 590 333 l 185 333 q 209 193 188 244 q 276 120 231 142 q 392 99 320 99 q 555 125 463 99 l 555 13 q 377 -14 464 -14 q 191 25 263 -14 q 84 151 119 65 q 48 379 48 238 q 122 672 48 576 q 328 767 195 767 q 523 673 456 767 q 590 376 590 578 l 590 333 m 327 672 q 224 617 260 672 q 185 424 188 562 l 461 424 q 444 573 460 519 q 399 650 428 628 q 327 672 370 672 m 159 866 l 76 1122 l 190 1122 l 263 866 l 159 866 m 385 866 l 301 1122 l 415 1122 l 488 866 l 385 866 z "},"ë":{"ha":630,"x_min":48,"x_max":590,"o":"m 590 333 l 185 333 q 209 193 188 244 q 276 120 231 142 q 392 99 320 99 q 555 125 463 99 l 555 13 q 377 -14 464 -14 q 191 25 263 -14 q 84 151 119 65 q 48 379 48 238 q 122 672 48 576 q 328 767 195 767 q 523 673 456 767 q 590 376 590 578 l 590 333 m 327 672 q 224 617 260 672 q 185 424 188 562 l 461 424 q 444 573 460 519 q 399 650 428 628 q 327 672 370 672 m 190 906 q 130 928 153 906 q 108 986 108 949 q 130 1046 108 1024 q 190 1068 153 1068 q 250 1046 227 1068 q 272 986 272 1024 q 250 928 272 949 q 190 906 228 906 m 458 906 q 398 928 420 906 q 375 986 375 949 q 398 1046 375 1024 q 458 1068 420 1068 q 517 1046 494 1068 q 540 986 540 1024 q 517 928 540 949 q 458 906 495 906 z "},"ė":{"ha":630,"x_min":48,"x_max":590,"o":"m 590 333 l 185 333 q 209 193 188 244 q 276 120 231 142 q 392 99 320 99 q 555 125 463 99 l 555 13 q 377 -14 464 -14 q 191 25 263 -14 q 84 151 119 65 q 48 379 48 238 q 122 672 48 576 q 328 767 195 767 q 523 673 456 767 q 590 376 590 578 l 590 333 m 327 672 q 224 617 260 672 q 185 424 188 562 l 461 424 q 444 573 460 519 q 399 650 428 628 q 327 672 370 672 m 324 903 q 256 925 279 903 q 233 986 233 947 q 256 1048 233 1026 q 324 1070 279 1070 q 391 1048 368 1070 q 414 986 414 1026 q 391 925 414 947 q 324 903 368 903 z "},"ẹ":{"ha":630,"x_min":48,"x_max":590,"o":"m 590 333 l 185 333 q 209 193 188 244 q 276 120 231 142 q 392 99 320 99 q 555 125 463 99 l 555 13 q 377 -14 464 -14 q 191 25 263 -14 q 84 151 119 65 q 48 379 48 238 q 122 672 48 576 q 328 767 195 767 q 523 673 456 767 q 590 376 590 578 l 590 333 m 327 672 q 224 617 260 672 q 185 424 188 562 l 461 424 q 444 573 460 519 q 399 650 428 628 q 327 672 370 672 m 324 -267 q 264 -246 286 -267 q 242 -187 242 -224 q 264 -127 242 -149 q 324 -106 286 -106 q 384 -127 361 -106 q 406 -187 406 -149 q 384 -246 406 -224 q 324 -267 361 -267 z "},"è":{"ha":630,"x_min":48,"x_max":590,"o":"m 590 333 l 185 333 q 209 193 188 244 q 276 120 231 142 q 392 99 320 99 q 555 125 463 99 l 555 13 q 377 -14 464 -14 q 191 25 263 -14 q 84 151 119 65 q 48 379 48 238 q 122 672 48 576 q 328 767 195 767 q 523 673 456 767 q 590 376 590 578 l 590 333 m 327 672 q 224 617 260 672 q 185 424 188 562 l 461 424 q 444 573 460 519 q 399 650 428 628 q 327 672 370 672 m 266 866 l 126 1122 l 263 1122 l 382 866 l 266 866 z "},"ẻ":{"ha":630,"x_min":48,"x_max":590,"o":"m 590 333 l 185 333 q 209 193 188 244 q 276 120 231 142 q 392 99 320 99 q 555 125 463 99 l 555 13 q 377 -14 464 -14 q 191 25 263 -14 q 84 151 119 65 q 48 379 48 238 q 122 672 48 576 q 328 767 195 767 q 523 673 456 767 q 590 376 590 578 l 590 333 m 327 672 q 224 617 260 672 q 185 424 188 562 l 461 424 q 444 573 460 519 q 399 650 428 628 q 327 672 370 672 m 285 866 q 301 927 285 904 q 344 972 317 949 q 372 998 363 988 q 380 1023 380 1008 q 364 1055 380 1044 q 313 1066 348 1066 q 212 1049 258 1066 l 212 1113 q 264 1126 235 1121 q 322 1131 294 1131 q 462 1031 462 1131 q 449 980 462 999 q 410 940 435 960 q 375 906 387 922 q 363 866 363 890 l 285 866 z "},"ȇ":{"ha":630,"x_min":48,"x_max":590,"o":"m 590 333 l 185 333 q 209 193 188 244 q 276 120 231 142 q 392 99 320 99 q 555 125 463 99 l 555 13 q 377 -14 464 -14 q 191 25 263 -14 q 84 151 119 65 q 48 379 48 238 q 122 672 48 576 q 328 767 195 767 q 523 673 456 767 q 590 376 590 578 l 590 333 m 327 672 q 224 617 260 672 q 185 424 188 562 l 461 424 q 444 573 460 519 q 399 650 428 628 q 327 672 370 672 m 133 885 q 188 1060 138 1003 q 323 1116 237 1116 q 459 1059 408 1116 q 515 885 510 1002 l 427 885 q 396 1003 422 967 q 323 1040 370 1040 q 249 1003 274 1040 q 221 885 224 967 l 133 885 z "},"ē":{"ha":630,"x_min":48,"x_max":590,"o":"m 590 333 l 185 333 q 209 193 188 244 q 276 120 231 142 q 392 99 320 99 q 555 125 463 99 l 555 13 q 377 -14 464 -14 q 191 25 263 -14 q 84 151 119 65 q 48 379 48 238 q 122 672 48 576 q 328 767 195 767 q 523 673 456 767 q 590 376 590 578 l 590 333 m 327 672 q 224 617 260 672 q 185 424 188 562 l 461 424 q 444 573 460 519 q 399 650 428 628 q 327 672 370 672 m 121 941 l 121 1033 l 526 1033 l 526 941 l 121 941 z "},"ḗ":{"ha":630,"x_min":48,"x_max":590,"o":"m 590 333 l 185 333 q 209 193 188 244 q 276 120 231 142 q 392 99 320 99 q 555 125 463 99 l 555 13 q 377 -14 464 -14 q 191 25 263 -14 q 84 151 119 65 q 48 379 48 238 q 122 672 48 576 q 328 767 195 767 q 523 673 456 767 q 590 376 590 578 l 590 333 m 327 672 q 224 617 260 672 q 185 424 188 562 l 461 424 q 444 573 460 519 q 399 650 428 628 q 327 672 370 672 m 121 941 l 121 1033 l 526 1033 l 526 941 l 121 941 m 265 1156 l 363 1357 l 503 1357 l 383 1156 l 265 1156 z "},"ḕ":{"ha":630,"x_min":48,"x_max":590,"o":"m 590 333 l 185 333 q 209 193 188 244 q 276 120 231 142 q 392 99 320 99 q 555 125 463 99 l 555 13 q 377 -14 464 -14 q 191 25 263 -14 q 84 151 119 65 q 48 379 48 238 q 122 672 48 576 q 328 767 195 767 q 523 673 456 767 q 590 376 590 578 l 590 333 m 327 672 q 224 617 260 672 q 185 424 188 562 l 461 424 q 444 573 460 519 q 399 650 428 628 q 327 672 370 672 m 121 941 l 121 1033 l 526 1033 l 526 941 l 121 941 m 265 1156 l 144 1357 l 285 1357 l 383 1156 l 265 1156 z "},"ę":{"ha":630,"x_min":48,"x_max":590,"o":"m 590 333 l 185 333 q 209 193 188 244 q 276 120 231 142 q 392 99 320 99 q 555 125 463 99 l 555 13 q 422 -66 458 -24 q 386 -155 386 -108 q 407 -210 386 -191 q 467 -230 428 -230 q 555 -204 510 -230 l 555 -269 q 453 -294 510 -294 q 342 -259 381 -294 q 303 -162 303 -224 q 323 -81 303 -118 q 387 -14 343 -44 l 377 -14 q 191 25 263 -14 q 84 151 119 65 q 48 379 48 238 q 122 672 48 576 q 328 767 195 767 q 523 673 456 767 q 590 376 590 578 l 590 333 m 327 669 q 224 614 260 669 q 185 421 188 559 l 461 421 q 444 570 460 516 q 399 647 428 625 q 327 669 370 669 z "},"ẽ":{"ha":630,"x_min":48,"x_max":590,"o":"m 590 333 l 185 333 q 209 193 188 244 q 276 120 231 142 q 392 99 320 99 q 555 125 463 99 l 555 13 q 377 -14 464 -14 q 191 25 263 -14 q 84 151 119 65 q 48 379 48 238 q 122 672 48 576 q 328 767 195 767 q 523 673 456 767 q 590 376 590 578 l 590 333 m 327 672 q 224 617 260 672 q 185 424 188 562 l 461 424 q 444 573 460 519 q 399 650 428 628 q 327 672 370 672 m 417 922 q 369 930 392 922 q 313 954 347 938 q 267 975 286 968 q 230 982 249 982 q 172 968 198 982 q 121 926 147 955 l 121 1023 q 231 1072 163 1072 q 278 1064 256 1072 q 335 1040 301 1056 q 381 1019 363 1026 q 418 1013 399 1013 q 476 1026 450 1013 q 526 1067 501 1039 l 526 971 q 417 922 485 922 z "},"ə":{"ha":630,"x_min":40,"x_max":582,"o":"m 253 769 q 439 730 367 769 q 546 605 510 691 q 582 376 582 518 q 508 84 582 179 q 302 -12 435 -12 q 107 83 174 -12 q 40 379 40 178 l 40 422 l 444 422 q 420 562 442 511 q 354 635 399 613 q 238 657 310 657 q 75 631 167 657 l 75 742 q 253 769 166 769 m 303 84 q 406 139 369 84 q 444 332 442 194 l 169 332 q 186 182 170 237 q 231 106 202 128 q 303 84 260 84 z "},"f":{"ha":440,"x_min":6,"x_max":476,"o":"m 401 1023 q 295 991 328 1023 q 261 888 261 959 l 261 756 l 450 756 l 450 646 l 261 646 l 261 0 l 128 0 l 128 646 l 6 646 l 6 756 l 128 756 l 128 881 q 193 1071 128 1006 q 385 1136 258 1136 q 476 1128 437 1136 l 476 1017 q 401 1023 436 1023 z "},"g":{"ha":687,"x_min":48,"x_max":605,"o":"m 285 -319 q 188 -312 239 -319 q 95 -292 136 -305 l 95 -179 q 275 -208 185 -208 q 384 -188 342 -208 q 449 -123 427 -168 q 470 -1 470 -78 l 470 75 l 463 75 q 395 13 438 36 q 297 -10 352 -10 q 172 27 228 -10 q 82 147 116 64 q 48 363 48 231 q 136 667 48 567 q 399 767 224 767 q 507 758 451 767 q 605 734 563 749 l 605 20 q 526 -239 605 -159 q 285 -319 447 -319 m 346 105 q 417 123 383 105 q 470 174 451 141 l 470 650 q 390 659 425 659 q 238 593 288 659 q 187 376 187 528 q 206 210 187 269 q 260 128 226 151 q 346 105 295 105 z "},"ǵ":{"ha":687,"x_min":48,"x_max":605,"o":"m 285 -319 q 188 -312 239 -319 q 95 -292 136 -305 l 95 -179 q 275 -208 185 -208 q 384 -188 342 -208 q 449 -123 427 -168 q 470 -1 470 -78 l 470 75 l 463 75 q 395 13 438 36 q 297 -10 352 -10 q 172 27 228 -10 q 82 147 116 64 q 48 363 48 231 q 136 667 48 567 q 399 767 224 767 q 507 758 451 767 q 605 734 563 749 l 605 20 q 526 -239 605 -159 q 285 -319 447 -319 m 346 105 q 417 123 383 105 q 470 174 451 141 l 470 650 q 390 659 425 659 q 238 593 288 659 q 187 376 187 528 q 206 210 187 269 q 260 128 226 151 q 346 105 295 105 m 299 866 l 419 1122 l 556 1122 l 415 866 l 299 866 z "},"ğ":{"ha":687,"x_min":48,"x_max":605,"o":"m 285 -319 q 188 -312 239 -319 q 95 -292 136 -305 l 95 -179 q 275 -208 185 -208 q 384 -188 342 -208 q 449 -123 427 -168 q 470 -1 470 -78 l 470 75 l 463 75 q 395 13 438 36 q 297 -10 352 -10 q 172 27 228 -10 q 82 147 116 64 q 48 363 48 231 q 136 667 48 567 q 399 767 224 767 q 507 758 451 767 q 605 734 563 749 l 605 20 q 526 -239 605 -159 q 285 -319 447 -319 m 346 105 q 417 123 383 105 q 470 174 451 141 l 470 650 q 390 659 425 659 q 238 593 288 659 q 187 376 187 528 q 206 210 187 269 q 260 128 226 151 q 346 105 295 105 m 358 874 q 222 932 273 874 q 167 1105 172 989 l 254 1105 q 284 988 258 1024 q 358 951 310 951 q 432 988 406 951 q 460 1105 458 1024 l 548 1105 q 493 931 543 988 q 358 874 443 874 z "},"ǧ":{"ha":687,"x_min":48,"x_max":605,"o":"m 285 -319 q 188 -312 239 -319 q 95 -292 136 -305 l 95 -179 q 275 -208 185 -208 q 384 -188 342 -208 q 449 -123 427 -168 q 470 -1 470 -78 l 470 75 l 463 75 q 395 13 438 36 q 297 -10 352 -10 q 172 27 228 -10 q 82 147 116 64 q 48 363 48 231 q 136 667 48 567 q 399 767 224 767 q 507 758 451 767 q 605 734 563 749 l 605 20 q 526 -239 605 -159 q 285 -319 447 -319 m 346 105 q 417 123 383 105 q 470 174 451 141 l 470 650 q 390 659 425 659 q 238 593 288 659 q 187 376 187 528 q 206 210 187 269 q 260 128 226 151 q 346 105 295 105 m 447 1122 l 544 1122 l 417 866 l 297 866 l 170 1122 l 267 1122 l 358 931 l 447 1122 z "},"ĝ":{"ha":687,"x_min":48,"x_max":605,"o":"m 285 -319 q 188 -312 239 -319 q 95 -292 136 -305 l 95 -179 q 275 -208 185 -208 q 384 -188 342 -208 q 449 -123 427 -168 q 470 -1 470 -78 l 470 75 l 463 75 q 395 13 438 36 q 297 -10 352 -10 q 172 27 228 -10 q 82 147 116 64 q 48 363 48 231 q 136 667 48 567 q 399 767 224 767 q 507 758 451 767 q 605 734 563 749 l 605 20 q 526 -239 605 -159 q 285 -319 447 -319 m 346 105 q 417 123 383 105 q 470 174 451 141 l 470 650 q 390 659 425 659 q 238 593 288 659 q 187 376 187 528 q 206 210 187 269 q 260 128 226 151 q 346 105 295 105 m 544 866 l 447 866 l 358 1057 l 267 866 l 170 866 l 297 1122 l 417 1122 l 544 866 z "},"ģ":{"ha":687,"x_min":48,"x_max":605,"o":"m 285 -319 q 188 -312 239 -319 q 95 -292 136 -305 l 95 -179 q 275 -208 185 -208 q 384 -188 342 -208 q 449 -123 427 -168 q 470 -1 470 -78 l 470 75 l 463 75 q 395 13 438 36 q 297 -10 352 -10 q 172 27 228 -10 q 82 147 116 64 q 48 363 48 231 q 136 667 48 567 q 399 767 224 767 q 507 758 451 767 q 605 734 563 749 l 605 20 q 526 -239 605 -159 q 285 -319 447 -319 m 346 105 q 417 123 383 105 q 470 174 451 141 l 470 650 q 390 659 425 659 q 238 593 288 659 q 187 376 187 528 q 206 210 187 269 q 260 128 226 151 q 346 105 295 105 m 371 1029 q 423 1010 405 1026 q 440 966 440 993 q 419 920 440 937 q 359 903 399 903 q 295 925 317 903 q 274 988 274 947 q 285 1057 274 1019 q 317 1128 297 1096 l 402 1128 q 371 1029 376 1069 z "},"ġ":{"ha":687,"x_min":48,"x_max":605,"o":"m 285 -319 q 188 -312 239 -319 q 95 -292 136 -305 l 95 -179 q 275 -208 185 -208 q 384 -188 342 -208 q 449 -123 427 -168 q 470 -1 470 -78 l 470 75 l 463 75 q 395 13 438 36 q 297 -10 352 -10 q 172 27 228 -10 q 82 147 116 64 q 48 363 48 231 q 136 667 48 567 q 399 767 224 767 q 507 758 451 767 q 605 734 563 749 l 605 20 q 526 -239 605 -159 q 285 -319 447 -319 m 346 105 q 417 123 383 105 q 470 174 451 141 l 470 650 q 390 659 425 659 q 238 593 288 659 q 187 376 187 528 q 206 210 187 269 q 260 128 226 151 q 346 105 295 105 m 357 903 q 290 925 313 903 q 267 986 267 947 q 290 1048 267 1026 q 357 1070 313 1070 q 424 1048 401 1070 q 447 986 447 1026 q 424 925 447 947 q 357 903 401 903 z "},"ḡ":{"ha":687,"x_min":48,"x_max":605,"o":"m 285 -319 q 188 -312 239 -319 q 95 -292 136 -305 l 95 -179 q 275 -208 185 -208 q 384 -188 342 -208 q 449 -123 427 -168 q 470 -1 470 -78 l 470 75 l 463 75 q 395 13 438 36 q 297 -10 352 -10 q 172 27 228 -10 q 82 147 116 64 q 48 363 48 231 q 136 667 48 567 q 399 767 224 767 q 507 758 451 767 q 605 734 563 749 l 605 20 q 526 -239 605 -159 q 285 -319 447 -319 m 346 105 q 417 123 383 105 q 470 174 451 141 l 470 650 q 390 659 425 659 q 238 593 288 659 q 187 376 187 528 q 206 210 187 269 q 260 128 226 151 q 346 105 295 105 m 154 941 l 154 1033 l 560 1033 l 560 941 l 154 941 z "},"h":{"ha":692,"x_min":82,"x_max":615,"o":"m 82 1122 l 217 1122 l 217 673 l 224 673 q 416 767 295 767 q 561 709 507 767 q 615 517 615 650 l 615 0 l 481 0 l 481 510 q 451 614 481 583 q 368 644 422 644 q 284 624 326 644 q 217 559 242 603 l 217 0 l 82 0 l 82 1122 z "},"ħ":{"ha":692,"x_min":3,"x_max":615,"o":"m 416 767 q 561 709 507 767 q 615 517 615 650 l 615 0 l 481 0 l 481 510 q 451 614 481 583 q 368 644 422 644 q 284 624 326 644 q 217 559 242 603 l 217 0 l 82 0 l 82 892 l 3 892 l 3 989 l 82 989 l 82 1122 l 217 1122 l 217 989 l 406 989 l 406 892 l 217 892 l 217 673 l 224 673 q 416 767 295 767 z "},"ḫ":{"ha":692,"x_min":82,"x_max":615,"o":"m 82 1122 l 217 1122 l 217 673 l 224 673 q 416 767 295 767 q 561 709 507 767 q 615 517 615 650 l 615 0 l 481 0 l 481 510 q 451 614 481 583 q 368 644 422 644 q 284 624 326 644 q 217 559 242 603 l 217 0 l 82 0 l 82 1122 m 349 -300 q 211 -249 263 -300 q 158 -106 160 -198 l 246 -106 q 274 -194 248 -165 q 349 -223 301 -223 q 452 -106 449 -223 l 540 -106 q 486 -249 537 -199 q 349 -300 436 -300 z "},"ĥ":{"ha":692,"x_min":82,"x_max":615,"o":"m 82 1122 l 217 1122 l 217 673 l 224 673 q 416 767 295 767 q 561 709 507 767 q 615 517 615 650 l 615 0 l 481 0 l 481 510 q 451 614 481 583 q 368 644 422 644 q 284 624 326 644 q 217 559 242 603 l 217 0 l 82 0 l 82 1122 m 544 1181 l 444 1181 l 349 1328 l 253 1181 l 153 1181 l 288 1382 l 409 1382 l 544 1181 z "},"ḥ":{"ha":692,"x_min":82,"x_max":615,"o":"m 82 1122 l 217 1122 l 217 673 l 224 673 q 416 767 295 767 q 561 709 507 767 q 615 517 615 650 l 615 0 l 481 0 l 481 510 q 451 614 481 583 q 368 644 422 644 q 284 624 326 644 q 217 559 242 603 l 217 0 l 82 0 l 82 1122 m 349 -267 q 289 -246 311 -267 q 267 -187 267 -224 q 289 -127 267 -149 q 349 -106 311 -106 q 409 -127 386 -106 q 431 -187 431 -149 q 409 -246 431 -224 q 349 -267 386 -267 z "},"i":{"ha":299,"x_min":59,"x_max":240,"o":"m 82 0 l 82 756 l 217 756 l 217 0 l 82 0 m 149 903 q 82 925 105 903 q 59 986 59 947 q 82 1048 59 1026 q 149 1070 105 1070 q 217 1048 194 1070 q 240 986 240 1026 q 217 925 240 947 q 149 903 194 903 z "},"ı":{"ha":299,"x_min":82,"x_max":217,"o":"m 82 0 l 82 756 l 217 756 l 217 0 l 82 0 z "},"í":{"ha":299,"x_min":82,"x_max":348,"o":"m 82 0 l 82 756 l 217 756 l 217 0 l 82 0 m 92 866 l 211 1122 l 348 1122 l 208 866 l 92 866 z "},"ĭ":{"ha":299,"x_min":-41,"x_max":340,"o":"m 82 0 l 82 756 l 217 756 l 217 0 l 82 0 m 150 874 q 15 932 65 874 q -41 1105 -36 989 l 47 1105 q 77 988 51 1024 q 150 951 103 951 q 224 988 198 951 q 253 1105 250 1024 l 340 1105 q 285 931 335 988 q 150 874 235 874 z "},"î":{"ha":299,"x_min":-37,"x_max":337,"o":"m 82 0 l 82 756 l 217 756 l 217 0 l 82 0 m 337 866 l 240 866 l 150 1057 l 60 866 l -37 866 l 89 1122 l 210 1122 l 337 866 z "},"ȉ":{"ha":299,"x_min":-99,"x_max":314,"o":"m 82 0 l 82 756 l 217 756 l 217 0 l 82 0 m -15 866 l -99 1122 l 15 1122 l 89 866 l -15 866 m 210 866 l 127 1122 l 240 1122 l 314 866 l 210 866 z "},"ï":{"ha":299,"x_min":-67,"x_max":365,"o":"m 82 0 l 82 756 l 217 756 l 217 0 l 82 0 m 16 906 q -44 928 -22 906 q -67 986 -67 949 q -44 1046 -67 1024 q 16 1068 -22 1068 q 75 1046 53 1068 q 98 986 98 1024 q 76 928 98 949 q 16 906 53 906 m 283 906 q 223 928 246 906 q 201 986 201 949 q 223 1046 201 1024 q 283 1068 246 1068 q 343 1046 320 1068 q 365 986 365 1024 q 343 928 365 949 q 283 906 321 906 z "},"ḯ":{"ha":299,"x_min":-67,"x_max":365,"o":"m 82 0 l 82 756 l 217 756 l 217 0 l 82 0 m 16 906 q -44 928 -22 906 q -67 986 -67 949 q -44 1046 -67 1024 q 16 1068 -22 1068 q 75 1046 53 1068 q 98 986 98 1024 q 76 928 98 949 q 16 906 53 906 m 283 906 q 223 928 246 906 q 201 986 201 949 q 223 1046 201 1024 q 283 1068 246 1068 q 343 1046 320 1068 q 365 986 365 1024 q 343 928 365 949 q 283 906 321 906 m 90 1156 l 189 1357 l 329 1357 l 208 1156 l 90 1156 z "},"ị":{"ha":299,"x_min":59,"x_max":240,"o":"m 82 0 l 82 756 l 217 756 l 217 0 l 82 0 m 149 903 q 82 925 105 903 q 59 986 59 947 q 82 1048 59 1026 q 149 1070 105 1070 q 217 1048 194 1070 q 240 986 240 1026 q 217 925 240 947 q 149 903 194 903 m 149 -267 q 90 -246 112 -267 q 67 -187 67 -224 q 90 -127 67 -149 q 149 -106 112 -106 q 209 -127 187 -106 q 232 -187 232 -149 q 209 -246 232 -224 q 149 -267 187 -267 z "},"ì":{"ha":299,"x_min":-49,"x_max":217,"o":"m 82 0 l 82 756 l 217 756 l 217 0 l 82 0 m 92 866 l -49 1122 l 88 1122 l 208 866 l 92 866 z "},"ỉ":{"ha":299,"x_min":38,"x_max":288,"o":"m 82 0 l 82 756 l 217 756 l 217 0 l 82 0 m 110 866 q 127 927 111 904 q 170 972 142 949 q 197 998 189 988 q 206 1023 206 1008 q 190 1055 206 1044 q 138 1066 174 1066 q 38 1049 84 1066 l 38 1113 q 90 1126 60 1121 q 147 1131 119 1131 q 288 1031 288 1131 q 274 980 288 999 q 235 940 261 960 q 201 906 213 922 q 188 866 189 890 l 110 866 z "},"ȋ":{"ha":299,"x_min":-41,"x_max":340,"o":"m 82 0 l 82 756 l 217 756 l 217 0 l 82 0 m -41 885 q 13 1060 -36 1003 q 149 1116 63 1116 q 284 1059 233 1116 q 340 885 335 1002 l 253 885 q 222 1003 248 967 q 149 1040 196 1040 q 75 1003 100 1040 q 47 885 49 967 l -41 885 z "},"ī":{"ha":299,"x_min":-53,"x_max":352,"o":"m 82 0 l 82 756 l 217 756 l 217 0 l 82 0 m -53 941 l -53 1033 l 352 1033 l 352 941 l -53 941 z "},"į":{"ha":299,"x_min":7,"x_max":258,"o":"m 149 903 q 82 925 105 903 q 59 986 59 947 q 82 1048 59 1026 q 149 1070 105 1070 q 217 1048 194 1070 q 240 986 240 1026 q 217 925 240 947 q 149 903 194 903 m 169 -230 q 258 -204 214 -230 l 258 -269 q 156 -294 213 -294 q 46 -259 85 -294 q 7 -162 7 -224 q 30 -76 7 -115 q 103 0 53 -37 l 82 0 l 82 756 l 217 756 l 217 0 q 118 -75 147 -38 q 90 -155 90 -112 q 110 -210 90 -191 q 169 -230 131 -230 z "},"ĩ":{"ha":299,"x_min":-53,"x_max":352,"o":"m 82 0 l 82 756 l 217 756 l 217 0 l 82 0 m 242 922 q 195 930 217 922 q 139 954 173 938 q 93 975 112 968 q 56 982 74 982 q -2 968 24 982 q -53 926 -28 955 l -53 1023 q 56 1072 -11 1072 q 104 1064 81 1072 q 160 1040 127 1056 q 207 1019 188 1026 q 244 1013 225 1013 q 301 1026 276 1013 q 352 1067 327 1039 l 352 971 q 242 922 311 922 z "},"j":{"ha":299,"x_min":-27,"x_max":240,"o":"m -27 -263 q 58 -86 33 -171 q 82 119 82 -1 l 82 756 l 217 756 l 217 128 q 202 -39 217 35 q 153 -182 187 -114 q 64 -324 120 -250 l -27 -263 m 149 903 q 82 925 105 903 q 59 986 59 947 q 82 1048 59 1026 q 149 1070 105 1070 q 217 1048 194 1070 q 240 986 240 1026 q 217 925 240 947 q 149 903 194 903 z "},"ȷ":{"ha":299,"x_min":-27,"x_max":217,"o":"m -27 -263 q 58 -86 33 -171 q 82 119 82 -1 l 82 756 l 217 756 l 217 128 q 202 -39 217 35 q 153 -182 187 -114 q 64 -324 120 -250 l -27 -263 z "},"ĵ":{"ha":299,"x_min":-37,"x_max":337,"o":"m -27 -263 q 58 -86 33 -171 q 82 119 82 -1 l 82 756 l 217 756 l 217 128 q 202 -39 217 35 q 153 -182 187 -114 q 64 -324 120 -250 l -27 -263 m 337 866 l 240 866 l 150 1057 l 60 866 l -37 866 l 89 1122 l 210 1122 l 337 866 z "},"k":{"ha":649,"x_min":82,"x_max":671,"o":"m 522 0 l 302 333 l 217 333 l 217 0 l 82 0 l 82 1122 l 217 1122 l 217 442 l 301 442 l 503 756 l 648 756 l 414 389 l 671 0 l 522 0 z "},"ķ":{"ha":649,"x_min":82,"x_max":671,"o":"m 522 0 l 302 333 l 217 333 l 217 0 l 82 0 l 82 1122 l 217 1122 l 217 442 l 301 442 l 503 756 l 648 756 l 414 389 l 671 0 l 522 0 m 353 -106 q 417 -127 396 -106 q 438 -190 438 -149 q 427 -260 438 -222 q 396 -330 415 -298 l 310 -330 q 342 -231 335 -275 q 290 -212 308 -228 q 272 -168 272 -195 q 292 -122 272 -139 q 353 -106 313 -106 z "},"ĸ":{"ha":649,"x_min":82,"x_max":671,"o":"m 522 0 l 302 333 l 217 333 l 217 0 l 82 0 l 82 756 l 217 756 l 217 442 l 301 442 l 503 756 l 648 756 l 414 389 l 671 0 l 522 0 z "},"l":{"ha":299,"x_min":82,"x_max":217,"o":"m 82 0 l 82 1122 l 217 1122 l 217 0 l 82 0 z "},"ĺ":{"ha":299,"x_min":82,"x_max":329,"o":"m 82 0 l 82 1122 l 217 1122 l 217 0 l 82 0 m 90 1181 l 189 1382 l 329 1382 l 208 1181 l 90 1181 z "},"ľ":{"ha":299,"x_min":82,"x_max":378,"o":"m 82 0 l 82 1122 l 217 1122 l 217 0 l 82 0 m 265 819 q 281 1122 281 942 l 378 1122 q 369 964 378 1043 q 342 819 360 885 l 265 819 z "},"ļ":{"ha":299,"x_min":66,"x_max":233,"o":"m 82 0 l 82 1122 l 217 1122 l 217 0 l 82 0 m 148 -106 q 211 -127 190 -106 q 233 -190 233 -149 q 221 -260 233 -222 q 190 -330 210 -298 l 104 -330 q 136 -231 130 -275 q 84 -212 102 -228 q 66 -168 66 -195 q 87 -122 66 -139 q 148 -106 108 -106 z "},"ŀ":{"ha":415,"x_min":82,"x_max":444,"o":"m 82 0 l 82 1122 l 217 1122 l 217 0 l 82 0 m 354 467 q 287 489 310 467 q 264 551 264 511 q 287 613 264 590 q 354 635 310 635 q 421 613 398 635 q 444 551 444 590 q 422 489 444 511 q 354 467 399 467 z "},"ḷ":{"ha":299,"x_min":67,"x_max":232,"o":"m 82 0 l 82 1122 l 217 1122 l 217 0 l 82 0 m 149 -267 q 90 -246 112 -267 q 67 -187 67 -224 q 90 -127 67 -149 q 149 -106 112 -106 q 209 -127 187 -106 q 232 -187 232 -149 q 209 -246 232 -224 q 149 -267 187 -267 z "},"ǉ":{"ha":597,"x_min":82,"x_max":538,"o":"m 82 0 l 82 1122 l 217 1122 l 217 0 l 82 0 m 272 -263 q 356 -86 332 -171 q 381 119 381 -1 l 381 756 l 516 756 l 516 128 q 501 -39 516 35 q 452 -182 485 -114 q 363 -324 419 -250 l 272 -263 m 448 903 q 381 925 403 903 q 358 986 358 947 q 381 1048 358 1026 q 448 1070 403 1070 q 515 1048 492 1070 q 538 986 538 1026 q 515 925 538 947 q 448 903 492 903 z "},"ḻ":{"ha":299,"x_min":-41,"x_max":340,"o":"m 82 0 l 82 1122 l 217 1122 l 217 0 l 82 0 m -41 -231 l -41 -140 l 340 -140 l 340 -231 l -41 -231 z "},"ł":{"ha":326,"x_min":-10,"x_max":336,"o":"m 336 562 l 231 488 l 231 0 l 96 0 l 96 393 l 38 352 l -10 430 l 96 504 l 96 1122 l 231 1122 l 231 599 l 289 640 l 336 562 z "},"m":{"ha":1056,"x_min":82,"x_max":979,"o":"m 776 767 q 924 709 869 767 q 979 517 979 650 l 979 0 l 844 0 l 844 510 q 736 645 844 645 q 661 626 700 645 q 597 563 623 606 q 598 523 598 537 l 598 0 l 465 0 l 465 510 q 438 614 465 583 q 360 645 410 645 q 281 623 321 645 q 217 556 241 601 l 217 0 l 82 0 l 82 756 l 195 756 l 206 672 l 213 672 q 406 767 288 767 q 507 743 463 767 q 574 664 550 718 q 667 742 614 717 q 776 767 720 767 z "},"ṃ":{"ha":1056,"x_min":82,"x_max":979,"o":"m 776 767 q 924 709 869 767 q 979 517 979 650 l 979 0 l 844 0 l 844 510 q 736 645 844 645 q 661 626 700 645 q 597 563 623 606 q 598 523 598 537 l 598 0 l 465 0 l 465 510 q 438 614 465 583 q 360 645 410 645 q 281 623 321 645 q 217 556 241 601 l 217 0 l 82 0 l 82 756 l 195 756 l 206 672 l 213 672 q 406 767 288 767 q 507 743 463 767 q 574 664 550 718 q 667 742 614 717 q 776 767 720 767 m 532 -267 q 472 -246 494 -267 q 450 -187 450 -224 q 472 -127 450 -149 q 532 -106 494 -106 q 592 -127 569 -106 q 615 -187 615 -149 q 592 -246 615 -224 q 532 -267 569 -267 z "},"n":{"ha":692,"x_min":82,"x_max":615,"o":"m 82 756 l 195 756 l 206 673 l 213 673 q 300 743 250 719 q 410 767 350 767 q 560 709 505 767 q 615 520 615 651 l 615 0 l 481 0 l 481 511 q 451 615 481 584 q 368 645 422 645 q 284 624 326 645 q 217 559 242 603 l 217 0 l 82 0 l 82 756 z "},"ń":{"ha":692,"x_min":82,"x_max":615,"o":"m 82 756 l 195 756 l 206 673 l 213 673 q 300 743 250 719 q 410 767 350 767 q 560 709 505 767 q 615 520 615 651 l 615 0 l 481 0 l 481 511 q 451 615 481 584 q 368 645 422 645 q 284 624 326 645 q 217 559 242 603 l 217 0 l 82 0 l 82 756 m 291 866 l 410 1122 l 547 1122 l 407 866 l 291 866 z "},"ŉ":{"ha":692,"x_min":7,"x_max":615,"o":"m 82 756 l 195 756 l 206 673 l 213 673 q 300 743 250 719 q 410 767 350 767 q 560 709 505 767 q 615 520 615 651 l 615 0 l 481 0 l 481 511 q 451 615 481 584 q 368 645 422 645 q 284 624 326 645 q 217 559 242 603 l 217 0 l 82 0 l 82 756 m 89 1128 q 174 1044 174 1128 q 162 974 174 1012 q 131 903 151 936 l 45 903 q 77 1003 72 963 q 25 1022 43 1006 q 7 1065 7 1039 q 28 1111 7 1094 q 89 1128 49 1128 z "},"ň":{"ha":692,"x_min":82,"x_max":615,"o":"m 82 756 l 195 756 l 206 673 l 213 673 q 300 743 250 719 q 410 767 350 767 q 560 709 505 767 q 615 520 615 651 l 615 0 l 481 0 l 481 511 q 451 615 481 584 q 368 645 422 645 q 284 624 326 645 q 217 559 242 603 l 217 0 l 82 0 l 82 756 m 439 1122 l 536 1122 l 409 866 l 288 866 l 162 1122 l 259 1122 l 349 931 l 439 1122 z "},"ņ":{"ha":692,"x_min":82,"x_max":615,"o":"m 82 756 l 195 756 l 206 673 l 213 673 q 300 743 250 719 q 410 767 350 767 q 560 709 505 767 q 615 520 615 651 l 615 0 l 481 0 l 481 511 q 451 615 481 584 q 368 645 422 645 q 284 624 326 645 q 217 559 242 603 l 217 0 l 82 0 l 82 756 m 347 -106 q 411 -127 390 -106 q 432 -190 432 -149 q 420 -260 432 -222 q 390 -330 409 -298 l 303 -330 q 335 -231 329 -275 q 283 -212 301 -228 q 265 -168 265 -195 q 286 -122 265 -139 q 347 -106 307 -106 z "},"ṅ":{"ha":692,"x_min":82,"x_max":615,"o":"m 82 756 l 195 756 l 206 673 l 213 673 q 300 743 250 719 q 410 767 350 767 q 560 709 505 767 q 615 520 615 651 l 615 0 l 481 0 l 481 511 q 451 615 481 584 q 368 645 422 645 q 284 624 326 645 q 217 559 242 603 l 217 0 l 82 0 l 82 756 m 349 903 q 281 925 304 903 q 258 986 258 947 q 281 1048 258 1026 q 349 1070 304 1070 q 416 1048 393 1070 q 439 986 439 1026 q 416 925 439 947 q 349 903 393 903 z "},"ṇ":{"ha":692,"x_min":82,"x_max":615,"o":"m 82 756 l 195 756 l 206 673 l 213 673 q 300 743 250 719 q 410 767 350 767 q 560 709 505 767 q 615 520 615 651 l 615 0 l 481 0 l 481 511 q 451 615 481 584 q 368 645 422 645 q 284 624 326 645 q 217 559 242 603 l 217 0 l 82 0 l 82 756 m 349 -267 q 289 -246 311 -267 q 267 -187 267 -224 q 289 -127 267 -149 q 349 -106 311 -106 q 409 -127 386 -106 q 431 -187 431 -149 q 409 -246 431 -224 q 349 -267 386 -267 z "},"ŋ":{"ha":692,"x_min":82,"x_max":615,"o":"m 372 -263 q 456 -86 432 -171 q 481 119 481 -1 l 481 513 q 451 617 481 585 q 368 648 422 648 q 285 627 327 648 q 217 562 242 606 l 217 0 l 82 0 l 82 756 l 195 756 l 206 673 l 213 673 q 410 767 290 767 q 560 709 505 767 q 615 517 615 651 l 615 111 q 579 -116 613 -16 q 463 -324 544 -216 l 372 -263 z "},"ǌ":{"ha":991,"x_min":82,"x_max":932,"o":"m 82 756 l 195 756 l 206 673 l 213 673 q 300 743 250 719 q 410 767 350 767 q 560 709 505 767 q 615 520 615 651 l 615 0 l 481 0 l 481 511 q 451 615 481 584 q 368 645 422 645 q 284 624 326 645 q 217 559 242 603 l 217 0 l 82 0 l 82 756 m 665 -263 q 750 -86 726 -171 q 774 119 774 -1 l 774 756 l 910 756 l 910 128 q 894 -39 910 35 q 846 -182 879 -114 q 756 -324 813 -250 l 665 -263 m 842 903 q 774 925 797 903 q 751 986 751 947 q 774 1048 751 1026 q 842 1070 797 1070 q 909 1048 886 1070 q 932 986 932 1026 q 909 925 932 947 q 842 903 886 903 z "},"ṉ":{"ha":692,"x_min":82,"x_max":615,"o":"m 82 756 l 195 756 l 206 673 l 213 673 q 300 743 250 719 q 410 767 350 767 q 560 709 505 767 q 615 520 615 651 l 615 0 l 481 0 l 481 511 q 451 615 481 584 q 368 645 422 645 q 284 624 326 645 q 217 559 242 603 l 217 0 l 82 0 l 82 756 m 158 -231 l 158 -140 l 539 -140 l 539 -231 l 158 -231 z "},"ñ":{"ha":692,"x_min":82,"x_max":615,"o":"m 82 756 l 195 756 l 206 673 l 213 673 q 300 743 250 719 q 410 767 350 767 q 560 709 505 767 q 615 520 615 651 l 615 0 l 481 0 l 481 511 q 451 615 481 584 q 368 645 422 645 q 284 624 326 645 q 217 559 242 603 l 217 0 l 82 0 l 82 756 m 442 922 q 394 930 417 922 q 338 954 372 938 q 292 975 311 968 q 255 982 274 982 q 197 968 223 982 q 146 926 172 955 l 146 1023 q 256 1072 188 1072 q 303 1064 281 1072 q 360 1040 326 1056 q 406 1019 388 1026 q 443 1013 424 1013 q 501 1026 475 1013 q 551 1067 526 1039 l 551 971 q 442 922 510 922 z "},"o":{"ha":676,"x_min":48,"x_max":628,"o":"m 338 -14 q 123 80 199 -14 q 48 376 48 174 q 123 673 48 578 q 338 767 197 767 q 553 672 478 767 q 628 376 628 577 q 338 -14 628 -14 m 338 92 q 421 117 388 92 q 472 203 454 142 q 490 374 490 265 q 472 548 490 485 q 421 636 453 611 q 338 661 388 661 q 256 636 289 661 q 205 549 223 611 q 187 378 187 487 q 205 205 187 267 q 255 117 222 142 q 338 92 288 92 z "},"ó":{"ha":676,"x_min":48,"x_max":628,"o":"m 338 -14 q 123 80 199 -14 q 48 376 48 174 q 123 673 48 578 q 338 767 197 767 q 553 672 478 767 q 628 376 628 577 q 338 -14 628 -14 m 338 92 q 421 117 388 92 q 472 203 454 142 q 490 374 490 265 q 472 548 490 485 q 421 636 453 611 q 338 661 388 661 q 256 636 289 661 q 205 549 223 611 q 187 378 187 487 q 205 205 187 267 q 255 117 222 142 q 338 92 288 92 m 281 866 l 400 1122 l 537 1122 l 397 866 l 281 866 z "},"ŏ":{"ha":676,"x_min":48,"x_max":628,"o":"m 338 -14 q 123 80 199 -14 q 48 376 48 174 q 123 673 48 578 q 338 767 197 767 q 553 672 478 767 q 628 376 628 577 q 338 -14 628 -14 m 338 92 q 421 117 388 92 q 472 203 454 142 q 490 374 490 265 q 472 548 490 485 q 421 636 453 611 q 338 661 388 661 q 256 636 289 661 q 205 549 223 611 q 187 378 187 487 q 205 205 187 267 q 255 117 222 142 q 338 92 288 92 m 339 874 q 203 932 254 874 q 148 1105 153 989 l 235 1105 q 266 988 240 1024 q 339 951 292 951 q 413 988 387 951 q 442 1105 439 1024 l 529 1105 q 474 931 524 988 q 339 874 424 874 z "},"ô":{"ha":676,"x_min":48,"x_max":628,"o":"m 338 -14 q 123 80 199 -14 q 48 376 48 174 q 123 673 48 578 q 338 767 197 767 q 553 672 478 767 q 628 376 628 577 q 338 -14 628 -14 m 338 92 q 421 117 388 92 q 472 203 454 142 q 490 374 490 265 q 472 548 490 485 q 421 636 453 611 q 338 661 388 661 q 256 636 289 661 q 205 549 223 611 q 187 378 187 487 q 205 205 187 267 q 255 117 222 142 q 338 92 288 92 m 526 866 l 428 866 l 339 1057 l 249 866 l 151 866 l 278 1122 l 399 1122 l 526 866 z "},"ố":{"ha":676,"x_min":48,"x_max":692,"o":"m 338 -14 q 123 80 199 -14 q 48 376 48 174 q 123 673 48 578 q 338 767 197 767 q 553 672 478 767 q 628 376 628 577 q 338 -14 628 -14 m 338 92 q 421 117 388 92 q 472 203 454 142 q 490 374 490 265 q 472 548 490 485 q 421 636 453 611 q 338 661 388 661 q 256 636 289 661 q 205 549 223 611 q 187 378 187 487 q 205 205 187 267 q 255 117 222 142 q 338 92 288 92 m 574 1297 l 692 1297 l 572 1109 l 476 1109 l 574 1297 m 278 1122 l 399 1122 l 526 866 l 428 866 l 339 1057 l 249 866 l 151 866 l 278 1122 z "},"ộ":{"ha":676,"x_min":48,"x_max":628,"o":"m 338 -14 q 123 80 199 -14 q 48 376 48 174 q 123 673 48 578 q 338 767 197 767 q 553 672 478 767 q 628 376 628 577 q 338 -14 628 -14 m 338 92 q 421 117 388 92 q 472 203 454 142 q 490 374 490 265 q 472 548 490 485 q 421 636 453 611 q 338 661 388 661 q 256 636 289 661 q 205 549 223 611 q 187 378 187 487 q 205 205 187 267 q 255 117 222 142 q 338 92 288 92 m 338 -267 q 278 -246 301 -267 q 256 -187 256 -224 q 278 -127 256 -149 q 338 -106 301 -106 q 398 -127 376 -106 q 421 -187 421 -149 q 398 -246 421 -224 q 338 -267 376 -267 m 526 866 l 428 866 l 339 1057 l 249 866 l 151 866 l 278 1122 l 399 1122 l 526 866 z "},"ồ":{"ha":676,"x_min":48,"x_max":628,"o":"m 338 -14 q 123 80 199 -14 q 48 376 48 174 q 123 673 48 578 q 338 767 197 767 q 553 672 478 767 q 628 376 628 577 q 338 -14 628 -14 m 338 92 q 421 117 388 92 q 472 203 454 142 q 490 374 490 265 q 472 548 490 485 q 421 636 453 611 q 338 661 388 661 q 256 636 289 661 q 205 549 223 611 q 187 378 187 487 q 205 205 187 267 q 255 117 222 142 q 338 92 288 92 m 583 1109 l 488 1109 l 367 1297 l 484 1297 l 583 1109 m 278 1122 l 399 1122 l 526 866 l 428 866 l 339 1057 l 249 866 l 151 866 l 278 1122 z "},"ổ":{"ha":676,"x_min":48,"x_max":652,"o":"m 338 -14 q 123 80 199 -14 q 48 376 48 174 q 123 673 48 578 q 338 767 197 767 q 553 672 478 767 q 628 376 628 577 q 338 -14 628 -14 m 338 92 q 421 117 388 92 q 472 203 454 142 q 490 374 490 265 q 472 548 490 485 q 421 636 453 611 q 338 661 388 661 q 256 636 289 661 q 205 549 223 611 q 187 378 187 487 q 205 205 187 267 q 255 117 222 142 q 338 92 288 92 m 507 1304 q 616 1284 580 1304 q 652 1226 652 1264 q 638 1188 652 1201 q 594 1159 623 1174 q 557 1136 570 1147 q 542 1109 544 1126 l 466 1109 q 485 1153 467 1138 q 532 1183 502 1169 q 561 1199 551 1192 q 570 1217 570 1206 q 553 1240 570 1232 q 497 1247 537 1247 q 435 1242 467 1247 q 374 1226 403 1237 l 374 1284 q 436 1299 399 1293 q 507 1304 473 1304 m 278 1122 l 399 1122 l 526 866 l 428 866 l 339 1057 l 249 866 l 151 866 l 278 1122 z "},"ỗ":{"ha":676,"x_min":48,"x_max":628,"o":"m 338 -14 q 123 80 199 -14 q 48 376 48 174 q 123 673 48 578 q 338 767 197 767 q 553 672 478 767 q 628 376 628 577 q 338 -14 628 -14 m 338 92 q 421 117 388 92 q 472 203 454 142 q 490 374 490 265 q 472 548 490 485 q 421 636 453 611 q 338 661 388 661 q 256 636 289 661 q 205 549 223 611 q 187 378 187 487 q 205 205 187 267 q 255 117 222 142 q 338 92 288 92 m 435 1221 q 495 1233 469 1221 q 547 1269 522 1244 l 547 1185 q 435 1142 505 1142 q 385 1149 408 1142 q 328 1169 363 1156 q 280 1188 299 1181 q 241 1194 260 1194 q 182 1182 208 1194 q 130 1145 156 1170 l 130 1228 q 242 1273 173 1273 q 293 1266 269 1273 q 349 1244 317 1258 q 398 1226 380 1232 q 435 1221 416 1221 m 278 1101 l 399 1101 l 526 866 l 428 866 l 339 1044 l 249 866 l 151 866 l 278 1101 z "},"ȍ":{"ha":676,"x_min":48,"x_max":628,"o":"m 338 -14 q 123 80 199 -14 q 48 376 48 174 q 123 673 48 578 q 338 767 197 767 q 553 672 478 767 q 628 376 628 577 q 338 -14 628 -14 m 338 92 q 421 117 388 92 q 472 203 454 142 q 490 374 490 265 q 472 548 490 485 q 421 636 453 611 q 338 661 388 661 q 256 636 289 661 q 205 549 223 611 q 187 378 187 487 q 205 205 187 267 q 255 117 222 142 q 338 92 288 92 m 174 866 l 90 1122 l 204 1122 l 278 866 l 174 866 m 399 866 l 316 1122 l 429 1122 l 503 866 l 399 866 z "},"ö":{"ha":676,"x_min":48,"x_max":628,"o":"m 338 -14 q 123 80 199 -14 q 48 376 48 174 q 123 673 48 578 q 338 767 197 767 q 553 672 478 767 q 628 376 628 577 q 338 -14 628 -14 m 338 92 q 421 117 388 92 q 472 203 454 142 q 490 374 490 265 q 472 548 490 485 q 421 636 453 611 q 338 661 388 661 q 256 636 289 661 q 205 549 223 611 q 187 378 187 487 q 205 205 187 267 q 255 117 222 142 q 338 92 288 92 m 205 906 q 145 928 167 906 q 122 986 122 949 q 145 1046 122 1024 q 205 1068 167 1068 q 264 1046 242 1068 q 287 986 287 1024 q 265 928 287 949 q 205 906 242 906 m 472 906 q 412 928 435 906 q 390 986 390 949 q 412 1046 390 1024 q 472 1068 435 1068 q 532 1046 509 1068 q 554 986 554 1024 q 532 928 554 949 q 472 906 510 906 z "},"ȫ":{"ha":676,"x_min":48,"x_max":628,"o":"m 338 -14 q 123 80 199 -14 q 48 376 48 174 q 123 673 48 578 q 338 767 197 767 q 553 672 478 767 q 628 376 628 577 q 338 -14 628 -14 m 338 92 q 421 117 388 92 q 472 203 454 142 q 490 374 490 265 q 472 548 490 485 q 421 636 453 611 q 338 661 388 661 q 256 636 289 661 q 205 549 223 611 q 187 378 187 487 q 205 205 187 267 q 255 117 222 142 q 338 92 288 92 m 205 906 q 145 928 167 906 q 122 986 122 949 q 145 1046 122 1024 q 205 1068 167 1068 q 264 1046 242 1068 q 287 986 287 1024 q 265 928 287 949 q 205 906 242 906 m 472 906 q 412 928 435 906 q 390 986 390 949 q 412 1046 390 1024 q 472 1068 435 1068 q 532 1046 509 1068 q 554 986 554 1024 q 532 928 554 949 q 472 906 510 906 m 135 1205 l 135 1297 l 541 1297 l 541 1205 l 135 1205 z "},"ȱ":{"ha":676,"x_min":48,"x_max":628,"o":"m 338 -14 q 123 80 199 -14 q 48 376 48 174 q 123 673 48 578 q 338 767 197 767 q 553 672 478 767 q 628 376 628 577 q 338 -14 628 -14 m 338 92 q 421 117 388 92 q 472 203 454 142 q 490 374 490 265 q 472 548 490 485 q 421 636 453 611 q 338 661 388 661 q 256 636 289 661 q 205 549 223 611 q 187 378 187 487 q 205 205 187 267 q 255 117 222 142 q 338 92 288 92 m 338 903 q 271 925 294 903 q 248 986 248 947 q 271 1048 248 1026 q 338 1070 294 1070 q 406 1048 383 1070 q 428 986 428 1026 q 406 925 428 947 q 338 903 383 903 m 135 1167 l 135 1260 l 541 1260 l 541 1167 l 135 1167 z "},"ọ":{"ha":676,"x_min":48,"x_max":628,"o":"m 338 -14 q 123 80 199 -14 q 48 376 48 174 q 123 673 48 578 q 338 767 197 767 q 553 672 478 767 q 628 376 628 577 q 338 -14 628 -14 m 338 92 q 421 117 388 92 q 472 203 454 142 q 490 374 490 265 q 472 548 490 485 q 421 636 453 611 q 338 661 388 661 q 256 636 289 661 q 205 549 223 611 q 187 378 187 487 q 205 205 187 267 q 255 117 222 142 q 338 92 288 92 m 338 -267 q 278 -246 301 -267 q 256 -187 256 -224 q 278 -127 256 -149 q 338 -106 301 -106 q 398 -127 376 -106 q 421 -187 421 -149 q 398 -246 421 -224 q 338 -267 376 -267 z "},"ò":{"ha":676,"x_min":48,"x_max":628,"o":"m 338 -14 q 123 80 199 -14 q 48 376 48 174 q 123 673 48 578 q 338 767 197 767 q 553 672 478 767 q 628 376 628 577 q 338 -14 628 -14 m 338 92 q 421 117 388 92 q 472 203 454 142 q 490 374 490 265 q 472 548 490 485 q 421 636 453 611 q 338 661 388 661 q 256 636 289 661 q 205 549 223 611 q 187 378 187 487 q 205 205 187 267 q 255 117 222 142 q 338 92 288 92 m 281 866 l 140 1122 l 277 1122 l 397 866 l 281 866 z "},"ỏ":{"ha":676,"x_min":48,"x_max":628,"o":"m 338 -14 q 123 80 199 -14 q 48 376 48 174 q 123 673 48 578 q 338 767 197 767 q 553 672 478 767 q 628 376 628 577 q 338 -14 628 -14 m 338 92 q 421 117 388 92 q 472 203 454 142 q 490 374 490 265 q 472 548 490 485 q 421 636 453 611 q 338 661 388 661 q 256 636 289 661 q 205 549 223 611 q 187 378 187 487 q 205 205 187 267 q 255 117 222 142 q 338 92 288 92 m 299 866 q 316 927 300 904 q 359 972 331 949 q 386 998 378 988 q 394 1023 394 1008 q 378 1055 394 1044 q 327 1066 363 1066 q 226 1049 273 1066 l 226 1113 q 279 1126 249 1121 q 336 1131 308 1131 q 476 1031 476 1131 q 463 980 476 999 q 424 940 450 960 q 390 906 401 922 q 377 866 378 890 l 299 866 z "},"ơ":{"ha":676,"x_min":48,"x_max":650,"o":"m 531 695 q 628 376 628 600 q 338 -14 628 -14 q 123 80 199 -14 q 48 376 48 174 q 123 673 48 578 q 338 767 197 767 q 401 764 353 767 q 419 763 409 763 q 439 762 428 762 q 523 788 493 762 q 553 872 553 815 q 540 969 553 918 l 635 969 q 647 920 643 944 q 650 865 650 896 q 618 754 650 797 q 531 695 587 711 m 338 92 q 421 117 388 92 q 472 203 454 142 q 490 374 490 265 q 472 548 490 485 q 421 636 453 611 q 338 661 388 661 q 256 636 289 661 q 205 549 223 611 q 187 378 187 487 q 205 205 187 267 q 255 117 222 142 q 338 92 288 92 z "},"ớ":{"ha":676,"x_min":48,"x_max":650,"o":"m 519 1122 l 388 866 l 278 866 l 390 1122 l 519 1122 m 531 695 q 628 376 628 600 q 338 -14 628 -14 q 123 80 199 -14 q 48 376 48 174 q 123 673 48 578 q 338 767 197 767 q 401 764 353 767 q 419 763 409 763 q 439 762 428 762 q 523 788 493 762 q 553 872 553 815 q 540 969 553 918 l 635 969 q 647 920 643 944 q 650 865 650 896 q 618 754 650 797 q 531 695 587 711 m 338 92 q 421 117 388 92 q 472 203 454 142 q 490 374 490 265 q 472 548 490 485 q 421 636 453 611 q 338 661 388 661 q 256 636 289 661 q 205 549 223 611 q 187 378 187 487 q 205 205 187 267 q 255 117 222 142 q 338 92 288 92 z "},"ợ":{"ha":676,"x_min":48,"x_max":650,"o":"m 531 695 q 628 376 628 600 q 338 -14 628 -14 q 123 80 199 -14 q 48 376 48 174 q 123 673 48 578 q 338 767 197 767 q 401 764 353 767 q 419 763 409 763 q 439 762 428 762 q 523 788 493 762 q 553 872 553 815 q 540 969 553 918 l 635 969 q 647 920 643 944 q 650 865 650 896 q 618 754 650 797 q 531 695 587 711 m 338 92 q 421 117 388 92 q 472 203 454 142 q 490 374 490 265 q 472 548 490 485 q 421 636 453 611 q 338 661 388 661 q 256 636 289 661 q 205 549 223 611 q 187 378 187 487 q 205 205 187 267 q 255 117 222 142 q 338 92 288 92 m 338 -267 q 278 -246 301 -267 q 256 -187 256 -224 q 278 -127 256 -149 q 338 -106 301 -106 q 398 -127 376 -106 q 421 -187 421 -149 q 398 -246 421 -224 q 338 -267 376 -267 z "},"ờ":{"ha":676,"x_min":48,"x_max":650,"o":"m 531 695 q 628 376 628 600 q 338 -14 628 -14 q 123 80 199 -14 q 48 376 48 174 q 123 673 48 578 q 338 767 197 767 q 401 764 353 767 q 419 763 409 763 q 439 762 428 762 q 523 788 493 762 q 553 872 553 815 q 540 969 553 918 l 635 969 q 647 920 643 944 q 650 865 650 896 q 618 754 650 797 q 531 695 587 711 m 338 92 q 421 117 388 92 q 472 203 454 142 q 490 374 490 265 q 472 548 490 485 q 421 636 453 611 q 338 661 388 661 q 256 636 289 661 q 205 549 223 611 q 187 378 187 487 q 205 205 187 267 q 255 117 222 142 q 338 92 288 92 m 275 866 l 135 1122 l 272 1122 l 391 866 l 275 866 z "},"ở":{"ha":676,"x_min":48,"x_max":650,"o":"m 531 695 q 628 376 628 600 q 338 -14 628 -14 q 123 80 199 -14 q 48 376 48 174 q 123 673 48 578 q 338 767 197 767 q 401 764 353 767 q 419 763 409 763 q 439 762 428 762 q 523 788 493 762 q 553 872 553 815 q 540 969 553 918 l 635 969 q 647 920 643 944 q 650 865 650 896 q 618 754 650 797 q 531 695 587 711 m 338 92 q 421 117 388 92 q 472 203 454 142 q 490 374 490 265 q 472 548 490 485 q 421 636 453 611 q 338 661 388 661 q 256 636 289 661 q 205 549 223 611 q 187 378 187 487 q 205 205 187 267 q 255 117 222 142 q 338 92 288 92 m 294 866 q 310 927 294 904 q 353 972 326 949 q 381 998 372 988 q 389 1023 389 1008 q 373 1055 389 1044 q 322 1066 357 1066 q 221 1049 267 1066 l 221 1113 q 273 1126 244 1121 q 331 1131 303 1131 q 471 1031 471 1131 q 458 980 471 999 q 419 940 444 960 q 384 906 396 922 q 372 866 372 890 l 294 866 z "},"ỡ":{"ha":676,"x_min":48,"x_max":650,"o":"m 233 982 q 180 968 205 982 q 130 926 154 955 l 130 1023 q 234 1072 171 1072 q 280 1064 259 1072 q 332 1040 301 1056 q 375 1019 358 1026 q 410 1013 392 1013 q 463 1026 438 1013 q 513 1067 488 1040 l 513 971 q 409 922 472 922 q 363 930 384 922 q 312 954 341 938 q 269 975 286 968 q 233 982 252 982 m 531 695 q 628 376 628 600 q 338 -14 628 -14 q 123 80 199 -14 q 48 376 48 174 q 123 673 48 578 q 338 767 197 767 q 401 764 353 767 q 419 763 409 763 q 439 762 428 762 q 523 788 493 762 q 553 872 553 815 q 540 969 553 918 l 635 969 q 647 920 643 944 q 650 865 650 896 q 618 754 650 797 q 531 695 587 711 m 338 92 q 421 117 388 92 q 472 203 454 142 q 490 374 490 265 q 472 548 490 485 q 421 636 453 611 q 338 661 388 661 q 256 636 289 661 q 205 549 223 611 q 187 378 187 487 q 205 205 187 267 q 255 117 222 142 q 338 92 288 92 z "},"ő":{"ha":676,"x_min":48,"x_max":628,"o":"m 338 -14 q 123 80 199 -14 q 48 376 48 174 q 123 673 48 578 q 338 767 197 767 q 553 672 478 767 q 628 376 628 577 q 338 -14 628 -14 m 338 92 q 421 117 388 92 q 472 203 454 142 q 490 374 490 265 q 472 548 490 485 q 421 636 453 611 q 338 661 388 661 q 256 636 289 661 q 205 549 223 611 q 187 378 187 487 q 205 205 187 267 q 255 117 222 142 q 338 92 288 92 m 174 866 l 249 1122 l 361 1122 l 278 866 l 174 866 m 399 866 l 474 1122 l 585 1122 l 502 866 l 399 866 z "},"ȏ":{"ha":676,"x_min":48,"x_max":628,"o":"m 338 -14 q 123 80 199 -14 q 48 376 48 174 q 123 673 48 578 q 338 767 197 767 q 553 672 478 767 q 628 376 628 577 q 338 -14 628 -14 m 338 92 q 421 117 388 92 q 472 203 454 142 q 490 374 490 265 q 472 548 490 485 q 421 636 453 611 q 338 661 388 661 q 256 636 289 661 q 205 549 223 611 q 187 378 187 487 q 205 205 187 267 q 255 117 222 142 q 338 92 288 92 m 148 885 q 202 1060 153 1003 q 338 1116 251 1116 q 473 1059 422 1116 q 529 885 524 1002 l 442 885 q 411 1003 437 967 q 338 1040 385 1040 q 264 1003 289 1040 q 235 885 238 967 l 148 885 z "},"ō":{"ha":676,"x_min":48,"x_max":628,"o":"m 338 -14 q 123 80 199 -14 q 48 376 48 174 q 123 673 48 578 q 338 767 197 767 q 553 672 478 767 q 628 376 628 577 q 338 -14 628 -14 m 338 92 q 421 117 388 92 q 472 203 454 142 q 490 374 490 265 q 472 548 490 485 q 421 636 453 611 q 338 661 388 661 q 256 636 289 661 q 205 549 223 611 q 187 378 187 487 q 205 205 187 267 q 255 117 222 142 q 338 92 288 92 m 135 941 l 135 1033 l 541 1033 l 541 941 l 135 941 z "},"ṓ":{"ha":676,"x_min":48,"x_max":628,"o":"m 338 -14 q 123 80 199 -14 q 48 376 48 174 q 123 673 48 578 q 338 767 197 767 q 553 672 478 767 q 628 376 628 577 q 338 -14 628 -14 m 338 92 q 421 117 388 92 q 472 203 454 142 q 490 374 490 265 q 472 548 490 485 q 421 636 453 611 q 338 661 388 661 q 256 636 289 661 q 205 549 223 611 q 187 378 187 487 q 205 205 187 267 q 255 117 222 142 q 338 92 288 92 m 135 941 l 135 1033 l 541 1033 l 541 941 l 135 941 m 279 1156 l 378 1357 l 518 1357 l 397 1156 l 279 1156 z "},"ṑ":{"ha":676,"x_min":48,"x_max":628,"o":"m 338 -14 q 123 80 199 -14 q 48 376 48 174 q 123 673 48 578 q 338 767 197 767 q 553 672 478 767 q 628 376 628 577 q 338 -14 628 -14 m 338 92 q 421 117 388 92 q 472 203 454 142 q 490 374 490 265 q 472 548 490 485 q 421 636 453 611 q 338 661 388 661 q 256 636 289 661 q 205 549 223 611 q 187 378 187 487 q 205 205 187 267 q 255 117 222 142 q 338 92 288 92 m 135 941 l 135 1033 l 541 1033 l 541 941 l 135 941 m 279 1156 l 159 1357 l 299 1357 l 397 1156 l 279 1156 z "},"ǫ":{"ha":676,"x_min":48,"x_max":628,"o":"m 451 4 q 308 -153 308 -53 q 328 -210 308 -190 q 388 -230 349 -230 q 469 -210 426 -230 l 476 -270 q 374 -294 430 -294 q 264 -260 303 -294 q 225 -162 225 -225 q 308 -12 225 -72 q 48 376 48 8 q 123 673 48 578 q 338 767 197 767 q 553 672 478 767 q 628 376 628 577 q 584 128 628 218 q 451 4 540 39 m 187 378 q 205 205 187 267 q 255 117 222 142 q 338 92 288 92 q 421 117 388 92 q 472 203 454 142 q 490 374 490 265 q 472 548 490 485 q 421 636 453 611 q 338 661 388 661 q 256 636 289 661 q 205 549 223 611 q 187 378 187 487 z "},"ø":{"ha":676,"x_min":48,"x_max":628,"o":"m 565 656 q 628 376 628 558 q 338 -14 628 -14 q 167 37 233 -14 l 128 -24 l 59 21 l 110 100 q 48 376 48 196 q 123 673 48 578 q 338 767 197 767 q 507 718 439 767 l 546 779 l 615 735 l 565 656 m 338 664 q 252 639 287 664 q 199 550 218 613 q 181 378 181 488 q 195 220 181 281 l 447 614 q 401 652 428 640 q 338 664 374 664 m 338 90 q 424 115 390 90 q 477 202 458 140 q 496 374 496 265 q 480 538 496 474 l 227 142 q 274 102 247 115 q 338 90 301 90 z "},"ǿ":{"ha":676,"x_min":48,"x_max":628,"o":"m 565 656 q 628 376 628 558 q 338 -14 628 -14 q 167 37 233 -14 l 128 -24 l 59 21 l 110 100 q 48 376 48 196 q 123 673 48 578 q 338 767 197 767 q 507 718 439 767 l 546 779 l 615 735 l 565 656 m 338 664 q 252 639 287 664 q 199 550 218 613 q 181 378 181 488 q 195 220 181 281 l 447 614 q 401 652 428 640 q 338 664 374 664 m 338 90 q 424 115 390 90 q 477 202 458 140 q 496 374 496 265 q 480 538 496 474 l 227 142 q 274 102 247 115 q 338 90 301 90 m 281 866 l 400 1122 l 537 1122 l 397 866 l 281 866 z "},"õ":{"ha":676,"x_min":48,"x_max":628,"o":"m 338 -14 q 123 80 199 -14 q 48 376 48 174 q 123 673 48 578 q 338 767 197 767 q 553 672 478 767 q 628 376 628 577 q 338 -14 628 -14 m 338 92 q 421 117 388 92 q 472 203 454 142 q 490 374 490 265 q 472 548 490 485 q 421 636 453 611 q 338 661 388 661 q 256 636 289 661 q 205 549 223 611 q 187 378 187 487 q 205 205 187 267 q 255 117 222 142 q 338 92 288 92 m 431 922 q 384 930 406 922 q 328 954 362 938 q 282 975 301 968 q 244 982 263 982 q 187 968 213 982 q 135 926 161 955 l 135 1023 q 245 1072 178 1072 q 293 1064 270 1072 q 349 1040 316 1056 q 395 1019 377 1026 q 433 1013 414 1013 q 490 1026 465 1013 q 541 1067 516 1039 l 541 971 q 431 922 500 922 z "},"ṍ":{"ha":676,"x_min":48,"x_max":628,"o":"m 338 -14 q 123 80 199 -14 q 48 376 48 174 q 123 673 48 578 q 338 767 197 767 q 553 672 478 767 q 628 376 628 577 q 338 -14 628 -14 m 338 92 q 421 117 388 92 q 472 203 454 142 q 490 374 490 265 q 472 548 490 485 q 421 636 453 611 q 338 661 388 661 q 256 636 289 661 q 205 549 223 611 q 187 378 187 487 q 205 205 187 267 q 255 117 222 142 q 338 92 288 92 m 431 922 q 384 930 406 922 q 328 954 362 938 q 282 975 301 968 q 244 982 263 982 q 187 968 213 982 q 135 926 161 955 l 135 1023 q 245 1072 178 1072 q 293 1064 270 1072 q 349 1040 316 1056 q 395 1019 377 1026 q 433 1013 414 1013 q 490 1026 465 1013 q 541 1067 516 1039 l 541 971 q 431 922 500 922 m 279 1156 l 378 1357 l 518 1357 l 397 1156 l 279 1156 z "},"ṏ":{"ha":676,"x_min":48,"x_max":628,"o":"m 338 -14 q 123 80 199 -14 q 48 376 48 174 q 123 673 48 578 q 338 767 197 767 q 553 672 478 767 q 628 376 628 577 q 338 -14 628 -14 m 338 92 q 421 117 388 92 q 472 203 454 142 q 490 374 490 265 q 472 548 490 485 q 421 636 453 611 q 338 661 388 661 q 256 636 289 661 q 205 549 223 611 q 187 378 187 487 q 205 205 187 267 q 255 117 222 142 q 338 92 288 92 m 431 922 q 384 930 406 922 q 328 954 362 938 q 282 975 301 968 q 244 982 263 982 q 187 968 213 982 q 135 926 161 955 l 135 1023 q 245 1072 178 1072 q 293 1064 270 1072 q 349 1040 316 1056 q 395 1019 377 1026 q 433 1013 414 1013 q 490 1026 465 1013 q 541 1067 516 1039 l 541 971 q 431 922 500 922 m 205 1170 q 145 1192 167 1170 q 122 1250 122 1213 q 145 1310 122 1288 q 205 1332 167 1332 q 264 1310 242 1332 q 287 1250 287 1288 q 265 1192 287 1213 q 205 1170 242 1170 m 472 1170 q 412 1192 435 1170 q 390 1250 390 1213 q 412 1310 390 1288 q 472 1332 435 1332 q 532 1310 509 1332 q 554 1250 554 1288 q 532 1192 554 1213 q 472 1170 510 1170 z "},"ȭ":{"ha":676,"x_min":48,"x_max":628,"o":"m 338 -14 q 123 80 199 -14 q 48 376 48 174 q 123 673 48 578 q 338 767 197 767 q 553 672 478 767 q 628 376 628 577 q 338 -14 628 -14 m 338 92 q 421 117 388 92 q 472 203 454 142 q 490 374 490 265 q 472 548 490 485 q 421 636 453 611 q 338 661 388 661 q 256 636 289 661 q 205 549 223 611 q 187 378 187 487 q 205 205 187 267 q 255 117 222 142 q 338 92 288 92 m 431 922 q 384 930 406 922 q 328 954 362 938 q 282 975 301 968 q 244 982 263 982 q 187 968 213 982 q 135 926 161 955 l 135 1023 q 245 1072 178 1072 q 293 1064 270 1072 q 349 1040 316 1056 q 395 1019 377 1026 q 433 1013 414 1013 q 490 1026 465 1013 q 541 1067 516 1039 l 541 971 q 431 922 500 922 m 135 1205 l 135 1297 l 541 1297 l 541 1205 l 135 1205 z "},"œ":{"ha":1064,"x_min":48,"x_max":1024,"o":"m 1024 333 l 625 333 q 649 193 627 244 q 714 120 671 142 q 828 99 757 99 q 989 125 897 99 l 989 13 q 814 -14 898 -14 q 651 17 716 -14 q 551 114 587 47 q 331 -14 484 -14 q 122 81 197 -14 q 48 376 48 175 q 122 673 48 578 q 331 767 195 767 q 466 732 410 767 q 556 625 523 697 q 769 768 617 768 q 957 674 890 768 q 1024 376 1024 579 l 1024 333 m 763 672 q 690 650 719 672 q 643 573 660 628 q 625 424 626 518 l 895 424 q 877 575 894 520 q 833 651 861 629 q 763 672 805 672 m 336 92 q 418 117 385 92 q 468 203 451 142 q 486 374 486 265 q 468 548 486 485 q 418 636 451 611 q 336 661 385 661 q 255 636 288 661 q 205 549 222 611 q 187 378 187 487 q 205 205 187 268 q 255 117 222 142 q 336 92 287 92 z "},"p":{"ha":687,"x_min":82,"x_max":639,"o":"m 82 756 l 197 756 l 206 676 l 214 676 q 282 742 239 717 q 382 767 325 767 q 512 730 454 767 q 604 608 569 692 q 639 391 639 524 q 551 86 639 186 q 285 -13 463 -13 q 217 -9 260 -13 l 217 -306 l 82 -306 l 82 756 m 295 95 q 409 123 364 95 q 477 213 454 150 q 501 378 501 275 q 481 545 501 485 q 427 628 461 605 q 344 651 393 651 q 271 632 306 651 q 217 578 236 613 l 217 102 q 255 97 232 99 q 295 95 277 95 z "},"þ":{"ha":687,"x_min":82,"x_max":639,"o":"m 82 1122 l 217 1122 l 217 682 l 224 682 q 292 744 249 721 q 393 767 335 767 q 518 730 463 767 q 606 608 573 692 q 639 391 639 524 q 551 86 639 186 q 285 -13 463 -13 q 217 -9 260 -13 l 217 -306 l 82 -306 l 82 1122 m 295 95 q 409 123 364 95 q 477 213 454 150 q 501 378 501 275 q 481 544 501 485 q 427 627 461 604 q 343 650 392 650 q 270 632 305 650 q 217 582 236 615 l 217 102 q 255 97 232 99 q 295 95 277 95 z "},"q":{"ha":687,"x_min":48,"x_max":605,"o":"m 470 72 l 463 72 q 395 10 438 33 q 297 -13 352 -13 q 170 24 226 -13 q 81 146 115 62 q 48 364 48 231 q 136 668 48 568 q 399 767 224 767 q 507 758 450 767 q 605 734 563 749 l 605 -306 l 470 -306 l 470 72 m 346 103 q 417 122 383 103 q 470 172 451 140 l 470 650 q 390 659 425 659 q 238 594 288 659 q 187 376 187 528 q 207 209 187 269 q 261 126 226 149 q 346 103 296 103 z "},"r":{"ha":451,"x_min":82,"x_max":444,"o":"m 82 756 l 194 756 l 205 652 l 213 652 q 291 736 243 708 q 399 764 340 764 q 444 760 422 764 l 444 633 q 391 637 423 637 q 290 610 338 637 q 217 537 242 583 l 217 0 l 82 0 l 82 756 z "},"ŕ":{"ha":451,"x_min":82,"x_max":451,"o":"m 82 756 l 194 756 l 205 652 l 213 652 q 291 736 243 708 q 399 764 340 764 q 444 760 422 764 l 444 633 q 391 637 423 637 q 290 610 338 637 q 217 537 242 583 l 217 0 l 82 0 l 82 756 m 195 866 l 315 1122 l 451 1122 l 311 866 l 195 866 z "},"ř":{"ha":451,"x_min":66,"x_max":444,"o":"m 82 756 l 194 756 l 205 652 l 213 652 q 291 736 243 708 q 399 764 340 764 q 444 760 422 764 l 444 633 q 391 637 423 637 q 290 610 338 637 q 217 537 242 583 l 217 0 l 82 0 l 82 756 m 343 1122 l 440 1122 l 313 866 l 192 866 l 66 1122 l 163 1122 l 253 931 l 343 1122 z "},"ŗ":{"ha":451,"x_min":66,"x_max":444,"o":"m 82 756 l 194 756 l 205 652 l 213 652 q 291 736 243 708 q 399 764 340 764 q 444 760 422 764 l 444 633 q 391 637 423 637 q 290 610 338 637 q 217 537 242 583 l 217 0 l 82 0 l 82 756 m 148 -106 q 211 -127 190 -106 q 233 -190 233 -149 q 221 -260 233 -222 q 190 -330 210 -298 l 104 -330 q 136 -231 130 -275 q 84 -212 102 -228 q 66 -168 66 -195 q 87 -122 66 -139 q 148 -106 108 -106 z "},"ȑ":{"ha":451,"x_min":5,"x_max":444,"o":"m 82 756 l 194 756 l 205 652 l 213 652 q 291 736 243 708 q 399 764 340 764 q 444 760 422 764 l 444 633 q 391 637 423 637 q 290 610 338 637 q 217 537 242 583 l 217 0 l 82 0 l 82 756 m 88 866 l 5 1122 l 119 1122 l 192 866 l 88 866 m 314 866 l 231 1122 l 344 1122 l 417 866 l 314 866 z "},"ṛ":{"ha":451,"x_min":67,"x_max":444,"o":"m 82 756 l 194 756 l 205 652 l 213 652 q 291 736 243 708 q 399 764 340 764 q 444 760 422 764 l 444 633 q 391 637 423 637 q 290 610 338 637 q 217 537 242 583 l 217 0 l 82 0 l 82 756 m 149 -267 q 90 -246 112 -267 q 67 -187 67 -224 q 90 -127 67 -149 q 149 -106 112 -106 q 209 -127 187 -106 q 232 -187 232 -149 q 209 -246 232 -224 q 149 -267 187 -267 z "},"ȓ":{"ha":451,"x_min":63,"x_max":444,"o":"m 82 756 l 194 756 l 205 652 l 213 652 q 291 736 243 708 q 399 764 340 764 q 444 760 422 764 l 444 633 q 391 637 423 637 q 290 610 338 637 q 217 537 242 583 l 217 0 l 82 0 l 82 756 m 63 885 q 117 1060 67 1003 q 252 1116 166 1116 q 388 1059 337 1116 q 444 885 439 1002 l 356 885 q 325 1003 351 967 q 252 1040 299 1040 q 178 1003 203 1040 q 150 885 153 967 l 63 885 z "},"ṟ":{"ha":451,"x_min":-41,"x_max":444,"o":"m 82 756 l 194 756 l 205 652 l 213 652 q 291 736 243 708 q 399 764 340 764 q 444 760 422 764 l 444 633 q 391 637 423 637 q 290 610 338 637 q 217 537 242 583 l 217 0 l 82 0 l 82 756 m -41 -231 l -41 -140 l 340 -140 l 340 -231 l -41 -231 z "},"s":{"ha":538,"x_min":39,"x_max":506,"o":"m 237 -14 q 57 15 140 -14 l 57 127 q 234 97 147 97 q 344 126 307 97 q 381 209 381 155 q 360 278 381 254 q 292 315 338 303 l 210 337 q 80 411 121 360 q 39 545 39 462 q 71 661 39 611 q 165 739 103 711 q 316 767 228 767 q 468 750 393 767 l 468 638 q 396 652 431 648 q 322 656 362 656 q 203 626 242 656 q 164 546 164 595 q 185 481 164 505 q 251 444 206 457 l 334 424 q 466 349 426 399 q 506 213 506 298 q 474 92 506 143 q 381 13 442 40 q 237 -14 320 -14 z "},"ś":{"ha":538,"x_min":39,"x_max":506,"o":"m 237 -14 q 57 15 140 -14 l 57 127 q 234 97 147 97 q 344 126 307 97 q 381 209 381 155 q 360 278 381 254 q 292 315 338 303 l 210 337 q 80 411 121 360 q 39 545 39 462 q 71 661 39 611 q 165 739 103 711 q 316 767 228 767 q 468 750 393 767 l 468 638 q 396 652 431 648 q 322 656 362 656 q 203 626 242 656 q 164 546 164 595 q 185 481 164 505 q 251 444 206 457 l 334 424 q 466 349 426 399 q 506 213 506 298 q 474 92 506 143 q 381 13 442 40 q 237 -14 320 -14 m 213 866 l 333 1122 l 469 1122 l 329 866 l 213 866 z "},"ṥ":{"ha":538,"x_min":39,"x_max":506,"o":"m 237 -14 q 57 15 140 -14 l 57 127 q 234 97 147 97 q 344 126 307 97 q 381 209 381 155 q 360 278 381 254 q 292 315 338 303 l 210 337 q 80 411 121 360 q 39 545 39 462 q 71 661 39 611 q 165 739 103 711 q 316 767 228 767 q 468 750 393 767 l 468 638 q 396 652 431 648 q 322 656 362 656 q 203 626 242 656 q 164 546 164 595 q 185 481 164 505 q 251 444 206 457 l 334 424 q 466 349 426 399 q 506 213 506 298 q 474 92 506 143 q 381 13 442 40 q 237 -14 320 -14 m 199 1094 q 142 1111 163 1094 q 122 1160 122 1128 q 142 1209 122 1192 q 199 1226 163 1226 q 256 1209 235 1226 q 277 1160 277 1192 q 256 1111 277 1128 q 199 1094 235 1094 m 213 866 l 333 1122 l 469 1122 l 329 866 l 213 866 z "},"š":{"ha":538,"x_min":39,"x_max":506,"o":"m 237 -14 q 57 15 140 -14 l 57 127 q 234 97 147 97 q 344 126 307 97 q 381 209 381 155 q 360 278 381 254 q 292 315 338 303 l 210 337 q 80 411 121 360 q 39 545 39 462 q 71 661 39 611 q 165 739 103 711 q 316 767 228 767 q 468 750 393 767 l 468 638 q 396 652 431 648 q 322 656 362 656 q 203 626 242 656 q 164 546 164 595 q 185 481 164 505 q 251 444 206 457 l 334 424 q 466 349 426 399 q 506 213 506 298 q 474 92 506 143 q 381 13 442 40 q 237 -14 320 -14 m 361 1122 l 458 1122 l 331 866 l 210 866 l 84 1122 l 181 1122 l 272 931 l 361 1122 z "},"ṧ":{"ha":538,"x_min":39,"x_max":506,"o":"m 237 -14 q 57 15 140 -14 l 57 127 q 234 97 147 97 q 344 126 307 97 q 381 209 381 155 q 360 278 381 254 q 292 315 338 303 l 210 337 q 80 411 121 360 q 39 545 39 462 q 71 661 39 611 q 165 739 103 711 q 316 767 228 767 q 468 750 393 767 l 468 638 q 396 652 431 648 q 322 656 362 656 q 203 626 242 656 q 164 546 164 595 q 185 481 164 505 q 251 444 206 457 l 334 424 q 466 349 426 399 q 506 213 506 298 q 474 92 506 143 q 381 13 442 40 q 237 -14 320 -14 m 271 1133 q 214 1150 235 1133 q 193 1198 193 1167 q 214 1247 193 1230 q 271 1265 235 1265 q 328 1247 307 1265 q 349 1198 349 1230 q 328 1149 349 1166 q 271 1133 307 1133 m 361 1122 l 458 1122 l 331 866 l 210 866 l 84 1122 l 181 1122 l 272 931 l 361 1122 z "}}}
